<svg xmlns="http://www.w3.org/2000/svg" xmlns:xlink="http://www.w3.org/1999/xlink" width="60" zoomAndPan="magnify" viewBox="0 0 45 44.999999" height="60" preserveAspectRatio="xMidYMid meet" version="1.0"><defs><clipPath id="7b526b350b"><path d="M 12 34 L 24 34 L 24 41.289062 L 12 41.289062 Z M 12 34 " clip-rule="nonzero"/></clipPath><clipPath id="0baee40c0d"><path d="M 3.074219 13 L 35 13 L 35 37 L 3.074219 37 Z M 3.074219 13 " clip-rule="nonzero"/></clipPath><clipPath id="08e82b0ea4"><path d="M 7 3.789062 L 37 3.789062 L 37 29 L 7 29 Z M 7 3.789062 " clip-rule="nonzero"/></clipPath><clipPath id="fa569c7575"><path d="M 24 34 L 40.574219 34 L 40.574219 41.289062 L 24 41.289062 Z M 24 34 " clip-rule="nonzero"/></clipPath></defs><g clip-path="url(#7b526b350b)"><path fill="#ffffff" d="M 23.089844 39.394531 C 22.679688 39.558594 22.269531 39.710938 21.847656 39.839844 C 20.164062 39.308594 18.59375 38.550781 17.132812 37.566406 C 15.667969 36.582031 14.378906 35.410156 13.253906 34.050781 L 12.179688 34.707031 C 13.40625 36.21875 14.832031 37.519531 16.445312 38.605469 C 18.0625 39.695312 19.804688 40.519531 21.667969 41.085938 C 21.789062 41.121094 21.90625 41.121094 22.027344 41.085938 C 22.394531 40.976562 22.753906 40.835938 23.113281 40.707031 C 23.101562 40.636719 23.09375 40.5625 23.089844 40.492188 Z M 23.089844 39.394531 " fill-opacity="1" fill-rule="nonzero"/></g><path fill="#ffffff" d="M 32.367188 18.957031 C 32.382812 18.984375 32.398438 19.019531 32.414062 19.046875 L 32.414062 12.023438 C 32.414062 11.867188 32.363281 11.730469 32.261719 11.613281 C 32.15625 11.496094 32.027344 11.425781 31.875 11.40625 C 28.433594 10.957031 25.191406 9.898438 22.144531 8.238281 C 21.945312 8.128906 21.75 8.128906 21.550781 8.238281 C 18.503906 9.898438 15.261719 10.953125 11.820312 11.40625 C 11.667969 11.425781 11.539062 11.496094 11.433594 11.613281 C 11.332031 11.730469 11.28125 11.867188 11.28125 12.023438 L 11.28125 21.875 C 11.28125 23.527344 11.53125 25.140625 12.027344 26.71875 L 13.140625 26.109375 C 12.730469 24.726562 12.527344 23.316406 12.523438 21.875 L 12.523438 12.5625 C 15.804688 12.070312 18.914062 11.042969 21.847656 9.484375 C 24.777344 11.042969 27.886719 12.070312 31.167969 12.5625 L 31.167969 17.105469 C 31.589844 17.699219 31.996094 18.3125 32.367188 18.957031 Z M 32.367188 18.957031 " fill-opacity="1" fill-rule="nonzero"/><path fill="#ffffff" d="M 28.398438 30.617188 C 26.738281 33.023438 24.554688 34.78125 21.847656 35.882812 C 19.761719 35.035156 17.96875 33.765625 16.46875 32.085938 L 15.394531 32.742188 C 17.105469 34.722656 19.183594 36.183594 21.625 37.132812 C 21.773438 37.191406 21.921875 37.191406 22.070312 37.132812 C 23.75 36.480469 25.277344 35.566406 26.648438 34.398438 C 28.019531 33.230469 29.160156 31.867188 30.074219 30.3125 C 29.644531 30.527344 29.1875 30.636719 28.707031 30.640625 C 28.605469 30.636719 28.5 30.632812 28.398438 30.617188 Z M 28.398438 30.617188 " fill-opacity="1" fill-rule="nonzero"/><g clip-path="url(#0baee40c0d)"><path fill="#ffffff" d="M 27.117188 26.566406 C 27.023438 26.71875 26.953125 26.878906 26.902344 27.050781 C 26.839844 27.289062 26.824219 27.53125 26.855469 27.777344 C 26.886719 28.019531 26.964844 28.25 27.089844 28.464844 C 27.214844 28.679688 27.375 28.859375 27.570312 29.011719 C 27.765625 29.160156 27.984375 29.269531 28.222656 29.332031 C 28.382812 29.375 28.542969 29.394531 28.707031 29.394531 C 29.042969 29.394531 29.351562 29.3125 29.640625 29.148438 L 33.949219 26.660156 C 34.316406 26.449219 34.585938 26.144531 34.746094 25.75 C 34.90625 25.355469 34.929688 24.953125 34.816406 24.542969 C 34.699219 24.132812 34.472656 23.800781 34.128906 23.550781 C 33.785156 23.296875 33.398438 23.175781 32.972656 23.191406 C 32.058594 20.664062 30.734375 18.371094 29.007812 16.3125 C 29.226562 15.949219 29.316406 15.554688 29.265625 15.132812 C 29.21875 14.710938 29.046875 14.347656 28.746094 14.042969 C 28.449219 13.742188 28.089844 13.558594 27.667969 13.503906 C 27.246094 13.445312 26.851562 13.523438 26.484375 13.738281 L 22.179688 16.226562 C 21.8125 16.4375 21.550781 16.734375 21.386719 17.125 C 21.226562 17.515625 21.199219 17.914062 21.308594 18.324219 C 21.417969 18.730469 21.640625 19.0625 21.976562 19.320312 C 22.308594 19.578125 22.6875 19.707031 23.113281 19.707031 C 23.125 19.707031 23.136719 19.699219 23.148438 19.699219 C 23.378906 20.339844 23.652344 20.992188 23.957031 21.632812 L 4.472656 32.246094 C 4.03125 32.484375 3.695312 32.828125 3.46875 33.273438 C 3.238281 33.722656 3.15625 34.195312 3.21875 34.691406 C 3.28125 35.191406 3.476562 35.628906 3.808594 36.003906 C 4.140625 36.378906 4.550781 36.628906 5.035156 36.753906 C 5.703125 36.925781 6.328125 36.832031 6.910156 36.46875 L 25.84375 24.898438 C 26.25 25.484375 26.679688 26.046875 27.117188 26.566406 Z M 33.011719 24.425781 C 33.152344 24.425781 33.277344 24.46875 33.390625 24.554688 C 33.5 24.640625 33.574219 24.75 33.609375 24.886719 C 33.648438 25.019531 33.636719 25.152344 33.585938 25.285156 C 33.53125 25.414062 33.445312 25.511719 33.320312 25.582031 L 29.015625 28.070312 C 28.867188 28.15625 28.710938 28.175781 28.542969 28.132812 C 28.277344 28.058594 28.125 27.886719 28.089844 27.613281 C 28.050781 27.339844 28.15625 27.132812 28.394531 26.992188 L 32.699219 24.507812 C 32.796875 24.453125 32.898438 24.421875 33.011719 24.421875 Z M 30.214844 20.199219 C 30.84375 21.285156 31.375 22.414062 31.800781 23.589844 L 28.046875 25.757812 C 27.242188 24.800781 26.53125 23.773438 25.910156 22.6875 C 25.277344 21.605469 24.75 20.472656 24.324219 19.296875 L 28.074219 17.128906 C 28.878906 18.089844 29.589844 19.113281 30.214844 20.199219 Z M 22.574219 18.152344 C 22.488281 18.003906 22.46875 17.847656 22.511719 17.679688 C 22.554688 17.515625 22.652344 17.390625 22.800781 17.304688 L 27.105469 14.816406 C 27.253906 14.730469 27.414062 14.710938 27.578125 14.753906 C 27.746094 14.800781 27.871094 14.894531 27.957031 15.042969 C 28.042969 15.191406 28.0625 15.351562 28.019531 15.515625 C 27.972656 15.683594 27.878906 15.808594 27.730469 15.894531 L 23.421875 18.378906 C 23.273438 18.464844 23.117188 18.488281 22.949219 18.441406 C 22.785156 18.398438 22.660156 18.300781 22.574219 18.152344 Z M 6.261719 35.410156 C 6.125 35.496094 5.976562 35.550781 5.816406 35.574219 C 5.65625 35.597656 5.496094 35.589844 5.339844 35.550781 C 5.183594 35.511719 5.039062 35.445312 4.910156 35.347656 C 4.78125 35.25 4.675781 35.128906 4.597656 34.988281 C 4.515625 34.847656 4.464844 34.699219 4.445312 34.539062 C 4.425781 34.378906 4.4375 34.21875 4.480469 34.0625 C 4.527344 33.90625 4.597656 33.765625 4.699219 33.640625 C 4.800781 33.515625 4.925781 33.414062 5.066406 33.335938 L 24.523438 22.742188 C 24.625 22.929688 24.722656 23.121094 24.832031 23.308594 C 24.941406 23.492188 25.054688 23.675781 25.167969 23.855469 Z M 6.261719 35.410156 " fill-opacity="1" fill-rule="nonzero"/></g><g clip-path="url(#08e82b0ea4)"><path fill="#ffffff" d="M 9.804688 27.925781 C 9.132812 25.964844 8.796875 23.949219 8.792969 21.875 L 8.792969 9.152344 C 11.109375 9.09375 13.375 8.726562 15.589844 8.054688 C 17.804688 7.378906 19.890625 6.417969 21.847656 5.175781 C 23.800781 6.417969 25.886719 7.378906 28.101562 8.054688 C 30.316406 8.726562 32.582031 9.09375 34.898438 9.152344 L 34.898438 21.875 C 34.898438 22.109375 34.890625 22.339844 34.882812 22.574219 C 35.214844 22.824219 35.488281 23.128906 35.699219 23.488281 C 35.832031 23.722656 35.929688 23.972656 35.996094 24.234375 C 36.089844 23.449219 36.140625 22.664062 36.140625 21.875 L 36.140625 8.535156 C 36.140625 8.363281 36.082031 8.21875 35.960938 8.097656 C 35.839844 7.976562 35.691406 7.914062 35.519531 7.914062 C 33.210938 7.914062 30.945312 7.589844 28.726562 6.941406 C 26.507812 6.292969 24.425781 5.347656 22.476562 4.105469 L 22.179688 3.917969 C 21.960938 3.777344 21.738281 3.777344 21.515625 3.917969 L 21.21875 4.105469 C 19.269531 5.347656 17.1875 6.292969 14.96875 6.941406 C 12.75 7.589844 10.484375 7.914062 8.171875 7.914062 C 8 7.914062 7.855469 7.976562 7.730469 8.097656 C 7.609375 8.21875 7.550781 8.363281 7.550781 8.535156 L 7.550781 21.875 C 7.554688 24.15625 7.9375 26.375 8.699219 28.527344 Z M 9.804688 27.925781 " fill-opacity="1" fill-rule="nonzero"/></g><path fill="#ffffff" d="M 34.566406 27.734375 L 33.820312 28.171875 C 33.109375 30.167969 32.101562 31.992188 30.785156 33.652344 L 32.324219 33.652344 C 33.796875 31.605469 34.855469 29.359375 35.496094 26.917969 C 35.242188 27.253906 34.929688 27.527344 34.566406 27.734375 Z M 34.566406 27.734375 " fill-opacity="1" fill-rule="nonzero"/><g clip-path="url(#fa569c7575)"><path fill="#ffffff" d="M 38.628906 37.382812 L 38.007812 37.382812 L 38.007812 36.761719 C 38.007812 36.515625 37.960938 36.277344 37.863281 36.046875 C 37.769531 35.820312 37.636719 35.617188 37.460938 35.441406 C 37.285156 35.269531 37.085938 35.132812 36.855469 35.039062 C 36.628906 34.945312 36.390625 34.898438 36.140625 34.898438 L 28.683594 34.898438 C 28.4375 34.898438 28.199219 34.945312 27.96875 35.039062 C 27.742188 35.132812 27.539062 35.269531 27.363281 35.441406 C 27.191406 35.617188 27.054688 35.820312 26.960938 36.046875 C 26.867188 36.277344 26.820312 36.515625 26.820312 36.761719 L 26.820312 37.382812 L 26.195312 37.382812 C 25.949219 37.382812 25.710938 37.429688 25.484375 37.523438 C 25.253906 37.621094 25.054688 37.753906 24.878906 37.929688 C 24.703125 38.105469 24.570312 38.304688 24.472656 38.535156 C 24.378906 38.761719 24.332031 39 24.332031 39.246094 L 24.332031 40.492188 C 24.332031 40.664062 24.394531 40.808594 24.515625 40.929688 C 24.636719 41.050781 24.78125 41.113281 24.953125 41.113281 L 39.871094 41.113281 C 40.042969 41.113281 40.191406 41.050781 40.3125 40.929688 C 40.433594 40.808594 40.492188 40.664062 40.492188 40.492188 L 40.492188 39.246094 C 40.492188 39 40.445312 38.761719 40.351562 38.535156 C 40.257812 38.304688 40.121094 38.105469 39.945312 37.929688 C 39.773438 37.753906 39.570312 37.621094 39.34375 37.523438 C 39.113281 37.429688 38.875 37.382812 38.628906 37.382812 Z M 28.0625 36.761719 C 28.0625 36.589844 28.121094 36.441406 28.242188 36.320312 C 28.363281 36.199219 28.511719 36.140625 28.683594 36.140625 L 36.140625 36.140625 C 36.3125 36.140625 36.460938 36.199219 36.582031 36.320312 C 36.703125 36.441406 36.761719 36.589844 36.761719 36.761719 L 36.761719 37.382812 L 28.0625 37.382812 Z M 39.25 39.867188 L 25.574219 39.867188 L 25.574219 39.246094 C 25.574219 39.074219 25.636719 38.929688 25.757812 38.808594 C 25.878906 38.6875 26.027344 38.625 26.195312 38.625 L 38.628906 38.625 C 38.800781 38.625 38.945312 38.6875 39.066406 38.808594 C 39.1875 38.929688 39.25 39.074219 39.25 39.246094 Z M 39.25 39.867188 " fill-opacity="1" fill-rule="nonzero"/></g></svg>