<svg xmlns="http://www.w3.org/2000/svg" xmlns:xlink="http://www.w3.org/1999/xlink" width="60" zoomAndPan="magnify" viewBox="0 0 45 44.999999" height="60" preserveAspectRatio="xMidYMid meet" version="1.0"><defs><clipPath id="27caf4f169"><path d="M 9 4.5 L 42.859375 4.5 L 42.859375 39.75 L 9 39.75 Z M 9 4.5 " clip-rule="nonzero"/></clipPath><clipPath id="53385218c1"><path d="M 2.359375 17 L 17 17 L 17 39.75 L 2.359375 39.75 Z M 2.359375 17 " clip-rule="nonzero"/></clipPath></defs><g clip-path="url(#27caf4f169)"><path fill="#ffffff" d="M 25.222656 4.503906 C 18.613281 4.503906 12.871094 8.199219 9.914062 13.617188 C 10.027344 13.597656 10.121094 13.597656 10.234375 13.597656 C 11.46875 13.597656 12.679688 14.035156 13.628906 14.8125 C 16.015625 10.890625 20.316406 8.292969 25.222656 8.292969 C 32.726562 8.292969 38.847656 14.394531 38.847656 21.917969 C 38.847656 29.441406 32.726562 35.539062 25.222656 35.539062 C 22.363281 35.539062 19.710938 34.648438 17.511719 33.132812 L 15.710938 36.507812 C 18.460938 38.289062 21.71875 39.328125 25.222656 39.328125 C 34.828125 39.328125 42.636719 31.523438 42.636719 21.917969 C 42.636719 12.3125 34.828125 4.503906 25.222656 4.503906 Z M 25.222656 4.503906 " fill-opacity="1" fill-rule="nonzero"/></g><path fill="#ffffff" d="M 25.222656 12.167969 C 24.175781 12.167969 23.328125 13.015625 23.328125 14.0625 L 23.328125 21.914062 C 23.328125 22.960938 24.175781 23.808594 25.222656 23.808594 L 31.480469 23.808594 C 32.527344 23.808594 33.375 22.960938 33.375 21.914062 C 33.375 20.871094 32.527344 20.019531 31.480469 20.019531 L 27.117188 20.019531 L 27.117188 14.0625 C 27.117188 13.015625 26.269531 12.167969 25.222656 12.167969 Z M 25.222656 12.167969 " fill-opacity="1" fill-rule="nonzero"/><g clip-path="url(#53385218c1)"><path fill="#ffffff" d="M 14.972656 24.882812 L 12.28125 25.289062 C 11.976562 25.332031 11.703125 25.097656 11.703125 24.789062 L 11.722656 18.859375 C 11.726562 17.328125 9.675781 16.8125 8.957031 18.164062 L 2.925781 29.46875 C 2.359375 30.535156 3.246094 31.792969 4.441406 31.613281 L 7.132812 31.210938 C 7.4375 31.164062 7.710938 31.402344 7.710938 31.710938 L 7.691406 37.636719 C 7.6875 39.167969 9.734375 39.683594 10.457031 38.332031 L 16.488281 27.027344 C 17.054688 25.960938 16.164062 24.703125 14.972656 24.882812 Z M 14.972656 24.882812 " fill-opacity="1" fill-rule="nonzero"/></g></svg>