<svg xmlns="http://www.w3.org/2000/svg" xmlns:xlink="http://www.w3.org/1999/xlink" width="60" zoomAndPan="magnify" viewBox="0 0 45 44.999999" height="60" preserveAspectRatio="xMidYMid meet" version="1.0"><defs><clipPath id="4d7a22d162"><path d="M 22 1.050781 L 28 1.050781 L 28 7 L 22 7 Z M 22 1.050781 " clip-rule="nonzero"/></clipPath><clipPath id="61179a7a87"><path d="M 3.769531 43 L 40.519531 43 L 40.519531 43.800781 L 3.769531 43.800781 Z M 3.769531 43 " clip-rule="nonzero"/></clipPath></defs><path fill="#ffffff" d="M 23.015625 14.253906 C 22.691406 13.636719 21.929688 13.402344 21.3125 13.726562 L 18.003906 15.46875 L 15.117188 13.433594 C 14.917969 13.292969 14.695312 13.191406 14.457031 13.128906 C 14.027344 13.019531 13.59375 13.054688 13.210938 13.210938 C 13.183594 13.214844 13.160156 13.226562 13.136719 13.238281 L 8.253906 15.710938 C 7.960938 15.847656 7.734375 16.085938 7.617188 16.382812 L 5.660156 21.109375 C 5.660156 21.113281 5.660156 21.113281 5.660156 21.113281 C 5.535156 21.425781 5.539062 21.769531 5.671875 22.078125 C 5.804688 22.386719 6.046875 22.625 6.359375 22.75 C 6.511719 22.8125 6.667969 22.839844 6.828125 22.839844 C 7.34375 22.839844 7.804688 22.53125 7.996094 22.050781 L 9.769531 17.773438 L 11.429688 16.832031 L 10.15625 21.785156 C 10.128906 21.890625 10.113281 21.996094 10.101562 22.101562 L 9.042969 27.449219 L 6.445312 32.894531 C 6.078125 33.644531 6.386719 34.546875 7.132812 34.914062 C 7.34375 35.015625 7.566406 35.070312 7.800781 35.070312 C 8.378906 35.070312 8.898438 34.746094 9.15625 34.226562 C 9.15625 34.226562 9.15625 34.222656 9.15625 34.222656 L 11.828125 28.671875 C 11.886719 28.550781 11.929688 28.421875 11.957031 28.292969 L 12.703125 24.433594 L 15.171875 24.882812 L 15.628906 29.089844 C 15.664062 29.464844 15.839844 29.808594 16.117188 30.0625 C 16.398438 30.316406 16.757812 30.453125 17.128906 30.453125 C 17.179688 30.453125 17.226562 30.449219 17.273438 30.445312 C 18.105469 30.367188 18.714844 29.628906 18.632812 28.800781 C 18.632812 28.796875 18.632812 28.796875 18.632812 28.796875 L 18.070312 23.5 C 18.007812 22.855469 17.542969 22.324219 16.914062 22.175781 L 14.363281 21.574219 L 15.570312 16.867188 L 17.214844 17.980469 C 17.425781 18.121094 17.667969 18.195312 17.921875 18.195312 C 18.125 18.195312 18.328125 18.144531 18.507812 18.050781 L 22.488281 15.953125 C 23.101562 15.628906 23.339844 14.867188 23.015625 14.253906 Z M 9.28125 17.171875 C 9.207031 17.214844 9.148438 17.28125 9.117188 17.359375 L 7.289062 21.761719 C 7.289062 21.761719 7.289062 21.765625 7.289062 21.765625 C 7.210938 21.953125 7.03125 22.078125 6.828125 22.078125 C 6.765625 22.078125 6.703125 22.066406 6.644531 22.042969 C 6.523438 21.992188 6.425781 21.898438 6.375 21.777344 C 6.320312 21.65625 6.320312 21.523438 6.367188 21.398438 L 8.324219 16.675781 C 8.324219 16.671875 8.324219 16.671875 8.324219 16.671875 C 8.371094 16.550781 8.460938 16.457031 8.578125 16.402344 C 8.582031 16.402344 8.585938 16.398438 8.59375 16.398438 L 11.980469 14.679688 L 11.691406 15.804688 Z M 11.203125 28.148438 C 11.191406 28.210938 11.171875 28.277344 11.140625 28.335938 C 11.140625 28.335938 11.140625 28.335938 11.140625 28.339844 L 8.46875 33.890625 C 8.34375 34.144531 8.085938 34.304688 7.800781 34.304688 C 7.683594 34.304688 7.574219 34.28125 7.472656 34.230469 C 7.101562 34.046875 6.949219 33.601562 7.132812 33.230469 C 7.132812 33.230469 7.132812 33.230469 7.132812 33.226562 L 9.753906 27.734375 C 9.765625 27.707031 9.777344 27.675781 9.78125 27.644531 L 10.582031 23.601562 C 10.847656 23.910156 11.199219 24.128906 11.601562 24.234375 C 11.605469 24.234375 11.605469 24.234375 11.605469 24.234375 C 11.613281 24.234375 11.617188 24.238281 11.621094 24.238281 C 11.625 24.238281 11.625 24.238281 11.628906 24.238281 L 11.949219 24.296875 Z M 22.375 14.984375 C 22.332031 15.113281 22.246094 15.214844 22.132812 15.277344 L 18.152344 17.375 C 18.082031 17.410156 18 17.429688 17.921875 17.429688 C 17.820312 17.429688 17.726562 17.402344 17.644531 17.34375 L 14.539062 15.25 C 14.363281 15.132812 14.125 15.175781 14.007812 15.351562 C 13.890625 15.527344 13.9375 15.765625 14.109375 15.882812 L 14.898438 16.414062 L 13.617188 21.398438 L 13.300781 21.324219 C 13.097656 21.277344 12.890625 21.40625 12.84375 21.609375 C 12.792969 21.816406 12.921875 22.019531 13.125 22.070312 L 16.738281 22.917969 C 17.050781 22.992188 17.28125 23.253906 17.308594 23.574219 C 17.308594 23.574219 17.308594 23.574219 17.308594 23.578125 L 17.875 28.875 C 17.910156 29.28125 17.609375 29.648438 17.203125 29.6875 C 17.179688 29.6875 17.152344 29.6875 17.128906 29.6875 C 16.746094 29.6875 16.425781 29.398438 16.390625 29.015625 C 16.390625 29.011719 16.390625 29.011719 16.390625 29.007812 L 15.902344 24.515625 C 15.882812 24.347656 15.757812 24.210938 15.589844 24.179688 L 11.785156 23.492188 C 11.464844 23.40625 11.199219 23.203125 11.03125 22.921875 C 10.859375 22.632812 10.8125 22.300781 10.894531 21.976562 L 12.75 14.765625 C 12.917969 14.101562 13.601562 13.699219 14.265625 13.867188 C 14.414062 13.90625 14.550781 13.96875 14.675781 14.058594 L 17.757812 16.226562 C 17.875 16.308594 18.027344 16.320312 18.152344 16.253906 L 21.667969 14.402344 C 21.910156 14.273438 22.210938 14.367188 22.339844 14.609375 C 22.398438 14.726562 22.414062 14.859375 22.375 14.984375 Z M 22.375 14.984375 " fill-opacity="1" fill-rule="nonzero"/><path fill="#ffffff" d="M 15.679688 13.050781 C 17.125 13.050781 18.300781 11.875 18.300781 10.433594 C 18.300781 8.988281 17.125 7.8125 15.679688 7.8125 C 14.238281 7.8125 13.0625 8.988281 13.0625 10.433594 C 13.0625 11.875 14.238281 13.050781 15.679688 13.050781 Z M 15.679688 8.578125 C 16.703125 8.578125 17.535156 9.410156 17.535156 10.433594 C 17.535156 11.457031 16.703125 12.289062 15.679688 12.289062 C 14.660156 12.289062 13.828125 11.457031 13.828125 10.433594 C 13.828125 9.410156 14.660156 8.578125 15.679688 8.578125 Z M 15.679688 8.578125 " fill-opacity="1" fill-rule="nonzero"/><g clip-path="url(#4d7a22d162)"><path fill="#ffffff" d="M 24.792969 6.328125 C 24.875 6.335938 24.957031 6.339844 25.039062 6.339844 C 25.648438 6.339844 26.234375 6.132812 26.707031 5.738281 C 27.246094 5.292969 27.578125 4.660156 27.644531 3.964844 C 27.777344 2.527344 26.714844 1.25 25.277344 1.113281 C 24.582031 1.050781 23.902344 1.261719 23.363281 1.707031 C 22.824219 2.152344 22.492188 2.78125 22.429688 3.480469 C 22.292969 4.917969 23.355469 6.195312 24.792969 6.328125 Z M 23.1875 3.550781 C 23.234375 3.058594 23.46875 2.609375 23.851562 2.296875 C 24.1875 2.015625 24.601562 1.867188 25.03125 1.867188 C 25.089844 1.867188 25.148438 1.871094 25.207031 1.875 C 26.226562 1.96875 26.976562 2.875 26.882812 3.894531 C 26.835938 4.386719 26.601562 4.832031 26.21875 5.148438 C 25.839844 5.464844 25.355469 5.613281 24.863281 5.570312 C 23.84375 5.472656 23.09375 4.570312 23.1875 3.550781 Z M 23.1875 3.550781 " fill-opacity="1" fill-rule="nonzero"/></g><path fill="#ffffff" d="M 37.0625 8.390625 L 33.273438 5.898438 C 33.046875 5.75 32.785156 5.679688 32.515625 5.691406 L 27.753906 5.902344 C 27.683594 5.898438 27.613281 5.902344 27.542969 5.910156 C 27.523438 5.910156 27.507812 5.914062 27.492188 5.914062 C 27.195312 5.949219 26.902344 6.054688 26.632812 6.230469 C 26.496094 6.320312 26.296875 6.476562 26.140625 6.707031 L 21.332031 13.726562 C 21.210938 13.898438 21.257812 14.136719 21.429688 14.257812 C 21.496094 14.300781 21.570312 14.324219 21.648438 14.324219 C 21.769531 14.324219 21.886719 14.265625 21.960938 14.160156 L 26.773438 7.140625 C 26.773438 7.140625 26.773438 7.136719 26.773438 7.136719 C 26.863281 7.003906 26.988281 6.914062 27.050781 6.867188 C 27.222656 6.757812 27.410156 6.691406 27.601562 6.671875 L 27.765625 6.664062 C 28.160156 6.675781 28.546875 6.871094 28.777344 7.226562 L 29.363281 8.113281 C 29.363281 8.113281 29.367188 8.117188 29.367188 8.121094 L 32.035156 12.183594 C 32.300781 12.582031 32.308594 13.101562 32.0625 13.511719 L 31.085938 14.953125 C 31.070312 14.964844 31.054688 14.980469 31.042969 15 C 31.023438 15.027344 31.007812 15.058594 30.992188 15.085938 L 29.800781 16.847656 C 29.792969 16.855469 29.785156 16.863281 29.78125 16.871094 C 29.765625 16.890625 29.753906 16.910156 29.746094 16.929688 L 29.023438 17.992188 C 28.988281 18.046875 28.964844 18.105469 28.960938 18.167969 L 28.355469 24.257812 C 28.355469 24.261719 28.355469 24.261719 28.355469 24.261719 C 28.320312 24.648438 28.003906 24.9375 27.617188 24.9375 C 27.59375 24.9375 27.570312 24.9375 27.546875 24.933594 C 27.347656 24.917969 27.167969 24.820312 27.039062 24.667969 C 26.914062 24.515625 26.855469 24.324219 26.871094 24.125 L 27.5 17.75 C 27.5 17.746094 27.5 17.746094 27.5 17.746094 C 27.511719 17.621094 27.554688 17.503906 27.625 17.398438 L 30.550781 13.0625 C 30.667969 12.886719 30.621094 12.648438 30.445312 12.53125 C 30.273438 12.414062 30.035156 12.460938 29.917969 12.636719 L 29.628906 13.058594 L 27.304688 9.519531 L 27.707031 8.933594 C 27.828125 8.761719 27.785156 8.523438 27.613281 8.402344 C 27.4375 8.28125 27.199219 8.328125 27.082031 8.5 L 22.800781 14.683594 C 22.800781 14.6875 22.796875 14.691406 22.796875 14.691406 C 22.738281 14.785156 22.652344 14.851562 22.546875 14.886719 C 22.351562 14.960938 22.246094 15.179688 22.316406 15.375 C 22.375 15.53125 22.519531 15.628906 22.675781 15.628906 C 22.71875 15.628906 22.761719 15.621094 22.804688 15.609375 C 23.066406 15.515625 23.28125 15.34375 23.433594 15.113281 L 26.835938 10.199219 L 29.167969 13.746094 L 26.992188 16.972656 C 26.851562 17.179688 26.765625 17.425781 26.742188 17.675781 L 26.113281 24.050781 C 26.113281 24.050781 26.113281 24.050781 26.113281 24.054688 C 26.074219 24.453125 26.195312 24.847656 26.453125 25.15625 C 26.710938 25.46875 27.074219 25.660156 27.472656 25.695312 C 27.519531 25.699219 27.570312 25.703125 27.617188 25.703125 C 27.992188 25.703125 28.351562 25.5625 28.628906 25.3125 C 28.910156 25.058594 29.082031 24.710938 29.117188 24.335938 L 29.710938 18.34375 L 30.179688 17.648438 L 34.417969 20.824219 C 34.6875 21.03125 35.007812 21.132812 35.328125 21.132812 C 35.78125 21.132812 36.234375 20.925781 36.53125 20.535156 C 37.035156 19.871094 36.902344 18.921875 36.238281 18.417969 L 31.875 15.148438 L 32.703125 13.929688 C 32.703125 13.929688 32.703125 13.929688 32.703125 13.925781 C 32.707031 13.921875 32.710938 13.917969 32.710938 13.914062 C 32.90625 13.59375 33.007812 13.226562 33.007812 12.851562 C 33.003906 12.464844 32.890625 12.085938 32.675781 11.761719 L 30.382812 8.273438 L 32.230469 8.226562 L 35.683594 10.496094 C 35.855469 10.609375 36.050781 10.675781 36.253906 10.695312 C 36.296875 10.699219 36.335938 10.703125 36.375 10.703125 C 36.796875 10.703125 37.191406 10.492188 37.425781 10.132812 C 37.804688 9.554688 37.644531 8.769531 37.0625 8.390625 Z M 35.777344 19.027344 C 36.105469 19.277344 36.171875 19.746094 35.921875 20.070312 C 35.675781 20.398438 35.207031 20.464844 34.878906 20.214844 C 34.878906 20.214844 34.875 20.214844 34.875 20.214844 L 30.609375 17.015625 L 31.445312 15.78125 Z M 36.785156 9.714844 C 36.6875 9.867188 36.507812 9.953125 36.328125 9.933594 C 36.246094 9.925781 36.167969 9.902344 36.101562 9.855469 L 32.550781 7.523438 C 32.484375 7.480469 32.410156 7.457031 32.332031 7.460938 L 29.886719 7.519531 L 29.417969 6.804688 C 29.371094 6.734375 29.316406 6.664062 29.261719 6.597656 L 32.550781 6.457031 C 32.550781 6.457031 32.554688 6.457031 32.554688 6.457031 C 32.660156 6.449219 32.765625 6.476562 32.851562 6.535156 L 36.644531 9.027344 C 36.871094 9.179688 36.9375 9.484375 36.785156 9.714844 Z M 36.785156 9.714844 " fill-opacity="1" fill-rule="nonzero"/><path fill="#ffffff" d="M 12.457031 42.324219 C 12.246094 42.324219 12.074219 42.152344 12.074219 41.941406 L 12.074219 36.039062 L 6.859375 36.039062 L 6.859375 41.941406 C 6.859375 42.152344 6.6875 42.324219 6.476562 42.324219 C 6.265625 42.324219 6.097656 42.152344 6.097656 41.941406 L 6.097656 35.65625 C 6.097656 35.445312 6.265625 35.273438 6.476562 35.273438 L 12.457031 35.273438 C 12.667969 35.273438 12.839844 35.445312 12.839844 35.65625 L 12.839844 41.941406 C 12.839844 42.152344 12.667969 42.324219 12.457031 42.324219 Z M 12.457031 42.324219 " fill-opacity="1" fill-rule="nonzero"/><path fill="#ffffff" d="M 20.964844 42.324219 C 20.753906 42.324219 20.582031 42.152344 20.582031 41.941406 L 20.582031 31.375 L 15.300781 31.375 L 15.300781 41.941406 C 15.300781 42.152344 15.132812 42.324219 14.921875 42.324219 C 14.710938 42.324219 14.539062 42.152344 14.539062 41.941406 L 14.539062 30.992188 C 14.539062 30.78125 14.710938 30.609375 14.921875 30.609375 L 20.964844 30.609375 C 21.175781 30.609375 21.347656 30.78125 21.347656 30.992188 L 21.347656 41.941406 C 21.347656 42.152344 21.175781 42.324219 20.964844 42.324219 Z M 20.964844 42.324219 " fill-opacity="1" fill-rule="nonzero"/><path fill="#ffffff" d="M 29.375 42.324219 C 29.164062 42.324219 28.992188 42.152344 28.992188 41.941406 L 28.992188 26.710938 L 23.746094 26.710938 L 23.746094 41.941406 C 23.746094 42.152344 23.574219 42.324219 23.363281 42.324219 C 23.152344 42.324219 22.980469 42.152344 22.980469 41.941406 L 22.980469 26.332031 C 22.980469 26.121094 23.152344 25.949219 23.363281 25.949219 L 29.375 25.949219 C 29.585938 25.949219 29.757812 26.121094 29.757812 26.332031 L 29.757812 41.941406 C 29.757812 42.152344 29.585938 42.324219 29.375 42.324219 Z M 29.375 42.324219 " fill-opacity="1" fill-rule="nonzero"/><path fill="#ffffff" d="M 37.785156 42.324219 C 37.574219 42.324219 37.402344 42.152344 37.402344 41.941406 L 37.402344 22.078125 L 32.1875 22.078125 L 32.1875 41.941406 C 32.1875 42.152344 32.015625 42.324219 31.804688 42.324219 C 31.59375 42.324219 31.421875 42.152344 31.421875 41.941406 L 31.421875 21.699219 C 31.421875 21.484375 31.59375 21.316406 31.804688 21.316406 L 37.785156 21.316406 C 37.996094 21.316406 38.167969 21.484375 38.167969 21.699219 L 38.167969 41.941406 C 38.167969 42.152344 37.996094 42.324219 37.785156 42.324219 Z M 37.785156 42.324219 " fill-opacity="1" fill-rule="nonzero"/><g clip-path="url(#61179a7a87)"><path fill="#ffffff" d="M 40.113281 43.941406 L 4.152344 43.941406 C 3.941406 43.941406 3.769531 43.769531 3.769531 43.558594 C 3.769531 43.347656 3.941406 43.175781 4.152344 43.175781 L 40.113281 43.175781 C 40.324219 43.175781 40.492188 43.347656 40.492188 43.558594 C 40.492188 43.769531 40.324219 43.941406 40.113281 43.941406 Z M 40.113281 43.941406 " fill-opacity="1" fill-rule="nonzero"/></g></svg>