<svg xmlns="http://www.w3.org/2000/svg" xmlns:xlink="http://www.w3.org/1999/xlink" width="60" zoomAndPan="magnify" viewBox="0 0 45 44.999999" height="60" preserveAspectRatio="xMidYMid meet" version="1.0"><defs><clipPath id="170d65a3cc"><path d="M 6.753906 2.90625 L 35 2.90625 L 35 39 L 6.753906 39 Z M 6.753906 2.90625 " clip-rule="nonzero"/></clipPath><clipPath id="27bdc5b305"><path d="M 25 21 L 42.753906 21 L 42.753906 41.90625 L 25 41.90625 Z M 25 21 " clip-rule="nonzero"/></clipPath></defs><g clip-path="url(#170d65a3cc)"><path fill="#ffffff" d="M 23.394531 37.058594 L 9.105469 37.058594 C 8.679688 37.058594 8.332031 36.710938 8.332031 36.285156 L 8.332031 5.296875 C 8.332031 4.871094 8.679688 4.523438 9.105469 4.523438 L 32.488281 4.523438 C 32.917969 4.523438 33.261719 4.871094 33.261719 5.296875 L 33.261719 17.875 C 33.261719 18.3125 33.617188 18.664062 34.050781 18.664062 C 34.488281 18.664062 34.84375 18.3125 34.84375 17.875 L 34.84375 5.296875 C 34.84375 4 33.789062 2.941406 32.488281 2.941406 L 9.105469 2.941406 C 7.808594 2.941406 6.75 4 6.75 5.296875 L 6.75 36.285156 C 6.75 37.582031 7.808594 38.636719 9.105469 38.636719 L 23.394531 38.636719 C 23.832031 38.636719 24.1875 38.28125 24.1875 37.847656 C 24.1875 37.410156 23.832031 37.058594 23.394531 37.058594 " fill-opacity="1" fill-rule="nonzero"/></g><path fill="#ffffff" d="M 19.945312 11.488281 L 25.53125 11.488281 C 25.964844 11.488281 26.320312 11.132812 26.320312 10.695312 C 26.320312 10.261719 25.964844 9.90625 25.53125 9.90625 L 19.945312 9.90625 C 19.511719 9.90625 19.15625 10.261719 19.15625 10.695312 C 19.15625 11.132812 19.511719 11.488281 19.945312 11.488281 " fill-opacity="1" fill-rule="nonzero"/><path fill="#ffffff" d="M 30.253906 14.214844 C 30.253906 13.777344 29.902344 13.425781 29.464844 13.425781 L 19.726562 13.425781 C 19.289062 13.425781 18.933594 13.777344 18.933594 14.214844 C 18.933594 14.652344 19.289062 15.003906 19.726562 15.003906 L 29.464844 15.003906 C 29.902344 15.003906 30.253906 14.652344 30.253906 14.214844 " fill-opacity="1" fill-rule="nonzero"/><path fill="#ffffff" d="M 19.726562 18.78125 C 19.289062 18.78125 18.933594 19.136719 18.933594 19.570312 C 18.933594 20.007812 19.289062 20.359375 19.726562 20.359375 L 25.308594 20.359375 C 25.746094 20.359375 26.097656 20.007812 26.097656 19.570312 C 26.097656 19.136719 25.746094 18.78125 25.308594 18.78125 L 19.726562 18.78125 " fill-opacity="1" fill-rule="nonzero"/><path fill="#ffffff" d="M 24.324219 22.425781 L 19.722656 22.425781 C 19.289062 22.425781 18.933594 22.777344 18.933594 23.214844 C 18.933594 23.648438 19.289062 24.003906 19.722656 24.003906 L 24.324219 24.003906 C 24.757812 24.003906 25.113281 23.648438 25.113281 23.214844 C 25.113281 22.777344 24.757812 22.425781 24.324219 22.425781 " fill-opacity="1" fill-rule="nonzero"/><path fill="#ffffff" d="M 23.300781 27.78125 L 19.722656 27.78125 C 19.289062 27.78125 18.933594 28.132812 18.933594 28.570312 C 18.933594 29.007812 19.289062 29.363281 19.722656 29.363281 L 23.300781 29.363281 C 23.738281 29.363281 24.089844 29.007812 24.089844 28.570312 C 24.089844 28.132812 23.738281 27.78125 23.300781 27.78125 " fill-opacity="1" fill-rule="nonzero"/><path fill="#ffffff" d="M 19.722656 31.421875 C 19.289062 31.421875 18.933594 31.773438 18.933594 32.210938 C 18.933594 32.648438 19.289062 33 19.722656 33 L 23.304688 33 C 23.738281 33 24.09375 32.648438 24.09375 32.210938 C 24.09375 31.773438 23.738281 31.421875 23.304688 31.421875 L 19.722656 31.421875 " fill-opacity="1" fill-rule="nonzero"/><path fill="#ffffff" d="M 15.414062 28.515625 L 12.96875 30.90625 L 11.863281 29.800781 C 11.554688 29.492188 11.054688 29.492188 10.746094 29.800781 C 10.4375 30.109375 10.4375 30.609375 10.746094 30.917969 L 11.847656 32.023438 C 12.15625 32.332031 12.5625 32.5 12.996094 32.5 C 13.429688 32.5 13.835938 32.332031 14.144531 32.023438 L 16.535156 29.632812 C 16.839844 29.324219 16.839844 28.824219 16.535156 28.515625 C 16.226562 28.207031 15.722656 28.207031 15.414062 28.515625 " fill-opacity="1" fill-rule="nonzero"/><path fill="#ffffff" d="M 16.535156 19.515625 C 16.226562 19.207031 15.722656 19.207031 15.414062 19.515625 L 12.96875 21.910156 L 11.863281 20.800781 C 11.554688 20.492188 11.054688 20.492188 10.746094 20.800781 C 10.4375 21.109375 10.4375 21.609375 10.746094 21.917969 L 11.847656 23.027344 C 12.15625 23.332031 12.5625 23.5 12.996094 23.5 C 13.429688 23.5 13.835938 23.332031 14.144531 23.027344 L 16.535156 20.632812 C 16.839844 20.324219 16.839844 19.824219 16.535156 19.515625 " fill-opacity="1" fill-rule="nonzero"/><path fill="#ffffff" d="M 16.710938 10.578125 C 16.402344 10.269531 15.902344 10.269531 15.59375 10.578125 L 13.144531 12.972656 L 12.042969 11.867188 C 11.734375 11.554688 11.234375 11.554688 10.921875 11.863281 C 10.613281 12.171875 10.613281 12.671875 10.921875 12.980469 L 12.027344 14.089844 C 12.332031 14.394531 12.738281 14.5625 13.171875 14.5625 C 13.605469 14.5625 14.015625 14.394531 14.320312 14.089844 L 16.710938 11.695312 C 17.019531 11.386719 17.019531 10.886719 16.710938 10.578125 " fill-opacity="1" fill-rule="nonzero"/><g clip-path="url(#27bdc5b305)"><path fill="#ffffff" d="M 41.515625 32.59375 C 41.515625 33.855469 41.179688 35.113281 40.539062 36.230469 C 39.902344 37.339844 38.988281 38.265625 37.902344 38.902344 C 37.429688 39.183594 36.328125 39.695312 34.800781 40.351562 C 34.410156 40.519531 33.960938 40.515625 33.570312 40.339844 C 31.949219 39.609375 30.707031 39.03125 30.488281 38.902344 C 29.390625 38.257812 28.476562 37.332031 27.84375 36.226562 C 27.210938 35.121094 26.875 33.863281 26.875 32.59375 L 26.875 27.101562 C 26.875 26.378906 27.101562 25.6875 27.53125 25.101562 C 27.960938 24.515625 28.550781 24.089844 29.242188 23.871094 L 31.988281 23.007812 C 32.703125 22.777344 33.445312 22.664062 34.195312 22.664062 C 34.945312 22.664062 35.6875 22.777344 36.40625 23.007812 L 39.152344 23.871094 C 39.839844 24.089844 40.433594 24.515625 40.859375 25.101562 C 41.289062 25.6875 41.515625 26.378906 41.515625 27.101562 Z M 42.136719 24.167969 C 41.507812 23.308594 40.640625 22.6875 39.628906 22.367188 L 36.882812 21.5 C 35.144531 20.949219 33.25 20.949219 31.511719 21.5 L 28.765625 22.367188 C 27.753906 22.6875 26.886719 23.308594 26.257812 24.167969 C 25.628906 25.027344 25.296875 26.042969 25.296875 27.101562 L 25.296875 32.59375 C 25.296875 34.140625 25.703125 35.667969 26.472656 37.011719 C 27.242188 38.359375 28.355469 39.480469 29.6875 40.265625 C 30.074219 40.492188 31.878906 41.3125 32.921875 41.78125 C 33.328125 41.964844 33.761719 42.054688 34.199219 42.054688 C 34.617188 42.054688 35.035156 41.972656 35.425781 41.804688 C 36.546875 41.320312 38.027344 40.664062 38.707031 40.265625 C 40.027344 39.488281 41.136719 38.363281 41.910156 37.015625 C 42.6875 35.660156 43.097656 34.128906 43.097656 32.59375 L 43.097656 27.101562 C 43.097656 26.042969 42.765625 25.027344 42.136719 24.167969 " fill-opacity="1" fill-rule="nonzero"/></g><path fill="#ffffff" d="M 37.699219 28.484375 L 32.976562 33.210938 C 32.929688 33.261719 32.886719 33.285156 32.855469 33.292969 C 32.730469 33.328125 32.617188 33.300781 32.53125 33.214844 L 30.691406 31.378906 C 30.382812 31.066406 29.882812 31.066406 29.574219 31.378906 C 29.265625 31.6875 29.265625 32.1875 29.574219 32.496094 L 31.414062 34.332031 C 31.773438 34.695312 32.25 34.890625 32.746094 34.890625 C 32.921875 34.890625 33.101562 34.867188 33.28125 34.816406 C 33.574219 34.734375 33.851562 34.570312 34.089844 34.332031 L 38.816406 29.601562 C 39.125 29.289062 39.125 28.789062 38.816406 28.484375 C 38.507812 28.171875 38.007812 28.175781 37.699219 28.484375 " fill-opacity="1" fill-rule="nonzero"/></svg>