<?xml version="1.0" encoding="utf-8"?>
<!-- Generator: Adobe Illustrator 27.5.0, SVG Export Plug-In . SVG Version: 6.00 Build 0)  -->
<svg version="1.1" id="Layer_1" xmlns="http://www.w3.org/2000/svg" xmlns:xlink="http://www.w3.org/1999/xlink" x="0px" y="0px"
	 viewBox="0 0 3000 2000" style="enable-background:new 0 0 3000 2000;" xml:space="preserve">
<rect style="fill:#FFFFFF;" width="3000" height="2000"/>
<g>
	<path style="fill:#EBF2F9;" d="M2373.732,878.759c-97.861-83.476-215.838-586.897-619.989-324.7
		c-208.806,135.465-560.899-116.296-852.328-29.337c-267.642,79.86-293.441,342.976-267.544,428.712
		c52.31,173.186-110.477,198.959-261.49,273.369c-236.879,116.72-61.329,531.271,162.453,533.231
		c223.781,1.961,1577.745,0,1577.745,0s325.477-7.437,460.665-186.86C2718.721,1380.094,2626.502,1094.375,2373.732,878.759z"/>
	<g>
		<path style="fill:#163560;" d="M1043.09,1713.577c0,0,2.834,45.715,11.679,46.37c1.177,0.087,44.858,0.087,44.858,0.087
			l55.762-0.323c0,0-0.365-13.436-16.664-16.276c-16.3-2.84-43.582-14.295-53.455-35.838
			C1074.882,1684.933,1043.09,1713.577,1043.09,1713.577z"/>
		<g>
			<path style="fill:#E49963;" d="M1022.993,1180.086c0,0,24.292,6.239,39.734,1.587c15.443-4.652,42.021,2.988,46.301,8.619
				s2.708,7.868-4.93,9.812s-34.696,13.484-52.479,6.805s-40.978-6.923-40.978-6.923L1022.993,1180.086z"/>
			<path style="fill:#4A75CB;" d="M813.045,969.063c0,0,27.29,193.955,72.477,211.328c22.297,8.571,120.836,28.002,149.984,29.954
				c0,0,7.141-5.793,5.401-29.371c0,0-103.24-37.902-117.906-58.515c-21.828-30.677,13.551-125.324-13.839-154.136
				C881.771,939.513,835.641,927.13,813.045,969.063z"/>
		</g>
		<path style="fill:#A6C7F9;" d="M816.531,1716.388v-42.287h-66.577c-1.798,0-3.267-1.47-3.267-3.267v-6.775
			c0-1.796,1.469-3.267,3.267-3.267h66.577v-240.725c0-6.755,5.526-12.281,12.281-12.281h13.175c6.755,0,12.281,5.526,12.281,12.281
			v240.725h66.577c1.797,0,3.268,1.471,3.268,3.267v6.775c0,1.797-1.471,3.267-3.268,3.267h-66.577v42.287
			c48.171,3.642,86.765,20.983,97.592,43.391H718.939C729.766,1737.371,768.36,1720.029,816.531,1716.388z"/>
		<path style="fill:#E58638;" d="M822.242,1377.689c7.96,13.504,17.167,26.157,26.657,38.141
			c29.33,37.026,61.257,67.556,66.819,96.414c1.105,5.751,2.861,11.945,5.156,18.471c2.322,6.61,5.193,13.561,8.508,20.746
			c12.446,27.036,31.059,57.329,49.643,84.865c32.125,47.603,62.333,87.323,62.333,87.323l55.399-2.361
			c-2.219-5.552-26.381-71.279-58.704-151.602c-13.126-32.607-27.083-67.291-40.549-100.738c-1.794-4.467-3.588-8.915-5.363-13.324
			c-4.117-10.237-8.169-20.313-12.125-30.124c-30.351-75.422-54.524-135.479-54.524-135.479s-121.305-45.952-133.902-16.176
			C781.202,1298.396,789.663,1322.448,822.242,1377.689z"/>
		<path style="fill:#163560;" d="M914.809,1582.979c0,0-38.533,24.761-34.794,32.802c0.497,1.07,21.792,39.21,21.792,39.21
			l27.466,48.529c0,0,11.554-6.868,6.088-22.485c-5.466-15.615-8.765-45.021,5.232-64.144
			C955.316,1596.772,914.809,1582.979,914.809,1582.979z"/>
		<path style="fill:#EE9849;" d="M966.945,1268.21c0,0,152.261,94.844,169.258,158.581
			c16.996,63.737-202.544,199.711-202.544,199.711s-24.079-21.246-28.328-36.826c0,0,99.235-118.891,120.762-145.541
			c13.22-16.368-195.474-56.661-220.968-96.319c-25.495-39.659-16.368-73.027-16.368-73.027L966.945,1268.21z"/>
		<path style="fill:#1C468A;" d="M679.589,1389.999h311.622c6.232,0,11.331,5.099,11.331,11.331v62.324
			c0,6.232-5.099,11.332-11.331,11.332H679.589c-6.232,0-11.332-5.1-11.332-11.332v-62.324
			C668.257,1395.098,673.356,1389.999,679.589,1389.999z"/>
		<path style="fill:#E49963;" d="M896.537,935.816c14.955,9.263,23.195,21.021,23.195,21.021
			c-36.477,9.436-96.947-24.366-96.947-24.366s23.479-15.776,32.178-50.441c0.44-1.749,0.842-3.542,1.195-5.377
			c1.14-5.838,1.848-12.159,1.975-18.981l16.757,15.011l27.863,24.962c0,0-0.632,10.358-4.118,28.175
			C898.029,928.929,897.334,932.265,896.537,935.816z"/>
		<path style="fill:#739AF0;" d="M784.331,1107.901c5.225,70.274-3.563,177.111,2.364,195.621c5.116,15.97,65.315,6.518,88.58,1.185
			c8.611-1.973,19.042-4.792,29.814-8.124c30.047-9.305,62.788-22.59,66.301-32.453c0.136-0.387,0.252-0.766,0.324-1.135
			c0.324-1.432,0.252-2.773-0.063-4.134c-1.172-5.026-5.684-10.467-6.215-22.914c-0.595-13.898-0.505-30.265-1.027-47.864
			c-0.027-1.981-0.054-4.143-0.27-6.115l-0.01-0.721c-0.009-0.379-0.018-0.748-0.026-1.126c-0.505-19.627-1.531-40.262-2.721-60.727
			c-0.757-12.853-1.63-25.58-2.639-37.775c-2.621-31.479-6.152-59.474-10.826-77.173c-7.639-28.85-24.481-47.666-39.813-61.456
			l-11.088-9.511c-12.375,2.701-27.003,0.909-40.234-5.359c-14.321-6.801-19.266-11.674-21.761-9.836
			C801.949,943.801,778.161,1021.992,784.331,1107.901z"/>
		<path style="fill:#4A75CB;" d="M904.918,1296.724c30.047-9.305,62.788-22.59,66.301-32.453c0.136-0.387,0.252-0.766,0.324-1.135
			c-0.018-1.378-0.035-2.756-0.063-4.134c-1.171-5.026-5.684-10.467-6.215-22.914c-0.595-13.898-0.505-30.265-1.027-47.864
			c-0.027-1.981-0.054-4.143-0.271-6.115l-0.009-0.721c-0.009-0.379-0.018-0.748-0.026-1.126l-113.499-51.476
			C850.434,1128.786,843.894,1220.263,904.918,1296.724z"/>
		<path style="fill:#D68D5D;" d="M902.753,897.644c0,0-0.632,10.358-4.118,28.175c-27.207-8.791-39.551-33.366-43.672-43.79
			c-1.172-2.945-1.681-4.765-1.681-4.765s1.056-0.228,2.876-0.612c3.824-0.814,11.026-2.341,18.731-3.97L902.753,897.644z"/>
		<path style="fill:#E49963;" d="M913.768,897.371c0,0-59.775,6.742-63.401-30.547c-3.625-37.29-13.782-61.534,24.23-67.416
			c38.012-5.881,46.822,7.626,51.06,19.778C929.893,831.339,929.224,894.656,913.768,897.371z"/>
		<path style="fill:#2B478B;" d="M850.624,869.397c0,0,3.79-49.499,58.202-54.625c37.27-3.512,16.491-35.589,12.518-40.705
			c0,0-28.555,3.915-57.823,8.751C802.088,792.968,844.591,861.691,850.624,869.397z"/>
		<g>
			
				<rect x="1162.092" y="1089.006" transform="matrix(-0.9511 -0.309 0.309 -0.9511 1913.8722 2625.2161)" style="fill:#4A75CB;" width="5.502" height="144.061"/>
			
				<rect x="994.14" y="1219.735" transform="matrix(-0.9998 -0.0214 0.0214 -0.9998 2113.0647 2471.0803)" style="fill:#4A75CB;" width="151.174" height="9.044"/>
		</g>
		<g>
			<path style="fill:#E49963;" d="M1010.491,1209.904c0,0,23.457,8.88,39.318,5.958c15.861-2.921,41.435,7.603,45.067,13.672
				c3.633,6.067,1.825,8.118-5.98,9.207c-7.806,1.09-35.972,9.578-52.91,0.979c-16.939-8.6-39.965-11.398-39.965-11.398
				L1010.491,1209.904z"/>
			<path style="fill:#739AF0;" d="M825.088,977.023c0,0,5.74,195.781,48.737,218.029c21.215,10.979,117.012,41.154,145.767,46.308
				c0,0,7.736-4.97,8.606-28.597c0,0-98.432-49.053-110.736-71.157c-18.313-32.896,27.285-123.065,3.238-154.722
				C896.654,955.229,852.169,937.835,825.088,977.023z"/>
		</g>
	</g>
	<path style="fill:#D2E4FF;" d="M1372.97,1444.625h779.973c54.432,0,98.558-44.125,98.558-98.557V279.625
		c0-54.432-44.126-98.557-98.558-98.557H1372.97c-54.432,0-98.558,44.126-98.558,98.557v1066.443
		C1274.412,1400.5,1318.538,1444.625,1372.97,1444.625z"/>
	
		<rect x="1370.421" y="313.493" transform="matrix(-1 -1.224647e-16 1.224647e-16 -1 3527.5127 1630.2163)" style="fill:#F3F9FF;" width="786.671" height="1003.231"/>
	<g>
		<path style="fill:#EE9849;" d="M2045.535,1272.688L2045.535,1272.688c-22.923,0-41.506-18.584-41.506-41.507V657.319
			c0-22.923,18.583-41.506,41.506-41.506l0,0c22.924,0,41.506,18.583,41.506,41.506v573.861
			C2087.041,1254.104,2068.459,1272.688,2045.535,1272.688z"/>
		<path style="fill:#EE9849;" d="M1909.537,1272.688L1909.537,1272.688c-22.923,0-41.506-18.584-41.506-41.507V474.222
			c0-22.923,18.583-41.506,41.506-41.506l0,0c22.924,0,41.507,18.583,41.507,41.506v756.959
			C1951.044,1254.104,1932.461,1272.688,1909.537,1272.688z"/>
		<path style="fill:#EE9849;" d="M1761.144,1272.688L1761.144,1272.688c-22.924,0-41.507-18.584-41.507-41.507V816.171
			c0-22.923,18.583-41.506,41.507-41.506l0,0c22.923,0,41.506,18.583,41.506,41.506v415.009
			C1802.649,1254.104,1784.066,1272.688,1761.144,1272.688z"/>
		<path style="fill:#EE9849;" d="M1616.746,1272.688L1616.746,1272.688c-22.924,0-41.507-18.584-41.507-41.507V586.364
			c0-22.923,18.583-41.506,41.507-41.506l0,0c22.923,0,41.506,18.583,41.506,41.506v644.817
			C1658.252,1254.104,1639.669,1272.688,1616.746,1272.688z"/>
		<path style="fill:#EE9849;" d="M1513.104,913.648v317.533c0,22.923-18.583,41.507-41.506,41.507l0,0
			c-22.923,0-41.506-18.584-41.506-41.507V913.648c0-22.923,18.583-41.506,41.506-41.506l0,0
			C1494.521,872.142,1513.104,890.725,1513.104,913.648z"/>
	</g>
	<g>
		<path style="fill:#A6C7F9;" d="M1579.178,493.452h70.301c4,0,7.272,3.273,7.272,7.273s-3.272,7.272-7.272,7.272h-70.301
			c-4,0-7.273-3.272-7.273-7.272S1575.178,493.452,1579.178,493.452z"/>
		<path style="fill:#A6C7F9;" d="M1633.467,519.916h16.012c4,0,7.272,3.272,7.272,7.272s-3.272,7.272-7.272,7.272h-16.012
			c-4,0-7.272-3.272-7.272-7.272S1629.467,519.916,1633.467,519.916z"/>
		<path style="fill:#A6C7F9;" d="M1868.866,381.829h70.301c4,0,7.272,3.272,7.272,7.272s-3.272,7.272-7.272,7.272h-70.301
			c-4,0-7.272-3.272-7.272-7.272S1864.866,381.829,1868.866,381.829z"/>
		<path style="fill:#A6C7F9;" d="M1923.156,408.293h16.011c4,0,7.272,3.272,7.272,7.272l0,0c0,4-3.272,7.272-7.272,7.272h-16.011
			c-4,0-7.273-3.272-7.273-7.272l0,0C1915.883,411.565,1919.156,408.293,1923.156,408.293z"/>
		<path style="fill:#A6C7F9;" d="M2009.469,564.804h70.301c4,0,7.271,3.273,7.271,7.273s-3.271,7.272-7.271,7.272h-70.301
			c-4,0-7.272-3.272-7.272-7.272S2005.469,564.804,2009.469,564.804z"/>
		<path style="fill:#A6C7F9;" d="M2063.758,591.268h16.012c4,0,7.271,3.272,7.271,7.272l0,0c0,4-3.271,7.272-7.271,7.272h-16.012
			c-4,0-7.272-3.272-7.272-7.272l0,0C2056.485,594.541,2059.758,591.268,2063.758,591.268z"/>
		<path style="fill:#A6C7F9;" d="M1725.992,723.73h70.301c4,0,7.273,3.272,7.273,7.272s-3.273,7.273-7.273,7.273h-70.301
			c-4,0-7.272-3.273-7.272-7.273S1721.992,723.73,1725.992,723.73z"/>
		<path style="fill:#A6C7F9;" d="M1780.282,750.194h16.011c4,0,7.273,3.273,7.273,7.273l0,0c0,4-3.273,7.272-7.273,7.272h-16.011
			c-4,0-7.272-3.272-7.272-7.272l0,0C1773.01,753.466,1776.282,750.194,1780.282,750.194z"/>
		<path style="fill:#A6C7F9;" d="M1436.446,820.911h70.302c3.999,0,7.272,3.273,7.272,7.273c0,4-3.273,7.272-7.272,7.272h-70.302
			c-4,0-7.272-3.273-7.272-7.272C1429.174,824.184,1432.446,820.911,1436.446,820.911z"/>
		<path style="fill:#A6C7F9;" d="M1490.736,847.375h16.012c3.999,0,7.272,3.273,7.272,7.273c0,4-3.273,7.273-7.272,7.273h-16.012
			c-4,0-7.272-3.273-7.272-7.273C1483.464,850.648,1486.736,847.375,1490.736,847.375z"/>
	</g>
	<g>
		<path style="fill:#2B478B;" d="M1471.598,800.222c-14.245,0-25.833-11.589-25.833-25.833c0-14.245,11.589-25.833,25.833-25.833
			c14.244,0,25.833,11.589,25.833,25.833C1497.431,788.633,1485.841,800.222,1471.598,800.222z M1471.598,758.556
			c-8.731,0-15.833,7.103-15.833,15.833c0,8.73,7.103,15.833,15.833,15.833c8.73,0,15.833-7.103,15.833-15.833
			C1487.431,765.659,1480.328,758.556,1471.598,758.556z"/>
		<path style="fill:#2B478B;" d="M1460.598,758.556c-1.279,0-2.56-0.488-3.536-1.464l-77.634-77.633H748.727c-2.762,0-5-2.239-5-5
			c0-2.761,2.238-5,5-5h634.844l80.561,80.562c1.953,1.953,1.953,5.119,0,7.071C1463.157,758.067,1461.876,758.556,1460.598,758.556
			z"/>
	</g>
	<g>
		<path style="fill:#2B478B;" d="M1620.157,1344.947c-14.245,0-25.834-11.588-25.834-25.833c0-14.244,11.589-25.833,25.834-25.833
			c14.244,0,25.833,11.589,25.833,25.833C1645.99,1333.359,1634.401,1344.947,1620.157,1344.947z M1620.157,1303.281
			c-8.73,0-15.834,7.103-15.834,15.833s7.104,15.833,15.834,15.833s15.833-7.103,15.833-15.833S1628.888,1303.281,1620.157,1303.281
			z"/>
		<path style="fill:#2B478B;" d="M2333.027,1424.045h-624.845l-80.561-80.562c-1.953-1.953-1.953-5.118,0-7.071
			c1.951-1.952,5.119-1.952,7.07,0l77.632,77.633h620.703c2.762,0,5,2.238,5,5S2335.789,1424.045,2333.027,1424.045z"/>
	</g>
	<g>
		<path style="fill:#2B478B;" d="M1905.916,361.832c-14.245,0-25.834-11.589-25.834-25.833c0-14.245,11.589-25.833,25.834-25.833
			c14.244,0,25.833,11.589,25.833,25.833C1931.749,350.243,1920.16,361.832,1905.916,361.832z M1905.916,320.165
			c-8.73,0-15.834,7.103-15.834,15.833c0,8.73,7.104,15.833,15.834,15.833s15.833-7.103,15.833-15.833
			C1921.749,327.268,1914.646,320.165,1905.916,320.165z"/>
		<path style="fill:#2B478B;" d="M1894.916,320.165c-1.279,0-2.561-0.488-3.535-1.464l-77.634-77.633h-630.702c-2.762,0-5-2.239-5-5
			c0-2.761,2.238-5,5-5h634.843l80.563,80.561c1.953,1.953,1.953,5.119,0,7.071C1897.475,319.677,1896.195,320.165,1894.916,320.165
			z"/>
	</g>
	<path style="fill:#739AF0;" d="M1170.236,657.889H755.894c-6.995,0-12.667-5.671-12.667-12.667l0,0
		c0-6.996,5.671-12.667,12.667-12.667h414.343c6.995,0,12.666,5.671,12.666,12.667l0,0
		C1182.902,652.218,1177.231,657.889,1170.236,657.889z"/>
	<path style="fill:#739AF0;" d="M1170.236,617.889H915.894c-6.995,0-12.667-5.671-12.667-12.667l0,0
		c0-6.996,5.671-12.667,12.667-12.667h254.343c6.995,0,12.666,5.671,12.666,12.667l0,0
		C1182.902,612.218,1177.231,617.889,1170.236,617.889z"/>
	<path style="fill:#739AF0;" d="M1170.236,577.889H915.894c-6.995,0-12.667-5.671-12.667-12.667l0,0
		c0-6.996,5.671-12.667,12.667-12.667h254.343c6.995,0,12.666,5.671,12.666,12.667l0,0
		C1182.902,572.218,1177.231,577.889,1170.236,577.889z"/>
	<path style="fill:#739AF0;" d="M1601.661,216.911h-414.342c-6.996,0-12.667-5.671-12.667-12.667l0,0
		c0-6.996,5.671-12.667,12.667-12.667h414.342c6.995,0,12.666,5.671,12.666,12.667l0,0
		C1614.327,211.24,1608.656,216.911,1601.661,216.911z"/>
	<g>
		<g>
			
				<ellipse transform="matrix(0.7071 -0.7071 0.7071 0.7071 -536.5074 1803.1686)" style="fill:#82B378;" cx="1908.363" cy="1549.206" rx="90.167" ry="90.167"/>
			<path style="fill:#FFFFFF;" d="M1908.361,1472.984c42.101,0,76.222,34.129,76.222,76.222c0,20.834-8.351,39.706-21.899,53.464
				l-54.322-53.464l-71.223,27.185c-3.222-8.443-4.99-17.605-4.99-27.185C1832.148,1507.113,1866.269,1472.984,1908.361,1472.984z"
				/>
			<g>
				<path style="fill:#82B378;" d="M1919.501,1510.512h32.444c1.274,0,2.317,1.043,2.317,2.318l0,0c0,1.274-1.043,2.316-2.317,2.316
					h-32.444c-1.274,0-2.317-1.042-2.317-2.316l0,0C1917.184,1511.555,1918.227,1510.512,1919.501,1510.512z"/>
				<path style="fill:#82B378;" d="M1919.501,1517.851h32.444c1.274,0,2.317,1.043,2.317,2.317c0,1.275-1.043,2.318-2.317,2.318
					h-32.444c-1.274,0-2.317-1.043-2.317-2.318C1917.184,1518.894,1918.227,1517.851,1919.501,1517.851z"/>
				<path style="fill:#82B378;" d="M1938.547,1525.189h13.398c1.274,0,2.317,1.043,2.317,2.317s-1.043,2.317-2.317,2.317h-13.398
					c-1.274,0-2.316-1.043-2.316-2.317S1937.272,1525.189,1938.547,1525.189z"/>
			</g>
		</g>
		<polygon style="fill:#82B378;" points="1829.402,1506.889 1865.069,1471.223 1829.402,1471.223 		"/>
	</g>
	<g>
		<g>
			
				<ellipse transform="matrix(0.0498 -0.9988 0.9988 0.0498 555.3464 3682.147)" style="fill:#82B378;" cx="2212.86" cy="1549.206" rx="90.167" ry="90.167"/>
			<path style="fill:#FFFFFF;" d="M2136.643,1549.206c0-42.093,34.121-76.222,76.214-76.222c42.101,0,76.222,34.129,76.222,76.222
				c0,42.094-34.121,76.222-76.222,76.222c-17.39,0-33.41-5.817-46.226-15.62l46.226-60.602l-71.224,27.185
				C2138.411,1567.947,2136.643,1558.785,2136.643,1549.206z"/>
			<g>
				<path style="fill:#82B378;" d="M2224.621,1510.512h32.444c1.274,0,2.317,1.043,2.317,2.318l0,0c0,1.274-1.043,2.316-2.317,2.316
					h-32.444c-1.274,0-2.317-1.042-2.317-2.316l0,0C2222.304,1511.555,2223.347,1510.512,2224.621,1510.512z"/>
				<path style="fill:#82B378;" d="M2224.621,1517.851h32.444c1.274,0,2.317,1.043,2.317,2.317c0,1.275-1.043,2.318-2.317,2.318
					h-32.444c-1.274,0-2.317-1.043-2.317-2.318C2222.304,1518.894,2223.347,1517.851,2224.621,1517.851z"/>
				<path style="fill:#82B378;" d="M2243.667,1525.189h13.398c1.274,0,2.317,1.043,2.317,2.317s-1.043,2.317-2.317,2.317h-13.398
					c-1.274,0-2.317-1.043-2.317-2.317S2242.393,1525.189,2243.667,1525.189z"/>
			</g>
		</g>
		<polygon style="fill:#82B378;" points="2134.402,1506.889 2170.069,1471.223 2134.402,1471.223 		"/>
	</g>
	<path style="fill:#202F4E;" d="M2542.952,1763.023H458.332c-1.644,0-2.99-1.346-2.99-2.988l0,0c0-1.645,1.346-2.99,2.99-2.99
		h2084.62c1.645,0,2.989,1.346,2.989,2.99l0,0C2545.941,1761.678,2544.597,1763.023,2542.952,1763.023z"/>
</g>
</svg>
