<?xml version="1.0" encoding="utf-8"?>
<!-- Generator: Adobe Illustrator 27.5.0, SVG Export Plug-In . SVG Version: 6.00 Build 0)  -->
<svg version="1.1" xmlns="http://www.w3.org/2000/svg" xmlns:xlink="http://www.w3.org/1999/xlink" x="0px" y="0px"
	 viewBox="0 0 500 500" style="enable-background:new 0 0 500 500;" xml:space="preserve">
<g id="Background_Simple">
	<g>
		<path style="fill:#92E3A9;" d="M215.586,9.081c0,0,83.18-10.579,149.396,49.67c66.216,60.249,85.491,155.34,103.137,231.994
			c17.646,76.653-16.693,143.198-81.57,162.785c-64.877,19.587-93.823-36.51-174.452-56.552
			c-80.629-20.042-104.984-13.211-162.294-73.756C-7.507,262.677,3.976,151.773,74.586,83.286
			C145.196,14.798,215.586,9.081,215.586,9.081z"/>
		<path style="opacity:0.75;fill:#FFFFFF;" d="M215.586,9.081c0,0,83.18-10.579,149.396,49.67
			c66.216,60.249,85.491,155.34,103.137,231.994c17.646,76.653-16.693,143.198-81.57,162.785
			c-64.877,19.587-93.823-36.51-174.452-56.552c-80.629-20.042-104.984-13.211-162.294-73.756
			C-7.507,262.677,3.976,151.773,74.586,83.286C145.196,14.798,215.586,9.081,215.586,9.081z"/>
	</g>
</g>
<g id="Graphics">
	<g>
		<polygon style="fill:#263238;" points="459,278.693 58.623,261.521 58.623,43.321 459,26.15 		"/>
		<polygon style="fill:none;stroke:#92E3A9;stroke-miterlimit:10;" points="449.124,266.799 66.042,251.867 66.042,52.975 
			449.124,38.043 		"/>
		<g>
			<path style="fill:#808080;" d="M190.472,75.53l-105.99,3.046c-2.514,0.072-4.549-2.161-4.549-4.989l0,0
				c0-2.827,2.035-5.186,4.549-5.269l105.99-3.469c2.731-0.089,4.95,2.233,4.95,5.188l0,0
				C195.422,72.992,193.203,75.451,190.472,75.53z"/>
			<path style="fill:#92E3A9;" d="M126.813,72.146c0-2.879-2.106-5.144-4.7-5.059l-37.632,1.232
				c-2.514,0.082-4.549,2.441-4.549,5.269c0,2.827,2.035,5.061,4.549,4.989l37.632-1.081
				C124.707,77.42,126.813,75.025,126.813,72.146z"/>
			<path style="fill:#808080;" d="M190.472,96.396l-105.99,2.219c-2.514,0.053-4.549-2.197-4.549-5.024l0,0
				c0-2.827,2.035-5.17,4.549-5.233l105.99-2.642c2.731-0.068,4.95,2.272,4.95,5.227l0,0
				C195.422,93.897,193.203,96.338,190.472,96.396z"/>
			<path style="fill:#92E3A9;" d="M153.324,91.907L153.324,91.907c0-2.909-2.149-5.213-4.795-5.147l-64.046,1.597
				c-2.514,0.063-4.549,2.406-4.549,5.233l0,0c0,2.827,2.035,5.077,4.549,5.024l64.046-1.341
				C151.175,97.218,153.324,94.816,153.324,91.907z"/>
			<path style="fill:#808080;" d="M190.472,117.262l-105.99,1.393c-2.514,0.033-4.549-2.232-4.549-5.06v0
				c0-2.827,2.035-5.155,4.549-5.198l105.99-1.816c2.731-0.047,4.95,2.311,4.95,5.265l0,0
				C195.422,114.801,193.203,117.226,190.472,117.262z"/>
			<path style="fill:#92E3A9;" d="M172,112.201c0-2.929-2.18-5.266-4.863-5.22l-82.655,1.416c-2.514,0.043-4.549,2.37-4.549,5.198
				c0,2.828,2.035,5.093,4.549,5.06l82.655-1.086C169.821,117.533,172,115.13,172,112.201z"/>
			<path style="fill:#92E3A9;" d="M190.472,138.128l-105.99,0.566c-2.514,0.013-4.549-2.268-4.549-5.095l0,0
				c0-2.828,2.035-5.139,4.549-5.162l105.99-0.989c2.731-0.025,4.95,2.349,4.95,5.304v0
				C195.422,135.706,193.203,138.113,190.472,138.128z"/>
			<path style="fill:#92E3A9;" d="M217.1,74.765l-14.524,0.417c-2.75,0.079-4.976-2.254-4.976-5.212l0,0
				c0-2.957,2.225-5.427,4.976-5.517l14.524-0.475c2.786-0.091,5.049,2.254,5.049,5.238l0,0
				C222.148,72.2,219.886,74.685,217.1,74.765z"/>
			<path style="fill:#92E3A9;" d="M217.1,95.838l-14.524,0.304c-2.75,0.058-4.976-2.293-4.976-5.25v0
				c0-2.957,2.225-5.41,4.976-5.479l14.524-0.362c2.786-0.07,5.049,2.293,5.049,5.278v0C222.148,93.313,219.886,95.78,217.1,95.838z
				"/>
			<path style="fill:#92E3A9;" d="M217.1,116.912l-14.524,0.191c-2.75,0.036-4.976-2.332-4.976-5.289l0,0
				c0-2.957,2.225-5.393,4.976-5.44l14.524-0.249c2.786-0.048,5.049,2.333,5.049,5.317l0,0
				C222.148,114.426,219.886,116.875,217.1,116.912z"/>
			<path style="fill:#92E3A9;" d="M217.1,137.985l-14.524,0.077c-2.75,0.015-4.976-2.371-4.976-5.328l0,0
				c0-2.957,2.225-5.375,4.976-5.401l14.524-0.136c2.786-0.026,5.049,2.372,5.049,5.356l0,0
				C222.148,135.539,219.886,137.97,217.1,137.985z"/>
			<line style="fill:none;stroke:#FFFFFF;stroke-miterlimit:10;" x1="85.308" y1="62.94" x2="102.367" y2="62.347"/>
			<line style="fill:none;stroke:#FFFFFF;stroke-miterlimit:10;" x1="85.308" y1="83.964" x2="102.367" y2="83.51"/>
			<line style="fill:none;stroke:#FFFFFF;stroke-miterlimit:10;" x1="85.308" y1="103.91" x2="102.367" y2="103.588"/>
			<line style="fill:none;stroke:#FFFFFF;stroke-miterlimit:10;" x1="85.308" y1="124.934" x2="102.367" y2="124.752"/>
			<g>
				<g>
					<line style="fill:none;stroke:#FFFFFF;stroke-miterlimit:10;" x1="400.897" y1="63.511" x2="415.203" y2="63.07"/>
					<line style="fill:none;stroke:#FFFFFF;stroke-miterlimit:10;" x1="392.589" y1="75.829" x2="415.203" y2="75.227"/>
					<line style="fill:none;stroke:#FFFFFF;stroke-miterlimit:10;" x1="400.897" y1="87.704" x2="415.203" y2="87.383"/>
					<line style="fill:none;stroke:#FFFFFF;stroke-miterlimit:10;" x1="406.812" y1="99.693" x2="415.203" y2="99.54"/>
					<line style="fill:none;stroke:#FFFFFF;stroke-miterlimit:10;" x1="400.897" y1="111.897" x2="415.203" y2="111.697"/>
					<line style="fill:none;stroke:#FFFFFF;stroke-miterlimit:10;" x1="397.083" y1="124.032" x2="415.203" y2="123.853"/>
					<line style="fill:none;stroke:#FFFFFF;stroke-miterlimit:10;" x1="400.897" y1="136.091" x2="415.203" y2="136.01"/>
					<line style="fill:none;stroke:#FFFFFF;stroke-miterlimit:10;" x1="393.97" y1="148.197" x2="415.203" y2="148.166"/>
					<line style="fill:none;stroke:#FFFFFF;stroke-miterlimit:10;" x1="400.897" y1="160.284" x2="415.203" y2="160.323"/>
				</g>
				<g>
					<path style="fill:none;stroke:#FFFFFF;stroke-miterlimit:10;" d="M418.953,62.955c1.445-0.045,2.891-0.089,4.338-0.134"/>
					<path style="fill:none;stroke:#FFFFFF;stroke-miterlimit:10;" d="M418.952,75.127c1.445-0.038,2.891-0.077,4.338-0.116"/>
					<path style="fill:none;stroke:#FFFFFF;stroke-miterlimit:10;" d="M418.953,87.299c1.445-0.032,2.891-0.065,4.338-0.097"/>
					<path style="fill:none;stroke:#FFFFFF;stroke-miterlimit:10;" d="M419.066,99.469c1.407-0.026,2.815-0.051,4.225-0.077"/>
					<path style="fill:none;stroke:#FFFFFF;stroke-miterlimit:10;" d="M418.953,111.644c1.445-0.02,2.891-0.041,4.338-0.061"/>
					<path style="fill:none;stroke:#FFFFFF;stroke-miterlimit:10;" d="M419.044,123.815c1.414-0.014,2.83-0.028,4.246-0.042"/>
					<path style="fill:none;stroke:#FFFFFF;stroke-miterlimit:10;" d="M418.953,135.988c1.445-0.008,2.891-0.016,4.338-0.025"/>
					<path style="fill:none;stroke:#FFFFFF;stroke-miterlimit:10;" d="M418.918,148.161c1.456-0.002,2.914-0.004,4.373-0.006"/>
					<path style="fill:none;stroke:#FFFFFF;stroke-miterlimit:10;" d="M418.953,160.333c1.445,0.004,2.891,0.008,4.338,0.012"/>
				</g>
				<g>
					<path style="fill:none;stroke:#FFFFFF;stroke-miterlimit:10;" d="M427.529,62.69c2.472-0.076,4.949-0.153,7.429-0.229"/>
					<path style="fill:none;stroke:#FFFFFF;stroke-miterlimit:10;" d="M427.529,74.899c2.472-0.066,4.949-0.132,7.43-0.198"/>
					<path style="fill:none;stroke:#FFFFFF;stroke-miterlimit:10;" d="M427.529,87.107c2.472-0.056,4.949-0.111,7.429-0.167"/>
					<path style="fill:none;stroke:#FFFFFF;stroke-miterlimit:10;" d="M427.722,99.312c2.408-0.044,4.82-0.088,7.236-0.132"/>
					<path style="fill:none;stroke:#FFFFFF;stroke-miterlimit:10;" d="M427.529,111.523c2.472-0.035,4.949-0.069,7.429-0.104"/>
					<path style="fill:none;stroke:#FFFFFF;stroke-miterlimit:10;" d="M427.686,123.73c2.42-0.024,4.844-0.048,7.272-0.072"/>
					<path style="fill:none;stroke:#FFFFFF;stroke-miterlimit:10;" d="M427.529,135.94c2.472-0.014,4.949-0.028,7.429-0.042"/>
					<path style="fill:none;stroke:#FFFFFF;stroke-miterlimit:10;" d="M427.469,148.148c2.492-0.004,4.988-0.007,7.489-0.011"/>
					<path style="fill:none;stroke:#FFFFFF;stroke-miterlimit:10;" d="M427.529,160.356c2.472,0.007,4.949,0.014,7.429,0.02"/>
				</g>
			</g>
			<g>
				<line style="fill:none;stroke:#999999;stroke-miterlimit:10;" x1="237.091" y1="150.581" x2="382.511" y2="150.483"/>
				<line style="fill:none;stroke:#999999;stroke-miterlimit:10;" x1="237.091" y1="141.326" x2="382.511" y2="140.733"/>
				<line style="fill:none;stroke:#999999;stroke-miterlimit:10;" x1="237.091" y1="132.07" x2="382.511" y2="130.983"/>
			</g>
			<g>
				<g>
					<path style="fill:#92E3A9;" d="M383.013,169.713v-44.002c0,0-3.415-4.33-17.479-3.528
						c-13.926,0.794-17.267,13.097-31.969,20.252c-14.55,7.081-21.537-4.386-33.565-4.324
						c-11.925,0.061-17.849,13.335-26.463,18.368c-8.56,5.001-16.174-0.649-26.408,0.584c-10.158,1.223-12.357,10.517-12.357,10.517
						l-0.147,1.239L383.013,169.713z"/>
				</g>
				<path style="fill:#808080;" d="M383.013,169.713v-24.165c-4.813-0.259-14.796,0.536-25.398,9.37
					c-10.533,8.775-29.51,4.177-35.065,2.142c-8.85-3.242-18.984-3.397-29.091,3.004c-10.034,6.355-18.289,5.773-27.643,5.727
					c-6.606-0.032-14.272,1.956-18.148,3.106L383.013,169.713z"/>
			</g>
			<path style="fill:#808080;" d="M271.773,238.257l-25.873-0.806c-2.419-0.075-4.377-2.212-4.377-4.772l0,0
				c0-2.56,1.958-4.581,4.377-4.514l25.873,0.717c2.469,0.069,4.475,2.226,4.475,4.819l0,0
				C276.247,236.294,274.242,238.334,271.773,238.257z"/>
			<path style="fill:#808080;" d="M324.019,239.883l-26.858-0.836c-2.511-0.078-4.543-2.256-4.543-4.864l0,0
				c0-2.608,2.032-4.666,4.543-4.596l26.858,0.745c2.564,0.071,4.646,2.271,4.646,4.912l0,0
				C328.665,237.886,326.583,239.963,324.019,239.883z"/>
			<path style="fill:#808080;" d="M377.096,241.536l-27.877-0.868c-2.605-0.081-4.714-2.301-4.714-4.957l0,0
				c0-2.657,2.109-4.752,4.714-4.68l27.877,0.773c2.662,0.074,4.823,2.316,4.823,5.008l0,0
				C381.92,239.504,379.758,241.619,377.096,241.536z"/>
			<g>
				<g>
					<line style="fill:none;stroke:#999999;stroke-miterlimit:10;" x1="79.747" y1="213.156" x2="223.167" y2="216.552"/>
					<line style="fill:none;stroke:#999999;stroke-miterlimit:10;" x1="79.747" y1="205.546" x2="223.167" y2="208.516"/>
					<line style="fill:none;stroke:#999999;stroke-miterlimit:10;" x1="79.747" y1="197.935" x2="223.167" y2="200.48"/>
					<line style="fill:none;stroke:#999999;stroke-miterlimit:10;" x1="79.747" y1="190.324" x2="223.167" y2="192.443"/>
					<line style="fill:none;stroke:#999999;stroke-miterlimit:10;" x1="79.747" y1="182.714" x2="223.167" y2="184.407"/>
					<line style="fill:none;stroke:#999999;stroke-miterlimit:10;" x1="79.747" y1="175.103" x2="223.167" y2="176.371"/>
					<line style="fill:none;stroke:#999999;stroke-miterlimit:10;" x1="79.747" y1="167.492" x2="223.167" y2="168.335"/>
					<line style="fill:none;stroke:#999999;stroke-miterlimit:10;" x1="79.747" y1="159.881" x2="223.167" y2="160.298"/>
				</g>
				<g>
					<g>
						<polygon style="fill:#808080;" points="97.052,221.799 83.308,221.43 83.308,191.253 97.052,191.461 						"/>
						<polygon style="fill:#92E3A9;" points="116.544,222.323 102.592,221.948 102.592,183.022 116.544,183.187 						"/>
						<polygon style="fill:#808080;" points="136.331,222.854 122.167,222.474 122.167,176.574 136.331,176.706 						"/>
						<polygon style="fill:#92E3A9;" points="156.422,223.394 142.04,223.008 142.04,157.531 156.422,157.559 						"/>
						<polygon style="fill:#808080;" points="176.824,223.942 162.219,223.55 162.219,176.945 176.824,177.081 						"/>
						<polygon style="fill:#92E3A9;" points="197.542,224.499 182.71,224.1 182.71,191.779 197.542,191.998 						"/>
						<polygon style="fill:#808080;" points="218.586,225.064 203.521,224.66 203.521,204.877 218.586,205.171 						"/>
					</g>
					
						<line style="fill:none;stroke:#FFFFFF;stroke-linecap:round;stroke-linejoin:round;stroke-miterlimit:10;" x1="83.96" y1="229.05" x2="95.141" y2="229.383"/>
					
						<line style="fill:none;stroke:#FFFFFF;stroke-linecap:round;stroke-linejoin:round;stroke-miterlimit:10;" x1="103.379" y1="229.629" x2="114.73" y2="229.968"/>
					
						<line style="fill:none;stroke:#FFFFFF;stroke-linecap:round;stroke-linejoin:round;stroke-miterlimit:10;" x1="123.094" y1="230.217" x2="134.619" y2="230.561"/>
					
						<line style="fill:none;stroke:#FFFFFF;stroke-linecap:round;stroke-linejoin:round;stroke-miterlimit:10;" x1="143.112" y1="230.814" x2="154.815" y2="231.163"/>
					
						<line style="fill:none;stroke:#FFFFFF;stroke-linecap:round;stroke-linejoin:round;stroke-miterlimit:10;" x1="163.439" y1="231.421" x2="175.324" y2="231.775"/>
					
						<line style="fill:none;stroke:#FFFFFF;stroke-linecap:round;stroke-linejoin:round;stroke-miterlimit:10;" x1="184.083" y1="232.036" x2="196.155" y2="232.396"/>
					
						<line style="fill:none;stroke:#FFFFFF;stroke-linecap:round;stroke-linejoin:round;stroke-miterlimit:10;" x1="205.052" y1="232.662" x2="217.314" y2="233.027"/>
				</g>
			</g>
			<g>
				<polygon style="fill:#92E3A9;" points="394.368,181.047 394.368,173.873 413.876,174.018 413.876,181.241 				"/>
				<polygon style="fill:#808080;" points="394.368,191.09 394.368,183.916 419.392,184.19 419.392,191.426 				"/>
				<polygon style="fill:#92E3A9;" points="394.368,201.133 394.368,193.96 423.697,194.383 423.697,201.63 				"/>
				<polygon style="fill:#808080;" points="394.368,211.177 394.368,204.003 436.067,204.75 436.067,212.027 				"/>
				<polygon style="fill:#92E3A9;" points="394.368,221.22 394.368,214.046 423.697,214.674 423.697,221.921 				"/>
				<polygon style="fill:#808080;" points="394.368,231.263 394.368,224.089 414.488,224.59 414.488,231.814 				"/>
				<polygon style="fill:#92E3A9;" points="394.368,241.307 394.368,234.133 406.554,234.479 406.554,241.683 				"/>
			</g>
			<g>
				<g>
					<path style="fill:#808080;" d="M279.242,199.152c0,12.197-9.418,21.85-20.948,21.563
						c-11.434-0.285-20.633-10.252-20.633-22.265s9.199-21.67,20.633-21.568C269.824,176.984,279.242,186.956,279.242,199.152z"/>
					<path style="fill:#92E3A9;" d="M259.284,176.943c-0.33-0.019-0.656-0.059-0.99-0.061c-11.434-0.102-20.633,9.555-20.633,21.568
						s9.199,21.981,20.633,22.265c0.334,0.008,0.66-0.02,0.99-0.028V176.943z"/>
					<path style="fill:#263238;" d="M272.724,199.042c0,8.402-6.479,15.067-14.43,14.889c-7.905-0.177-14.28-7.06-14.28-15.374
						c0-8.314,6.375-14.982,14.28-14.891C266.245,183.756,272.724,190.641,272.724,199.042z"/>
				</g>
				<g>
					<path style="fill:#92E3A9;" d="M330.951,200.026c0,12.425-9.773,22.254-21.736,21.956
						c-11.861-0.295-21.403-10.451-21.403-22.685c0-12.234,9.542-22.067,21.403-21.962
						C321.178,177.442,330.951,187.602,330.951,200.026z"/>
					<path style="fill:#263238;" d="M324.187,199.912c0,8.558-6.723,15.346-14.972,15.161c-8.201-0.184-14.813-7.196-14.813-15.664
						c0-8.468,6.613-15.257,14.813-15.163C317.464,184.339,324.187,191.354,324.187,199.912z"/>
				</g>
				<g>
					<path style="fill:#808080;" d="M384.63,200.934c0,12.662-10.148,22.673-22.569,22.364
						c-12.313-0.307-22.217-10.657-22.217-23.121c0-12.464,9.904-22.48,22.217-22.37C374.482,177.917,384.63,188.272,384.63,200.934
						z"/>
					<path style="fill:#92E3A9;" d="M363.128,177.871c-0.356-0.02-0.707-0.061-1.067-0.064c-12.313-0.11-22.217,9.906-22.217,22.37
						c0,12.464,9.904,22.815,22.217,23.121c0.36,0.009,0.711-0.02,1.067-0.028V177.871z"/>
					<path style="fill:#263238;" d="M377.607,200.815c0,8.721-6.981,15.635-15.545,15.443c-8.513-0.191-15.377-7.338-15.377-15.965
						c0-8.627,6.864-15.542,15.377-15.445C370.626,184.945,377.607,192.094,377.607,200.815z"/>
				</g>
				<line style="fill:none;stroke:#FFFFFF;stroke-miterlimit:10;" x1="253.847" y1="199.822" x2="263.352" y2="199.986"/>
				<line style="fill:none;stroke:#FFFFFF;stroke-miterlimit:10;" x1="304.806" y1="200.704" x2="314.669" y2="200.874"/>
				<line style="fill:none;stroke:#FFFFFF;stroke-miterlimit:10;" x1="356.74" y1="201.602" x2="366.975" y2="201.779"/>
			</g>
			<g>
				<g>
					<polygon style="fill:#808080;" points="305.25,83.383 305.324,82.622 305.102,82.845 305.25,83.383 					"/>
					<polygon style="fill:#808080;" points="275.746,94.594 276.259,94.672 277.427,94.308 275.746,93.771 275.979,94.321 
						275.295,94.478 275.746,94.594 					"/>
					<path style="fill:#808080;" d="M289.005,103.889l-2.582-1.032l-0.462,0.268l0.071-0.387l-0.831-0.559l-0.948,0.403l0.305-0.472
						l-0.712-0.202l-0.227,0.318l0.446-0.842l-0.543-1.196l-0.607-0.53l-1.368-0.18l-0.035,0.012l-0.985-0.99l-0.51-0.049
						l0.094-0.333l-0.523-0.213l0.047-0.225l-0.296-0.093l-0.678,0.291l-1.122-0.291l-0.569-0.525l-0.101,0.261l-0.475,0.322
						l0.117,0.588l-0.374-0.136l0.156-0.53l-0.046-0.278l0.085-0.08l0.086-0.252l-1.019,0.557l-0.163-0.024l-0.801,1.213
						l-0.076,0.022l-0.219-0.311l-0.49-0.258l-0.497,0.224l-0.559-0.007l-0.574-0.756l0.21-1.669l-0.389-0.309l-1.396,0.056
						l-0.008,0.004l-0.141-0.092l0.203-0.877l0.077-0.054l0,0l0,0l0,0l0.411-1.339l-0.853-0.044l-0.782,1.212l-1.084,0.183
						l-0.395-0.205l-0.572-0.924l0.016-2.075l-0.145-0.06l0.145,0.059l-0.101-0.516l0.085-0.385l1.191-0.936l1.161,0.268
						l0.155-0.146l0.31,0.243l-0.147-0.425l0.55-0.253l0.14,0.104l0.465-0.073l0.326,0.26l0.24,0.039l0.326-0.132l0.885,2.051
						l0.264,0.048l0.155-0.477l-0.489-1.971l1.592-1.787l0.031-0.269l0.086-0.145l0.241,0.012l0.086-0.243l-0.233-0.405
						l-0.008-0.196l-0.225-0.334l0.14-0.146l0.054-0.528l0.117-0.003l0.062,0.874l0.156-0.12l0.07-0.699l0.249-0.024l0.187-0.505
						l0.708-0.295l-0.537-0.005l0.568-0.219l0.171-0.174l0.296,0.02l-0.093-0.31l0.272-0.651l0.459-0.45l0.436,0.007l1.045-0.769
						l0.023,0.17l0.32,0.135l-0.717,0.367l-0.039,0.448l0.46-0.11l0.335-0.34l0.811-0.271l0.07-0.208l0.469-0.209l-0.133-0.158
						l-0.008-0.277l-0.57,0.578l-0.624-0.109l-0.382-0.348l-0.047-0.41l-0.156-0.13l-0.031-0.16l0.343-0.528l-1.52,0.326
						l-0.763,0.771l0.88-1.159l0.366-0.135l0.257-0.364l2.199-0.183l1.609-0.992l-0.031-0.169l-0.102-0.114l0.211-0.247
						l-0.188-0.309l-0.375,0.064l-0.023-0.322l-0.883,0.346l-0.086-0.159l0.914-0.428l-1.71-1.081l0.039-0.109l0.281-0.187
						l-1.1-2.01l-0.32,0.421l-0.117,0.469l-0.125,0.156l-0.21,0.042l-0.351,0.243l-0.577-0.503l-0.179-0.728l0.117-0.343
						l-0.802-0.254l-0.732-0.658l-0.35,0.144l-1.065-0.139l-0.148,0.299l0.225,0.271l-0.194,0.39l0.249,0.582l-0.358,0.868
						l0.529,0.468l0.078,0.882l-0.497,0.576l-0.489,0.219l0.287,1.269l-0.078,0.342l0.054,0.204L273.654,79l-0.194,0.255
						l-0.295-0.117l-0.613-0.894l0.016-0.938l-0.194-0.245l-2.907-1.142l-0.519,0.193l0.046-0.198l-0.41-0.844l-0.387-0.096
						l0.224-1.433l1.185-1.273l-1.053-0.469l1.208,0.196l0.085-0.35l0.519,0.083l0.496-0.603l-0.876-0.403l0.023-0.224l0.698,0.372
						l0.527-0.453l-0.202-0.226l0.271-0.142l0.225,0.181l0.372-0.055l-0.194-0.28l0.062-0.109l0.241,0.234l0.303,0l0.52-0.444
						l-0.287-0.714l0.008-0.17l0.349-0.153l-0.21-0.413l-1.211-0.356l0.031,0.383l0.109,0.193l-0.062,0.18l-0.225,0.185
						l-0.171,0.407l-0.155-0.245l-0.047,0.314l0.132,0.246l-0.248,0.204l-0.426-0.585l0.147-0.183l-0.008-0.267l-0.232-0.27
						L270,68.252l-0.287,0.615l-0.116-0.478l0.132-0.334l-0.349-0.15l-0.263,0.088l0.016-0.348l0.201-0.086l-0.527-0.456
						l0.015-0.357l-0.449-0.342l-0.085-0.176l0.255-0.222l0.077-0.395l0.542,0.036l0.504-0.81l-0.937-0.291l-0.727,0.157
						l0.093,0.238l-0.224-0.02l0.193,1.366l-0.217,0.238l0.108,0.237l-0.286-0.027l0.016,1.087l0.704,0.264l-0.116,0.53l0.17-0.148
						l0.155,0.218l-0.58,0.419v0.392l-0.186,0.157l-0.186-0.324l0.047-0.313l-0.402-0.121l0.255-0.052l0.186-0.166l0.402-0.048
						l-0.194-0.341l-0.278-0.018l0.286-0.071l-0.596-0.222l-0.758,0.406l0.572,0.419l-0.302,0.223l-0.023,0.259l-1.923-0.102
						l-0.309-0.169l-0.177-0.315l-0.571,0.044l-0.509,0.274l0.154,0.164l0.787-0.3l-0.571,0.364l-0.046,0.856l-0.216-0.1
						l-0.039-0.328l-2.381-0.177l0.393-0.323l-0.131-0.298l-2.254-0.598l-1.183,0.241l0.015-0.258l-0.115-0.307l-0.468,0.583
						l-0.522-0.783l-0.207,0.077l-0.376,0.5l-1.434,0.745l0.084-0.224l1.211-0.782l-0.299-0.035l-1.173,0.568l-0.26-0.143
						l-0.475,0.414l0.138,0.226L248.117,68l-0.107-0.2l-0.595,0.027l-0.168-0.154l-0.442,0.12l0.137-0.181l-0.274-0.142
						l-1.218,0.542l0.076,0.21l-0.753,0.094l-0.403,0.401l-0.144,0.429l-0.867,0.229l-0.091,0.25l0.942,0.943l0.578,0l0.114,0.341
						l0.365,0.077l-1.141,0.246v-0.274l-0.426,0.031l-0.19,0.244l-0.296,0.044l-0.464,0.323l0.494,0.215l-0.061,0.196l0.258,0.284
						l1.042,0.014l0.609-0.265l-0.099,0.277l0.038,0.529l-0.419,0.048l-0.182,0.332l-0.433-0.128l-0.137,0.41l-0.342,0.301
						l-0.167,0.358l0.312,0.23l-0.015,0.38l0.426,0.456l0.403-0.082l0.175-0.173l0.107,0.845l1.058,0.041l0.145-0.207l0.373,0.034
						l-0.114,0.826l-0.997,0.983l-0.533,0.076l-0.251,0.44l3.274-2.39l-0.274-0.151l1.212-1.326l0.206,0.092l0.008,0.15l-0.359,0.09
						l-0.137,0.367l0.023,0.291l-0.122,0.18l0.137,0.129l0.679-0.453l0.496-0.041l0.008-0.204l-0.153-0.235l0.114-0.198l0.71,0.139
						l-0.153,0.137l0.038,0.141l0.481-0.111l0.076,0.078l1.139,0.083l0.306,0.23l0.421-0.171l-0.069,0.25l0.979,0.726l0.199-0.201
						l0.276,0.161l0.031-0.338l0.138,0.031l0.023,0.523l-0.253-0.055l-0.237,0.077l0.552,0.88l0.023-0.701l0.046,0.282l0.207-0.139
						l-0.007-0.382l0.207,0.269l-0.115,0.279l-0.192,0.112l0.038,0.416l0.138-0.146l0.222-0.059l0.291,0.258l-0.138-0.191
						l0.008-0.222l0.268,0.392l-0.176,0.209l-0.299-0.16l0.054,0.699l0.115-0.136l0.192,0.075l0.077-0.224l0.176,0.066l0.161-0.102
						l0.031,0.283l0.146,0.023l-0.001,0.045l0.146,0.2l-0.092,0.171l0.061,0.3l0.299-0.026l0.077,0.229l0.43,0.326l0.084,0.628
						l0.906,0.411l0.13,0.236l0.469,0.148l0.3,0.418l0.061,0.416l-0.108,0.411l-0.159-0.594l0.036-0.167l-1.021-0.87l-0.814-0.156
						l1.098,0.983l0.491,1.15l0.046,3.799l1.16,1.926l0.723,0.258l1.478,2.713l-0.277,0.033l0.809,0.622l0.1,0.496l0.771,0.908
						l0.17-0.128l-0.077-0.318l-0.293-0.136l-0.971-1.944l0.039-0.214l-0.27-0.127l-0.308-0.9l0.123-0.048l0.539,0.201l0.123,0.957
						l2.583,3.244l-0.015,0.294l-0.108,0.145l0.278,0.493l2.534,1.327l1.339,0.035l0.376,0.329v0l0.383,0.369l1.178,0.351
						l0.113-0.056l0.104-0.002l0.085,0.302l0.546,0.625l-0.026,0.159l0.093,0.346l0.202-0.049l1.397,1.017l0.272-0.086l-0.101-0.221
						l0.186-0.2l0.388-0.15l0.42,0.813l0.055,1.508l-0.536,0.705l0,0.055l-0.241,0.147l-0.466,1.303l0.202,0.202l0.171,0.042
						l-0.155,0.253l-0.029,0.006l-0.29,0.357l0.132,0.551l-0.109,0.109l1.865,3.559l1.984,1.497l-1.448,11.032l0.163,0.266
						l0.156-0.726l0.132-0.153l0.093,0.151l-0.132,1.709l-0.179,0.118l0.031,0.268l-0.225-0.105l0.155-0.27l-0.187-0.293l0.117,0.32
						l-0.389,0.272l0.016,0.197l-0.218,0.243l0.451,0.04l0.031,0.205l-0.109,0.251l0.327,0.033l0.008,0.161l-0.443-0.04
						l-0.233,0.226l0.132,0.177l0.171-0.127l0.148,0.016l-0.366,0.415l0.163,0.293l0.257-0.351l-0.101,0.591l-0.21,0.261
						l-0.008,0.241l0.366-0.057l0.07,0.133l-0.163,0.189l0.21,0.024l0.117-0.046l0.226,0.087l-0.311,0.146l-0.101,0.242l0.257-0.101
						l0.537,0.031l-0.63,0.274l0.008,0.161l0.716-0.248l-0.444,0.371l-0.374-0.05l0.039,0.268l0.529,0.183l-0.062-0.133l0.724-0.794
						l-0.101,0.43l0.319,0.015l-0.195,0.181l0.016,0.286l-0.148-0.329l-0.07,0.251l-0.171-0.07l-0.272,0.315l0.257,0.06l0.179,0.356
						l0.124-0.314l0.249,0.373l0.125-0.144l0.366,0.301l-0.047-0.268l1.091-0.206l-1.099-0.83l0.031-0.17l-0.123-0.217v0
						l-0.313-0.154l0.041-0.06l0.333,0.048l-0.226-0.677l0.07-0.376l1.067-1.299l0.062-0.394l-0.351-0.104l-0.241-0.614l0.577-0.382
						l0.429-1.204l0.195,0.132l0.14-0.315l-0.242,0.075l-0.195-0.105l-0.07-0.679l0.561,0.163l0.406-0.238l0.016-0.671l0.125-0.163
						l0.905-0.074l0.672-0.384l0.32-0.532l-0.656-1.129l0.126-0.026l0.592,0.204l0.805-0.091l1.087-2.004l0.031,0.501l0.806-1.23
						l0.219-1.482l1.379-1.007l0.902-0.121l1.004-2.142l0.094-2.048l0.063-0.118l0.22,0.077l1.115-1.743l-0.071-1.175
						L289.005,103.889L289.005,103.889z M277.314,126.987l-0.017-0.05L277.314,126.987L277.314,126.987z"/>
					<polygon style="fill:#808080;" points="275.357,93.726 273.01,92.544 271.768,93.07 272.373,92.736 274.051,93.468 
						274.222,93.786 275.357,93.726 					"/>
					<polygon style="fill:#808080;" points="273.911,94.543 274.626,94.671 273.911,94.543 					"/>
					<polygon style="fill:#808080;" points="277.911,94.495 278.487,94.482 277.911,94.495 					"/>
					<polygon style="fill:#808080;" points="269.35,102.111 269.566,102.517 269.35,102.111 					"/>
					<polygon style="fill:#808080;" points="293.994,66.832 292.576,66.804 292.744,66.151 294.026,66.603 294.152,66.06 
						293.227,65.153 293.753,65.208 294.089,64.778 293.237,64.793 293.08,64.534 293.217,64.194 294.005,64.433 294.604,64.246 
						294.131,63.757 294.919,63.648 295.014,63.369 294.373,62.934 294.993,62.793 294.825,62.055 294.194,61.896 293.931,61.592 
						295.383,61.473 295.161,61.048 294.572,60.924 295.056,60.788 294.057,60.665 294.278,59.902 295.498,58.901 295.256,58.585 
						294.667,58.821 295.151,58.468 296.046,58.294 295.393,58.136 297.604,57.1 296.382,56.746 295.656,57.155 294.93,57.228 
						294.615,57.107 293.322,58.122 293.91,57.263 293.689,56.683 292.103,57.469 292.838,56.916 290.173,57.175 294.194,56.186 
						288.56,55.483 287.963,55.851 285.286,55.968 285.642,56.326 285.015,56.563 285.913,57.178 283.72,56.584 284.148,57.131 
						283.658,57.172 283.011,56.788 282.98,57.303 282.688,57.587 282.5,56.77 279.98,57.513 280.084,58.118 279.408,58.022 
						277.817,59.066 278.68,59.192 278.389,59.942 275.948,60.845 276.156,61.136 278.243,61.58 276.436,61.902 277.069,62.072 
						277.08,62.393 277.495,62.642 279.314,62.416 281.01,63.125 282.25,65.139 282.073,65.647 282.24,66.191 282.771,65.911 
						282.896,66.314 283.574,66.663 283.428,66.835 282.49,66.78 283.439,67.253 283.752,67.661 283.679,68.225 283.23,68.263 
						282.657,69.164 283.001,69.501 282.73,69.867 283.22,70.438 283.282,71.129 284.107,72.563 286.279,73.876 286.541,73.558 
						286.687,72.285 287.283,71.478 287.293,71.191 287.43,70.995 287.356,70.698 287.408,70.541 288.235,69.822 288.413,69.805 
						288.486,70.019 289.146,69.843 290.372,68.525 293.857,67.04 293.994,66.832 					"/>
					<polygon style="fill:#808080;" points="283.324,67.603 283.042,67.313 282.354,67.191 282.302,67.539 282.688,67.79 
						283.324,67.603 					"/>
					<polygon style="fill:#808080;" points="269.102,63.812 270.078,64.12 270.326,63.987 273.196,64.02 273.507,63.367 
						269.969,63.178 270.078,62.8 268.405,62.284 267.523,62.455 269.086,63.189 269.102,63.812 					"/>
					<polygon style="fill:#808080;" points="273.445,73.21 273.491,72.762 273.445,73.21 					"/>
					<polygon style="fill:#808080;" points="265.545,67.916 266.039,67.883 264.865,67.064 264.634,65.024 263.955,65.224 
						264.387,65.637 263.908,65.439 263.538,65.451 263.77,66.422 263.554,66.642 263.291,65.957 262.644,65.692 262.906,66.022 
						262.505,66.07 261.843,65.682 261.611,66.063 261.35,65.947 261.411,65.482 259.903,66.188 259.795,66.475 260.103,66.999 
						260.919,66.849 260.011,67.286 262.212,67.663 260.303,68.059 262.336,68.957 263.893,68.394 265.699,68.552 265.467,68.203 
						265.205,68.194 265.545,67.916 					"/>
					<polygon style="fill:#808080;" points="272.078,72.856 272.668,72.393 272.078,72.856 					"/>
					<polygon style="fill:#808080;" points="281.969,78.979 281.802,78.852 280.771,80.897 282.136,80.849 282.052,81.138 
						282.354,80.987 283.011,81.137 282.834,80.568 282.688,80.477 282.709,80.082 282.115,79.942 281.958,79.707 281.687,79.727 
						281.719,79.439 281.969,78.979 					"/>
					<polygon style="fill:#808080;" points="278.893,79.818 279.86,80.169 278.893,79.818 					"/>
					<polygon style="fill:#808080;" points="273.196,71.842 271.597,70.604 271.21,70.883 270.822,71.983 271.256,71.952 
						271.442,72.268 272.032,71.876 273.196,71.842 					"/>
					<polygon style="fill:#808080;" points="265.081,63.906 264.757,63.721 265.081,63.906 					"/>
					<polygon style="fill:#808080;" points="274.999,69.359 275.046,68.821 274.595,68.71 274.284,69.345 274.999,69.359 					"/>
					<polygon style="fill:#808080;" points="266.58,66.744 267.198,66.529 267.663,65.534 267.446,65.487 267.399,65.649 
						266.966,65.467 267.415,65.025 267.167,64.659 265.915,65.215 266.302,65.559 265.606,65.51 266.58,66.744 					"/>
					<polygon style="fill:#808080;" points="258.335,67.32 260.949,65.337 260.518,64.906 258.904,64.549 257.813,64.779 
						257.966,65.147 257.413,66.372 258.335,67.32 					"/>
					<polygon style="fill:#808080;" points="269.892,61.682 269.551,61.997 269.892,61.682 					"/>
					<polygon style="fill:#808080;" points="259.688,63.724 260.226,63.298 259.688,63.724 					"/>
					<polygon style="fill:#808080;" points="254.869,78.248 255.395,79.112 255.231,78.497 254.869,78.248 					"/>
					<polygon style="fill:#808080;" points="268.73,61.578 267.709,61.826 268.73,61.578 					"/>
					<polygon style="fill:#808080;" points="276.4,66.438 275.87,66.473 274.284,65.522 273.895,65.873 273.678,65.791 
						273.103,66.023 273.118,65.344 272.87,64.87 272.187,64.892 271.442,65.254 271.551,65.84 271.365,66.22 271.737,66.512 
						271.147,66.263 271.07,65.748 271.256,65.171 271.613,64.802 270.233,65.239 269.907,66.64 270.651,66.778 270.574,66.959 
						270.047,67.029 272.56,67.718 272.917,67.529 273.709,67.629 273.662,67.381 273.74,67.182 274.875,68.058 274.533,68.408 
						275.077,68.213 275.933,68.973 275.933,69.67 276.509,69.6 277.054,69.887 276.54,70.189 275.653,69.84 275.559,70.522 
						274.268,70.864 274.066,71.37 275.715,71.25 276.119,71.649 276.322,72.162 278.253,72.893 277.334,71.846 278.815,71.982 
						277.692,70.387 277.786,69.937 278.285,70.119 278.799,70.676 279.532,70.314 279.985,69.782 277.568,68.19 278.051,68.051 
						277.646,67.83 277.848,67.645 277.661,67.311 277.412,67.462 277.474,67.138 276.68,66.769 276.228,66.891 276.104,66.769 
						276.4,66.438 					"/>
					<polygon style="fill:#808080;" points="273.057,64.774 273.274,65.268 273.802,65.447 274.641,65.26 273.755,64.788 
						273.057,64.774 					"/>
					<polygon style="fill:#808080;" points="262.891,61.664 262.675,61.511 261.796,61.86 262.258,62.201 262.891,61.664 					"/>
					<polygon style="fill:#808080;" points="264.711,60.714 265.174,60.947 264.618,61.073 266.642,61.433 266.503,60.992 
						265.715,60.448 264.479,60.294 264.711,60.714 					"/>
					<polygon style="fill:#808080;" points="261.611,61.795 261.15,61.703 261.611,61.795 					"/>
					<polygon style="fill:#808080;" points="264.819,62.205 264.294,61.742 264.819,62.205 					"/>
					<polygon style="fill:#808080;" points="260.811,63.101 260.857,63.367 260.565,63.714 260.919,63.702 260.303,63.953 
						261.227,64.012 261.504,63.879 262.166,63.911 261.658,64.248 261.642,64.621 264.155,64.007 264.279,63.184 263.893,63.357 
						263.245,62.577 262.875,63.034 262.906,63.3 263.168,63.594 261.18,62.84 260.811,63.101 					"/>
					<polygon style="fill:#808080;" points="258.535,63.495 259.057,63.229 259.303,63.541 260.026,62.665 260.134,63.017 
						260.734,62.748 260.734,62.446 260.949,62.226 260.672,62.057 260.457,62.224 259.995,62.186 258.412,63.268 258.535,63.495 
											"/>
					<polygon style="fill:#808080;" points="262.135,61.351 263.137,61.175 262.382,60.987 261.719,61.329 262.135,61.351 					"/>
					<polygon style="fill:#808080;" points="267.663,59.76 268.003,60.176 269.025,60.177 268.405,60.537 269.721,61.189 
						270.217,61.154 270.93,60.345 271.52,60.094 270.837,59.671 270.682,59.301 268.405,58.344 268.436,58.521 267.91,58.896 
						267.972,59.339 267.663,59.76 					"/>
					<polygon style="fill:#808080;" points="267.477,61.53 268.096,61.385 268.127,61.081 267.028,60.69 267.477,61.53 					"/>
					<polygon style="fill:#808080;" points="266.827,59.806 266.363,59.625 266.827,59.806 					"/>
					<polygon style="fill:#808080;" points="268.39,63.514 267.508,63.935 268.56,64.187 268.39,63.514 					"/>
					<polygon style="fill:#808080;" points="266.178,62.464 266.286,62.923 265.885,62.812 265.761,63.101 265.545,63.125 
						264.973,62.539 264.927,63.039 265.483,63.466 266.317,63.421 266.24,63.922 266.966,63.935 267.26,63.604 267.229,63.195 
						266.827,62.603 266.178,62.464 					"/>
					<polygon style="fill:#808080;" points="269.535,57.931 269.737,57.978 269.876,58.133 269.768,58.405 270.093,58.643 
						270.977,58.649 271.085,58.841 273.569,58.382 273.569,58.721 272.42,59.046 272.855,59.567 271.163,59.142 271.178,59.784 
						272.513,60.703 271.566,60.521 270.667,61.014 271.504,61.005 271.427,61.257 271.83,61.779 271.365,61.741 270.76,61.404 
						270.698,62.048 269.985,62.482 273.942,62.442 274.098,62.08 272.948,61.957 272.963,61.724 273.88,61.658 273.942,61.263 
						274.595,61.188 275.295,60.343 274.362,60.141 275.155,59.883 275.59,59.493 276.275,59.523 278.846,57.844 277.801,57.808 
						279.704,57.17 279.798,56.773 278.846,56.431 278.051,56.583 278.191,56.328 271.411,57.117 270.837,57.565 270.295,57.494 
						270.016,57.754 269.272,57.851 269.535,57.931 					"/>
					<polygon style="fill:#808080;" points="243.8,78.337 244.256,78.059 243.8,78.337 					"/>
					<polygon style="fill:#808080;" points="247.85,75.997 247.545,76.413 247.293,76.526 247.438,76.832 247.621,76.827 
						248.071,76.442 247.941,76.207 248.185,76.067 248.117,75.875 247.85,75.997 					"/>
					<polygon style="fill:#808080;" points="243.268,74.968 242.964,75.101 243.443,75.255 243.511,74.979 243.268,74.968 					"/>
					<polygon style="fill:#808080;" points="303.132,84.29 302.82,84.418 303.132,84.29 					"/>
					<polygon style="fill:#808080;" points="311.213,86.144 310.42,86.073 310.202,86.18 310.729,86.325 311.213,86.144 					"/>
					<polygon style="fill:#808080;" points="313.913,86.231 314.105,85.967 314.1,85.888 313.588,86.076 313.423,86.369 
						313.913,86.231 					"/>
					<polygon style="fill:#808080;" points="296.477,70.838 297.035,70.263 296.593,69.49 296.351,69.515 296.009,69.339 
						295.966,69.586 295.409,69.663 295.225,69.596 294.988,69.79 294.846,69.71 294.683,69.841 294.636,70.028 294.404,70.155 
						294.31,69.834 293.768,69.442 293.821,69.668 293.689,69.66 293.458,69.769 293.28,70.044 294.052,70.117 293.983,70.317 
						293.395,70.574 293.91,70.571 294.141,70.852 293.842,71.179 294.294,71.148 294.94,71.423 296.477,70.838 					"/>
					<polygon style="fill:#808080;" points="298.569,78.37 299.624,77.951 299.618,76.945 299.893,76.742 299.693,76.291 
						298.843,76.47 299.012,76.657 298.722,76.834 298.342,76.85 298.548,77.439 298.453,77.784 298.215,78.055 298.569,78.37 					
						"/>
					<polygon style="fill:#808080;" points="299.645,74.405 299.408,74.772 299.645,74.405 					"/>
					<polygon style="fill:#808080;" points="299.555,74.948 299.814,75.182 299.682,75.485 299.872,75.697 299.576,75.957 
						299.83,75.848 299.978,76.09 300.184,75.766 300.21,76.048 300.083,76.46 300.595,76.392 300.844,76.908 300.812,77.276 
						300.447,77.304 300.337,77.373 300.231,77.628 300.442,77.779 300.099,78.065 300.236,78.229 300.822,78.328 300.854,78.429 
						300.458,78.5 300.004,79.149 300.268,78.974 300.532,79.027 300.69,78.842 301.229,78.696 301.514,78.767 302.413,78.424 
						302.26,78.344 302.286,78.102 302.582,77.703 302.032,77.484 302.027,77.261 301.166,75.871 300.843,75.82 301.245,74.835 
						300.585,74.817 300.463,74.688 300.732,74.344 300.785,74.102 300.627,74.269 300.241,74.286 299.772,75.032 299.555,74.948 
											"/>
					<polygon style="fill:#808080;" points="306.135,76.434 306.395,76.089 306.48,75.647 306.358,75.747 306.236,75.654 
						306.003,75.775 306.141,76.144 306.04,76.256 306.135,76.434 					"/>
					<polygon style="fill:#808080;" points="308.613,74.479 308.369,75.017 308.613,74.479 					"/>
					<polygon style="fill:#808080;" points="310.042,73.787 309.814,73.824 310.042,73.787 					"/>
					<polygon style="fill:#808080;" points="309.74,74.327 310.112,74.039 309.883,73.967 309.74,74.327 					"/>
					<polygon style="fill:#808080;" points="308.44,58.297 309.747,58.298 308.998,58.612 310.274,58.859 311.638,58.008 
						310.393,57.842 310.194,57.957 309.987,57.702 309.923,58.102 309.636,57.931 309.341,57.923 308.95,57.682 308.974,57.862 
						308.711,57.79 308.719,58.016 308.449,57.808 308.297,57.967 308.48,58.141 308.44,58.297 					"/>
					<polygon style="fill:#808080;" points="305.95,59.691 306.204,59.881 305.727,59.337 305.95,59.691 					"/>
					<polygon style="fill:#808080;" points="306.276,58.948 306.069,59.352 306.427,59.792 306.936,59.812 307.318,59.302 
						307.35,59.545 307.66,59.498 307.803,59.629 306.809,60.105 307.135,60.239 307.851,60.179 306.864,60.537 307.223,60.85 
						307.573,60.884 307.397,61.044 307.692,61.233 307.931,61.144 308.775,59.542 309.206,59.383 309.277,59.472 309.333,59.777 
						309.46,59.918 309.397,60.309 309.74,60.379 309.939,60.58 310.705,60.076 310.154,59.94 310.09,59.779 309.811,59.671 
						309.612,59.451 309.54,59.219 308.624,58.896 308.48,58.585 308.186,58.739 308.281,58.447 307.907,58.315 307.716,58.131 
						307.581,58.525 307.803,59.132 307.159,58.43 307.016,58.76 306.92,58.836 306.649,58.601 306.952,58.464 306.745,58.39 
						306.188,58.436 305.902,58.59 305.902,58.996 306.276,58.948 					"/>
					<polygon style="fill:#808080;" points="353.079,81.305 352.772,81.46 352.564,81.955 352.564,82.273 352.948,82.129 
						352.728,81.828 353.595,81.917 354.374,81.518 354.977,80.792 354.264,81.018 353.452,80.377 353.211,80.506 353.079,81.305 
											"/>
					<polygon style="fill:#808080;" points="348.865,86.267 348.712,86.564 348.919,86.437 349.116,87.35 349.532,86.643 
						349.455,86.376 349.204,86.173 348.865,86.267 					"/>
					<polygon style="fill:#808080;" points="351.282,84.668 351.053,85.09 349.827,85.302 349.258,85.793 349.258,86.038 
						350.593,85.639 350.746,86.003 351.184,85.968 351.315,85.683 351.425,85.62 352.17,85.59 352.389,85.34 352.74,85.27 
						352.926,84.041 353.266,83.579 353.09,82.481 352.619,82.64 352.367,83.748 351.797,84.46 351.556,84.331 351.282,84.668 					
						"/>
					<polygon style="fill:#808080;" points="350.013,86.436 350.33,86.294 350.582,85.921 350.21,85.881 349.86,85.999 
						349.805,86.551 350.013,86.436 					"/>
					<polygon style="fill:#808080;" points="345.36,91.419 345.818,90.126 345.164,90.715 345.36,91.419 					"/>
					<polygon style="fill:#808080;" points="341.538,92.977 341.734,92.485 341.277,92.459 340.919,93.027 341.538,92.977 					"/>
					<polygon style="fill:#808080;" points="347.128,96.857 346.702,97.269 346.375,97.19 345.949,97.479 345.807,97.91 
						346.408,97.593 346.713,98.296 347.095,98.508 347.084,97.983 347.477,97.792 347.39,96.877 347.128,96.857 					"/>
					<polygon style="fill:#808080;" points="345.022,93.979 345.219,94.855 346.375,95.454 346.822,96.509 347.106,96.149 
						347.008,95.649 346.342,94.966 345.83,94.879 345.644,94.504 345.895,93.912 345.807,93.095 345.273,93.058 345.197,94.025 
						345.022,93.979 					"/>
					<polygon style="fill:#808080;" points="345.23,95.221 345.579,95.654 345.23,95.221 					"/>
					<polygon style="fill:#808080;" points="344.554,96.651 344.085,97.344 344.75,96.635 344.848,96.194 344.554,96.651 					"/>
					<polygon style="fill:#808080;" points="346.768,96.657 346.495,96.857 346.768,96.657 					"/>
					<polygon style="fill:#808080;" points="346.375,96.31 345.818,95.832 345.84,96.394 346.036,96.268 346.124,97.048 
						346.517,96.38 346.375,96.31 					"/>
					<polygon style="fill:#808080;" points="356.878,102.664 356.427,102.966 355.636,103.017 356.24,103.313 357.01,102.871 
						357.12,102.501 356.878,102.664 					"/>
					<polygon style="fill:#808080;" points="357.372,102.607 357.251,102.192 357.141,102.218 357.372,102.607 					"/>
					<polygon style="fill:#808080;" points="355.34,103.231 351.6,101.361 350.67,102.137 350.276,101.116 349.434,101.008 
						349.116,101.284 349.313,101.39 349.521,101.668 350.111,101.694 350.079,101.817 349.543,101.949 349.772,102.311 
						351.775,102.999 351.984,103.473 351.972,103.84 351.622,104.177 352.477,104.113 353.266,104.59 353.935,103.99 
						354.714,104.173 355.526,104.969 356.306,105.115 356.251,104.858 355.614,104.391 355.263,103.502 355.34,103.231 					"/>
					<polygon style="fill:#808080;" points="330.835,97.056 330.684,97.994 330.868,98.598 331.429,98.004 330.835,97.056 					"/>
					<polygon style="fill:#808080;" points="319.41,106.214 319.282,106.336 319.228,106.628 318.832,106.997 318.821,107.215 
						317.591,107.877 317.26,110.978 317.495,111.749 318.137,111.921 318.511,111.758 319.592,107.711 319.806,107.66 
						319.41,106.214 					"/>
					<polygon style="fill:#808080;" points="320.982,96.071 321.35,95.984 320.982,96.071 					"/>
					<polygon style="fill:#808080;" points="354.851,118.944 354.217,118.75 354.39,119.575 354.884,120.213 355.09,120.045 
						355.172,119.833 355.386,119.876 355.477,118.79 354.851,118.944 					"/>
					<polygon style="fill:#808080;" points="348.813,105.732 349.288,105.596 348.813,105.732 					"/>
					<polygon style="fill:#808080;" points="351.135,116.436 351.578,116.366 351.135,116.436 					"/>
					<polygon style="fill:#808080;" points="357.529,112.665 357.422,111.673 356.614,110.773 356.482,110.343 356.333,110.207 
						356.119,110.229 355.765,109.342 354.909,108.794 354.209,106.746 353.921,106.76 353.452,105.187 353.214,105.494 
						352.926,107.658 352.613,108.15 350.847,107.011 350.913,106.459 351.151,106.263 351.274,105.985 351.192,105.785 
						351.053,105.952 350.913,105.734 350.634,105.867 349.567,105.398 349.707,105.671 349.141,105.873 348.624,106.68 
						348.641,107.028 348.215,107.099 347.575,106.568 347.363,106.71 347.248,106.904 346.961,106.918 346.896,107.102 
						346.724,107.242 346.65,107.647 346.38,107.624 346.437,107.934 346.323,108.147 346.176,107.838 345.889,108.007 
						345.873,108.493 345.341,109.088 343.086,110.029 342.89,110.334 342.849,110.078 342.661,110.383 342.613,111.509 
						342.825,112.055 342.604,111.848 342.711,112.14 342.449,111.924 343.462,114.565 343.38,115.115 343.168,115.456 
						343.266,115.73 343.535,115.992 344.254,116.065 349.157,114.36 350.256,114.776 350.281,115.033 350.609,115.378 
						350.7,115.836 351.685,115.024 351.299,115.938 351.644,115.897 351.849,115.775 351.8,116.234 352.071,116.213 
						352.581,117.309 353.707,117.773 354.176,117.464 354.332,117.526 354.398,117.654 354.497,117.57 354.867,117.915 
						355.386,117.393 356.161,117.228 357.529,112.665 					"/>
					<polygon style="fill:#808080;" points="362.843,121.948 362.983,121.762 362.843,121.948 					"/>
					<polygon style="fill:#808080;" points="319.281,66.973 319.956,66.796 319.635,66.539 319.281,66.973 					"/>
					<polygon style="fill:#808080;" points="320.727,64.919 320.792,65.22 320.931,65.082 321.681,65.58 322.625,65.551 
						322.132,65.069 322.003,64.189 323.033,62.581 326.816,60.481 322.335,61.936 321.939,62.761 321.628,62.953 321.488,63.478 
						320.909,63.884 321.027,64.159 320.363,64.688 320.727,64.919 					"/>
					<polygon style="fill:#808080;" points="335.029,56.293 334.542,56.383 335.029,56.293 					"/>
					<polygon style="fill:#808080;" points="353.913,62.683 353.43,62.184 352.816,62.522 353.913,62.683 					"/>
					<polygon style="fill:#808080;" points="353.036,61.902 352.685,62.073 353.036,61.902 					"/>
					<polygon style="fill:#808080;" points="335.884,57.47 335.635,57.843 337.304,58.396 337.716,57.615 336.903,57.191 
						335.884,57.47 					"/>
					<polygon style="fill:#808080;" points="337.564,59.131 339.8,58.472 339.322,58.134 338.79,58.274 338.833,58.053 
						338.616,57.792 338.226,57.963 338.096,58.297 337.824,58.537 337.564,59.131 					"/>
					<polygon style="fill:#808080;" points="351.918,61.448 353.474,61.3 353.441,60.824 354.121,61.255 354.385,60.891 
						354.286,60.539 353.485,60.393 352.959,60.557 352.246,60.201 351.622,61.188 351.918,61.448 					"/>
					<polygon style="fill:#808080;" points="353.781,75.958 353.54,75.474 353.31,79.939 353.551,79.664 353.869,79.962 
						353.551,79.113 353.661,78.436 354.099,78.375 354.22,78.299 353.781,75.958 					"/>
					<polygon style="fill:#808080;" points="342.256,62.027 342.039,62.229 342.702,62.085 342.256,62.027 					"/>
					<polygon style="fill:#808080;" points="355.845,61.384 356.735,61.159 355.197,60.779 354.944,61.069 355.845,61.384 					"/>
					<polygon style="fill:#808080;" points="335.31,57.148 335.224,57.309 334.964,57.464 335.289,57.696 336.729,57.015 
						336.827,56.671 336.404,56.064 335.462,56.583 335.3,56.868 335.31,57.148 					"/>
					<path style="fill:#808080;" d="M370.652,67.88l0.422,0.086l-0.089-0.114l0.083-0.04l0.205,0.019l0.239-0.346l-1.243-0.635
						l-0.488,0.008l0.172,0.186l-0.056,0.267l-0.238-0.11l-0.017-0.425l-0.144-0.217l-5.347-1.758l-0.121,0.268l0.182,0.326
						l-0.094,0.409l-0.878-0.453l0.453-0.241l-0.47-0.201l-0.441,0.401l-2.057,0.02l-0.077,0.389l-0.099-0.396l-0.485-0.188
						l0.066-0.266l-0.606-0.571l-2.278,0.132l-0.099-0.199l-1.077-0.359l-0.039-0.134l0.302-0.169l-1.197-0.183l-0.22,0.411
						l-0.395-0.024l0.291-0.211l-0.417-0.128l0.208-0.117l0.373-0.012l-1.947-0.343l-0.082,0.192l-0.668,0.407l0.296-0.003
						l-0.099,0.224l0.115,0.278l-0.652-0.004l-0.104,0.095v0.165l-0.865-0.279l-0.427,0.173l-0.766-0.233l-0.437,0.76l-0.23-0.072
						l-0.89-0.951l0.415,0.024l-0.235-0.873l-0.252-0.188l-0.628,0.014l-0.748-0.38l-0.36,0.427l-0.005,0.312l-1.837-0.089
						l0.152-0.2l-1.939,0.006l-0.049,0.221l-0.06-0.401l-0.185-0.043l-0.381,0.073l-0.424-0.231l-0.413,0.282l0.223,0.06
						l-1.614,0.625l0.092-0.29l2.049-1.175l0.174-0.225l0.446-0.209l0.169-0.256l-0.163-0.135l0.185-0.079l-0.125-0.387l-0.24-0.041
						l-0.076-0.333l-1.533-0.09l-0.239,0.16l-0.462,0.064l0.266-0.393l-1.037-0.088l0.451-0.21l0.043-0.16l-0.695-0.172
						l-0.483,0.132l-0.656,0.722l0.07,0.174l-0.765,0.183l0.239,0.199l-1.073,0.126l0.103-0.235l-0.347,0.115l-0.244-0.035
						l-0.59,0.19l0.222,0.163l-2.18,0.685l-0.054,0.099l-0.135,0.108l0.097,0.143l-0.314-0.008l0.362,0.256l-0.276,0.027
						l0.277,0.267l-0.039,0.176l-2.107,0.274l-0.119,0.703l0.497,0.282l0.211,0.395l-1.721-0.566l-0.232,0.214l0.351,0.183
						l-0.696,0.174l0.814,0.606l-0.054,0.123l-0.421-0.23l-0.62-0.042l0.065-0.676l-0.157-0.505l-0.189,0.601l-0.437,0.269
						l-0.145,0.26l0.415,0.552l-0.2,1.111l0.28,0.046l0.426-0.116l0.701,0.246l0.135,0.312l-0.167,0.309l0.421,0.303l-0.41-0.024
						l-0.167-0.256l0.091-0.301l-0.415-0.419l-0.561,0.187l0.076,0.569l-0.911,1.114l-1.039-0.036l-0.177-0.171l0.614,0.109
						l0.824-0.838l0.173-0.624l-0.286-0.343l0.076-1.241l-0.296-0.458l0.275-1.016l-1.147-0.17l-1.082,1.624l0.205,0.048
						l-0.188,0.807l0.43,0.169l0.156,0.329l0.221,0.121l-0.226,0.413l-3.552-1.45l0.102,0.336l0.499,0.294l0.167,0.335l-0.113,0.228
						l-0.435,0.238v-0.243l-0.22-0.181l-0.558,0.332l-0.611,0.019l-0.338,0.289l-0.488-0.028l0.257-0.516l-0.493,0.178l-0.07,0.232
						l-0.161-0.104l-1.574,0.707l-0.08,0.432l-0.615,0.109l-0.289-0.3l-0.011-0.26l0.572-0.144l-0.219-0.387l-0.909-0.172
						l0.171,0.436l-0.139,0.458l0.251,0.5l-0.112,0.318l-0.155-0.001l-0.107-0.118l-0.363-0.068l-0.898,0.595l0.171,0.672
						l-0.806-0.103l-0.411-0.266l-0.219,0.236l0.107,0.233l0.352,0.129l0.032,0.247l-0.272,0.056l-0.614-0.29l-0.272-0.524
						l0.037-0.527l-0.976-0.847l2.261,0.676l1.047-0.551l-0.032-0.483l-3.159-1.342l0.266-0.105l-0.24-0.101l-0.474,0.057
						l-0.024-0.019l-0.428,0.009l-0.234-0.198l0.181,0.012l0.485-0.208l-0.186-0.2l-0.464-0.191l-0.367,0.265l0.043-0.231
						l-0.149-0.225l-0.437,0.563l0.006-0.344l-0.575,0.543l0.064-0.261l0.234-0.321l-0.042-0.155l-0.197,0.187l-0.255-0.028
						l-0.064,0.159l-0.33,0.167l-0.122,0.396L310,66.128l0.266-0.376l-0.42,0.115l0.021,0.271l-0.101,0.088l-0.271,0.014
						l0.202,0.199l-0.17-0.019l-0.191-0.127l-0.117,0.082l0.085,0.263l-0.122-0.081l-0.202-0.012l-0.027-0.234l-0.25,0.032
						l-0.101,0.118l-0.032,0.188l-0.117,0.1l-0.372,0.066l-0.186,0.283l0.228-0.025l0.048,0.143l-0.032,0.11l-0.186,0.03
						l-0.159-0.104l-0.196,0.115l0.085-0.34l-1.035,0.917l0.122,0.008l1.05-0.381l-0.032,0.218l-0.101,0.069l-0.144-0.074
						l-0.774,1.126l-0.058,0.303l-0.281,0.062l-0.048,0.652l-0.472,0.14l0.202,0.247l-0.43,0.211l-0.397,0.578l-0.196-0.169
						l-0.043,0.23l-0.54,0.299l0.191,0.157l-0.307,0.015l-0.355,0.342l-0.133,0.046l-0.164,0.185l0.138,0.2l-0.106,0.744
						l0.185,0.061l0.254-0.116l0.064,0.125l-0.186,0.174l-0.143-0.038l-0.122,0.124l-0.026,0.241l0.392-0.017l-0.238,0.296
						l0.376,0.327l0.418,0.115l0.667-0.579l0.249-0.067l0.09-0.297l0.875,2.457l0.281-0.014l0.244-0.38l0.297-0.039l0.207-0.192
						l0.127,0.057l0.201-0.391l-0.127,0.027l0.053-0.863l0.738-0.943l-0.34-0.418l-0.255-0.071l-0.043-0.457l0.648-1.236l0.893-0.72
						l-0.037-0.391l0.138-0.336l0.234-0.218l0.572-0.05l0.29,0.127l0.128,0.31l-1.441,1.586l0.016,1.399l0.946,0.353l1.44-0.372
						l0.172-0.253l-0.172,0.253l0.151-0.065l0.229,0.259l0.314,0.07l-2.124,0.519l-0.218,0.241l0.074,0.258l0.213,0.133l0.074,0.161
						l-0.004,0.007l-0.033,0.405l-0.292,0.165l-0.319-0.414l-0.346,0.19l-0.197,0.717l0.009,0.021l-0.017,0.557l0.056,0.06
						l-0.117,0.226l-0.414,0.029l-0.021,0.097l-0.197,0.12l-0.17-0.248l-1.445,0.601l-0.03-0.049l-0.212-0.127l0.032-0.236
						l-0.721,0.381l-0.578-0.358l-0.164-0.309l0.44,0.024l-0.127-0.249l-0.164-0.02l0.101-0.256l0.228-0.145l-0.17-0.188
						l0.027-0.633l-0.472,0.302l0.016,0.18l-0.207-0.114l-0.18,0.3l0.35,1.532l-0.154,0.167l-0.535,0.021l-0.01,0.086l-0.45,0.065
						l-0.148,0.287l-0.169,0.017l-0.164,0.1l-0.45,0.722l-0.376,0.173l-0.819,0.942l-0.449-0.162l-0.206,0.161l0.047,0.432
						l-0.312-0.01l-0.216-0.114l-0.349,0.051l-0.222,0.198l0.042,0.251l0.787,0.25l0.491,0.835l-0.222,1.226l-2.249-0.154
						l-0.296,0.217l-0.042,2.987l0.749,0.012l0.433,0.458l0.085-0.134l0.987-0.198l0.935-0.985l0.005-0.596l1.016-0.855l0.149-0.344
						l-0.022-0.104l0.296-0.411l0.656,0.146l1.059-0.647l2.471,2.276l0.032,0.765l0.387-0.588l-0.164-0.316l0.345-0.183l0.271,0.012
						l-2.038-1.998l0.006-0.41l0.158-0.236l0.229-0.039l0.127,0.292l0.276,0.126l0.318,0.565l1.203,0.783l0.07-0.194l-0.07,0.194
						l0.087,0.854l0.239,0.341l0.016,0.009l0.191,0.345l0.579,0.215l-0.383,0.046l0.261,0.621l0.335,0.173l-0.064-0.409l0.25-0.018
						l-0.165-0.159l0.128-0.082l0.26-0.043l-0.117-0.329l-0.298,0.019l0.117-0.22l-0.292-0.451l0.186-0.119l0.287,0.041l0.069-0.309
						l0.218,0.073l0.271-0.158l0.452,0.236l0.335-0.244l0.485-0.066l-0.272-0.241l-0.213-0.611l0.362-0.447l0-0.214l0.367-0.564
						l-0.001-0.02l0.48-0.729l0.4-0.077l0.037,0.265l0.587,0.082l-0.48,0.314l0.362,0.178l0.016,0.314l1.12-0.354l-0.363-0.1
						l-0.293-0.325l1.574-0.626l-0.449,0.308l0.139,0.226l-0.507,0.521l1.607,1.205l0.139,0.419l-0.083,0.142l-1.299,0.304
						l-1.286-0.452l-1.881,0.475l-0.181,0.318l-0.756,0.091l-0.074,0.304l0.149,0.111l0.043,0.808l0.415,0.364l0.181,0.056
						l0.224,0.254l0.756-0.266l0.49,0.314l0.373-0.081l0.336-0.25l0.278,0.072l0.277-0.091l-0.391,1.648l0.189,0.086l-0.007-0.003
						l-0.026,0.239l0.026-0.239l-0.182-0.084l-0.383,0.992l-3.196-0.237l-0.01-0.016l-1.032-0.44l-0.802,0.483l0.048,0.53
						l-1.216-0.238l-0.589-0.51l-1.066-0.224l-0.567-0.437l0.281-0.29l0.074-0.905l-0.048-0.144l-3.399,0.22l-1.25,0.766
						l-1.354-0.325l-0.391,0.839l-0.543,0.307l-0.469,0.744v0.619l-2.602,4.036l0.279,1.107l-0.258,1.482l0.153,0.65l-0.046,0.245
						l0.041,0.188l3.088,3.26l1.833-0.235l0.268,0.105l1.862-0.81l0.004,0.004l0.534,0.146l0.53,0.754l0.899-0.171l0.149,0.223
						l0.275,0.061l0.101,0.396l-0.068,0.363l0.004,0.012l-0.087,0.536l-0.061,0.087l0.138,0.202l-0.339,0.434l1.585,3.014
						l-0.058,0.429l0.223,0.852l-0.748,2.522l2.266,7.34l0.34,0.273l2.414-0.55l2.114-2.401l0.187-0.878l-0.144-0.155l1.018-0.806
						l-0.144-1.931l2.124-2.136l-0.678-3.561l4.507-7.422l-0.236-0.134l-2.461,0.491l-0.185-0.23l-0.051,0.069l0.05-0.069
						l-0.194-0.089l0.208-0.192l-3.901-7.809l0.602,1.049l0.219-0.585l3.123,7.011l2.926-1.094l0.348-0.419l0.992-0.317l0.139-0.324
						l0.397-0.081l0.236-0.38l0.23-0.138l0.124-0.554l0.595-0.722l-0.027-0.224l-0.306-0.424l-0.606-0.241l-0.295-0.939
						l-0.434,0.561l-1.115,0.515l-0.077-0.022l-0.15-0.259l-0.035-0.64l-0.241,0.405l-0.026,0.006l-0.943-2.036l0.032-0.069
						l0.664-0.189l0.578,1.004l1.264,0.577l0.585-0.195l0.279,0.533l3.48,0.214l0.242,0.498l0.71,0.531l0.398,0.015l-0.506,0.205
						l0.775,0.693l0.495-0.648l1.724,5.952l0.68-0.651l0.561-2.63l2.063-1.922l0.113-0.428l1.503-0.726l1.012,1.987l-0.054,0.665
						l0.151,0.222l0.357-0.056l0.309-0.42l0.19,0.161l1.491,5.696l1.058,0.761l-0.25-1.373l-1.535-1.987l0.244-1.503l0.309-0.11
						l0.693,0.481l0.099,0.369l0.228,0.038l0.016,0.219l0.293,0.025l0.195,0.197l-0.103,0.362l0.185,0.161l0.516-0.675l0.728-0.325
						l0.288-0.555l-0.087-0.956l-1.195-2.061l0.721-0.862l0.637-0.069l0.18,0.527l0.098-0.179l1.235-0.844l0.996-0.125l1.242-1.218
						V89.4l0.256-0.14l0.703-1.299l-0.496-0.209l0.387-0.223l-0.551-0.482l0.534,0.049l-0.611-1.128l-0.327-0.249l0.349-0.613
						l0.845-0.448l-0.213-0.258l-0.36-0.156l-0.491,0.372l-0.229-0.324l-0.381-0.137l-0.005-0.513l1.515-0.801l-0.305,0.887
						l0.256-0.012l0.682-0.444l0.178-0.03l0.422,0.223l-0.218,0.451l0.065,0.249l0.186,0.1l0.284-0.068l0.087,0.054l0.115,0.216
						l-0.104,1.335l1.065-0.453l0.153-0.181l-0.481-1.283l-0.327-0.337l0.104-0.369l0.645-0.456l0.131-0.505l0.502-0.535v0
						l0.307-0.195l0.426,0.258l2.392-2.809l0.68-2.792l-0.652-0.638l-0.318,0.021l-0.23,0.306l-0.208,0.024l-0.027-0.409l-0.23,0.3
						l-0.044-0.421l-0.421-0.001l0.016-0.306l2.97-2.655l2.531-0.194l0.539,0.193l-0.187,0.275l1.413-0.285l-0.148-0.125
						l-0.028-0.349l1.018-1.127l0.611-0.079l0.248,0.11l0.27-0.125l-0.182,0.392l0.209,0.154l-0.099,0.174l1.069-0.577l0.077-0.408
						l0.64-0.27l-0.006,0.098l-2.656,2.907l-0.347,0.09l-0.468,1.467l0.418,2.53l0.578-0.629l0.083-0.426l0.253-0.197l0.276-0.069
						l-0.033-0.349l0.358-0.39l0.446-0.098l-0.066-0.41l0.265-0.511l0.287-0.026l-0.176-0.271l0.066-0.69l-0.237,0.025l-0.044-0.429
						l0.595-0.908l0.325-0.028l0.143,0.069l0.375-0.41l0.077,0.36l0.348-0.231l0.933-0.106l0.276,0.257l0.155-0.25l2.538-1.512
						l0.742,0.034l-0.011-0.338l-0.808-1.06l-0.315-0.064l0.371-0.128l0.199,0.197l0.426-0.043l0.498-0.298l0.106-0.219
						l-0.067-0.244l0.028-0.204l0.138-0.14l0.2-0.018l-0.05,0.223l0.133,0.279l0.975,0.199l0.266,0.35l0.571,0.248l0.433-0.037
						l-0.167-0.223l0.183,0.044l-0.017-0.616L370.652,67.88L370.652,67.88z"/>
					<polygon style="fill:#808080;" points="327.892,63.457 327.494,63.288 327.332,63.621 327.892,63.457 					"/>
					<polygon style="fill:#808080;" points="330.76,63.561 330.479,63.703 330.76,63.561 					"/>
					<polygon style="fill:#808080;" points="274.077,91.654 273.948,91.773 274.209,92.201 274.077,91.654 					"/>
					<polygon style="fill:#808080;" points="279.819,97.855 280.087,97.812 280.069,97.578 279.81,97.666 279.819,97.855 					"/>
					<polygon style="fill:#808080;" points="340.701,102.106 340.506,102.207 340.701,102.106 					"/>
					<polygon style="fill:#808080;" points="346.298,104.377 346.419,104.253 344.946,104.461 345.546,104.573 346.298,104.377 
											"/>
					<polygon style="fill:#808080;" points="344.107,104.268 343.77,104.322 343.595,104.545 344.129,104.634 344.652,104.454 
						344.107,104.268 					"/>
					<polygon style="fill:#808080;" points="346.86,104.817 346.947,104.708 347.762,104.267 347.215,104.288 346.572,104.65 
						346.397,105.121 346.86,104.817 					"/>
					<polygon style="fill:#808080;" points="348.034,102.134 349.007,102.386 348.755,101.975 348.034,102.134 					"/>
					<polygon style="fill:#808080;" points="345.328,105.053 344.652,104.857 344.979,105.035 345.328,105.053 					"/>
					<polygon style="fill:#808080;" points="347.281,102.172 347.729,102.299 347.281,102.172 					"/>
					<polygon style="fill:#808080;" points="344.597,101.915 344.979,103.239 345.164,102.833 345.121,102.076 345.36,102.243 
						345.546,102.655 345.884,102.698 345.709,101.565 346.266,101.103 345.513,101.361 345.055,100.966 346.92,100.198 
						346.527,100.377 345.6,100.284 345.153,100.5 344.597,101.915 					"/>
					<polygon style="fill:#808080;" points="348.089,100.214 347.838,100.059 348.034,100.961 348.307,100.32 348.089,100.214 					
						"/>
					<polygon style="fill:#808080;" points="336.621,100.388 336.849,100.713 336.621,100.388 					"/>
					<polygon style="fill:#808080;" points="337.152,101.426 337.326,101.655 337.152,101.426 					"/>
					<polygon style="fill:#808080;" points="342.942,104.422 343.378,104.427 343.007,104.177 342.365,104.078 342.735,103.791 
						339.897,103.486 339.724,103.733 339.995,103.789 340.19,104.017 342.942,104.422 					"/>
					<polygon style="fill:#808080;" points="340.908,100.639 341.767,102.16 342.06,102.314 342.55,102.244 343.018,102.48 
						343.551,102.373 344.053,100.813 344.608,100.449 344.14,99.126 344.761,98.675 344.51,98.436 344.183,98.344 343.846,98.033 
						343.276,98.854 343.094,98.951 342.833,98.907 342.507,99.487 341.974,99.679 341.734,100.209 341.147,100.061 
						340.908,100.639 					"/>
					<polygon style="fill:#808080;" points="339.854,102.731 339.908,102.303 340.06,102.203 340.071,101.947 339.767,101.623 
						339.724,101.807 339.865,101.999 339.637,101.93 335.992,98.683 339.333,103.337 339.724,103.343 339.854,102.731 					"/>
					<polygon style="fill:#808080;" points="307.175,84.944 306.74,84.955 306.438,85.125 307.217,85.624 307.461,84.961 
						307.175,84.944 					"/>
					<polygon style="fill:#808080;" points="304.863,83.705 305.144,84.614 305.393,84.433 305.451,83.77 305.123,83.627 
						304.863,83.705 					"/>
				</g>
				<path style="fill:#92E3A9;" d="M265.327,78.897c0,2.353-1.813,4.306-4.045,4.362c-2.229,0.056-4.034-1.8-4.034-4.146
					s1.804-4.299,4.034-4.362C263.515,74.688,265.327,76.544,265.327,78.897z"/>
				<path style="fill:#92E3A9;" d="M271.621,96.373c0,1.088-0.84,1.986-1.876,2.006c-1.035,0.02-1.873-0.844-1.873-1.93
					c0-1.086,0.838-1.984,1.873-2.006C270.78,94.421,271.621,95.285,271.621,96.373z"/>
				<path style="fill:#92E3A9;" d="M317.308,95.071c0,3.946-3.097,7.201-6.907,7.269c-3.8,0.068-6.873-3.06-6.873-6.987
					c0-3.927,3.073-7.181,6.873-7.269C314.211,87.996,317.308,91.124,317.308,95.071z"/>
				<path style="fill:#92E3A9;" d="M330.864,68.422c0,1.686-1.33,3.091-2.97,3.139c-1.637,0.047-2.963-1.279-2.963-2.962
					s1.326-3.088,2.963-3.138C329.534,65.41,330.864,66.735,330.864,68.422z"/>
				<path style="fill:#92E3A9;" d="M338.102,86.135c0,1.932-1.528,3.532-3.411,3.574c-1.88,0.042-3.402-1.487-3.402-3.414
					s1.522-3.528,3.402-3.574C336.574,82.674,338.102,84.203,338.102,86.135z"/>
				<path style="fill:#92E3A9;" d="M352.259,65.852c0,1.65-1.312,3.027-2.929,3.075c-1.615,0.048-2.923-1.249-2.923-2.896
					c0-1.647,1.308-3.023,2.923-3.074C350.947,62.905,352.259,64.202,352.259,65.852z"/>
			</g>
		</g>
	</g>
</g>
<g id="Plants">
	<g>
		<line style="fill:none;stroke:#263238;stroke-miterlimit:10;" x1="456.62" y1="342.75" x2="47.2" y2="313.913"/>
		<line style="fill:none;stroke:#263238;stroke-miterlimit:10;" x1="68.214" y1="315.142" x2="68.214" y2="269.074"/>
		<line style="fill:none;stroke:#263238;stroke-miterlimit:10;" x1="106.911" y1="317.599" x2="106.911" y2="272.759"/>
		<line style="fill:none;stroke:#263238;stroke-miterlimit:10;" x1="151.752" y1="321.285" x2="151.752" y2="275.216"/>
		<line style="fill:none;stroke:#263238;stroke-miterlimit:10;" x1="201.506" y1="324.97" x2="201.506" y2="276.445"/>
		<line style="fill:none;stroke:#263238;stroke-miterlimit:10;" x1="253.103" y1="328.042" x2="253.103" y2="276.445"/>
		<line style="fill:none;stroke:#263238;stroke-miterlimit:10;" x1="304.7" y1="330.499" x2="304.7" y2="281.359"/>
		<line style="fill:none;stroke:#263238;stroke-miterlimit:10;" x1="359.687" y1="337.531" x2="359.687" y2="284.43"/>
		<line style="fill:none;stroke:#263238;stroke-miterlimit:10;" x1="422.022" y1="339.712" x2="422.022" y2="288.73"/>
		<line style="fill:none;stroke:#263238;stroke-miterlimit:10;" x1="456.62" y1="349.931" x2="45.879" y2="319.447"/>
		<g>
			<line style="fill:none;stroke:#263238;stroke-miterlimit:10;" x1="443.734" y1="470.571" x2="456" y2="472"/>
			<line style="fill:none;stroke:#263238;stroke-miterlimit:10;" x1="44" y1="424" x2="430.012" y2="468.972"/>
		</g>
	</g>
	<g>
		<g>
			<ellipse style="fill:#92E3A9;" cx="340.102" cy="470.733" rx="26.548" ry="8.24"/>
			<ellipse style="opacity:0.5;fill:#FFFFFF;" cx="340.102" cy="470.733" rx="26.548" ry="8.24"/>
		</g>
		<g>
			<path style="fill:#FFFFFF;stroke:#263238;stroke-linecap:round;stroke-linejoin:round;stroke-miterlimit:10;" d="
				M318.719,427.067c-2.995,4.832-4.807,11.098-4.807,17.951c0,15.277,8.986,27.661,20.071,27.661
				c11.085,0,20.071-12.384,20.071-27.661c0-6.853-1.812-13.119-4.807-17.951H318.719z"/>
			<path style="fill:#FFFFFF;stroke:#263238;stroke-linecap:round;stroke-linejoin:round;stroke-miterlimit:10;" d="M349.52,427.774
				c0.141,2.47-6.666,4.496-15.206,4.526c-8.539,0.03-15.576-1.947-15.718-4.417c-0.142-2.47,6.666-4.496,15.206-4.526
				C342.342,423.327,349.379,425.305,349.52,427.774z"/>
			<path style="fill:#263238;stroke:#263238;stroke-linecap:round;stroke-linejoin:round;stroke-miterlimit:10;" d="M348.292,429.59
				c-2.558-1.51-7.942-2.545-14.13-2.523c-6.308,0.022-11.662,1.135-13.977,2.71c2.558,1.51,7.942,2.545,14.13,2.523
				C340.623,432.278,345.977,431.165,348.292,429.59z"/>
			<g>
				<g>
					<path style="fill:#92E3A9;" d="M296.738,296.013c0,0,1.865,3.523,0.207,6.838c-1.658,3.315-3.73,6.631-2.487,8.289
						c1.243,1.658,4.973,3.73,4.559,7.253c-0.415,3.523-5.388,10.568-2.279,14.505c3.108,3.937,8.289,3.73,8.496,8.081
						c0.207,4.352-4.973,7.874-3.523,11.811c1.451,3.937,9.946,4.766,9.946,7.46c0,2.694-3.315,5.595-0.622,8.496
						c2.694,2.901,15.727,10.469,17.591,7.361c1.865-3.108,5.617-11.713,3.148-23.918c-0.415-2.051-3.333-2.507-3.748-5.408
						s0.829-8.081-1.243-10.983c-2.072-2.901-8.703-3.937-9.117-6.216c-0.414-2.28,2.487-7.874-0.414-11.397
						c-2.901-3.523-9.739-5.18-9.739-7.46c0-2.279,2.072-5.18-0.829-8.289C303.783,299.328,296.738,296.013,296.738,296.013z"/>
					<path style="fill:none;stroke:#263238;stroke-linecap:round;stroke-linejoin:round;stroke-miterlimit:10;" d="M306.662,320.431
						c4.313,13.026,11.872,30.672,14.941,39.197c3.73,10.361,6.972,17.861,8.63,28.222c0.771,4.816,1.378,22.388,1.807,39.816"/>
					<path style="fill:none;stroke:#263238;stroke-linecap:round;stroke-linejoin:round;stroke-miterlimit:10;" d="M297.774,297.256
						c0,0,3.523,2.901,6.631,15.541c0.2,0.815,0.431,1.676,0.688,2.577"/>
				</g>
			</g>
			<g>
				<g>
					<path style="fill:#92E3A9;" d="M361.511,319.621c0,0-1.493,2.819-0.166,5.473c1.327,2.653,2.985,5.307,1.99,6.633
						c-0.995,1.327-3.98,2.985-3.648,5.804c0.332,2.819,4.312,8.457,1.824,11.608c-2.488,3.151-6.633,2.985-6.799,6.467
						c-0.166,3.483,3.98,6.302,2.819,9.453c-1.161,3.151-7.96,3.814-7.96,5.97s2.653,4.478,0.497,6.799
						c-2.156,2.322-12.586,8.379-14.078,5.891c-1.492-2.487-4.495-9.374-2.519-19.141c0.332-1.642,2.668-2.006,2.999-4.328
						c0.332-2.322-0.663-6.467,0.995-8.789c1.658-2.322,6.965-3.151,7.297-4.975c0.332-1.824-1.99-6.302,0.332-9.121
						c2.322-2.819,7.794-4.146,7.794-5.97c0-1.824-1.658-4.146,0.663-6.633C355.872,322.274,361.511,319.621,361.511,319.621z"/>
					<path style="fill:none;stroke:#263238;stroke-linecap:round;stroke-linejoin:round;stroke-miterlimit:10;" d="M353.568,339.163
						c-3.452,10.425-9.501,24.546-11.958,31.369c-2.985,8.292-5.58,14.294-6.906,22.586c-0.663,4.146-1.176,20.102-1.522,35.021"/>
					<path style="fill:none;stroke:#263238;stroke-linecap:round;stroke-linejoin:round;stroke-miterlimit:10;" d="M360.682,320.616
						c0,0-2.819,2.322-5.307,12.438c-0.16,0.652-0.345,1.341-0.55,2.063"/>
				</g>
			</g>
			<g>
				<g>
					<path style="fill:#92E3A9;" d="M304.486,366.577c0,0,1.247,2.355,0.139,4.572c-1.108,2.217-2.494,4.434-1.663,5.542
						c0.831,1.108,3.325,2.494,3.048,4.849c-0.277,2.355-3.602,7.066-1.524,9.699c2.078,2.633,5.542,2.494,5.681,5.404
						c0.139,2.91-3.325,5.265-2.355,7.897c0.97,2.633,6.65,3.187,6.65,4.988c0,1.801-2.217,3.741-0.416,5.68
						c1.801,1.94,10.515,7,11.762,4.922c1.247-2.078,3.755-7.831,2.105-15.992c-0.277-1.371-2.229-1.676-2.506-3.616
						c-0.277-1.94,0.554-5.404-0.831-7.343c-1.385-1.94-5.819-2.633-6.096-4.157c-0.277-1.524,1.663-5.265-0.277-7.62
						c-1.94-2.355-6.512-3.464-6.512-4.988c0-1.524,1.385-3.464-0.554-5.542C309.197,368.793,304.486,366.577,304.486,366.577z"/>
					<path style="fill:none;stroke:#263238;stroke-linecap:round;stroke-linejoin:round;stroke-miterlimit:10;" d="M311.121,382.903
						c2.884,8.71,7.938,20.508,9.99,26.208c2.494,6.928,4.662,11.943,5.77,18.87"/>
					<path style="fill:none;stroke:#263238;stroke-linecap:round;stroke-linejoin:round;stroke-miterlimit:10;" d="M305.178,367.408
						c0,0,2.355,1.94,4.434,10.391c0.134,0.545,0.288,1.121,0.46,1.723"/>
				</g>
			</g>
			<g>
				<g>
					<path style="fill:#92E3A9;" d="M375.853,363.126c0,0-1.753,2.008-1.181,4.419c0.572,2.412,1.413,4.887,0.35,5.776
						c-1.063,0.889-3.808,1.667-4.077,4.023c-0.269,2.356,1.89,7.703-0.736,9.79c-2.626,2.087-5.966,1.159-6.767,3.96
						c-0.801,2.801,2.032,5.886,0.486,8.227s-7.203,1.58-7.616,3.333c-0.412,1.753,1.302,4.149-0.895,5.625
						c-2.197,1.476-11.838,4.408-12.577,2.099c-0.738-2.309-1.863-8.483,1.611-16.05c0.584-1.272,2.553-1.122,3.267-2.947
						c0.714-1.825,0.697-5.387,2.49-6.958c1.793-1.571,6.267-1.231,6.886-2.651c0.619-1.42-0.414-5.506,2.014-7.355
						c2.427-1.849,7.132-1.882,7.481-3.365c0.349-1.484-0.556-3.689,1.808-5.268C370.76,364.206,375.853,363.126,375.853,363.126z"
						/>
					<path style="fill:none;stroke:#263238;stroke-linecap:round;stroke-linejoin:round;stroke-miterlimit:10;" d="M365.657,377.501
						c-4.801,7.819-12.421,18.147-15.723,23.226c-4.013,6.173-8.827,10.121-9.936,17.049c-0.34,2.123-0.632,6.009-0.874,10.379"/>
					<path style="fill:none;stroke:#263238;stroke-linecap:round;stroke-linejoin:round;stroke-miterlimit:10;" d="M374.988,363.776
						c0,0-2.737,1.349-6.694,9.101c-0.255,0.5-0.537,1.025-0.842,1.572"/>
				</g>
			</g>
		</g>
	</g>
</g>
<g id="Character_2">
	<g>
		<g>
			<ellipse style="fill:#92E3A9;" cx="165.715" cy="478.728" rx="41.285" ry="12.272"/>
			<ellipse style="opacity:0.5;fill:#FFFFFF;" cx="165.715" cy="478.728" rx="41.285" ry="12.272"/>
		</g>
		<g>
			<g>
				<path style="fill:#263238;stroke:#263238;stroke-linecap:round;stroke-linejoin:round;stroke-miterlimit:10;" d="
					M121.911,331.62c0,0,1.708,15.124,2.439,22.93c0.732,7.806,2.683,30.005,2.439,32.688c-0.244,2.683-2.683,30.567-2.683,41.301
					c0,10.733,1.464,25.858,1.464,25.858s-2.439,4.147-1.951,6.342c0.488,2.195,0.976,4.391,0.976,5.611s0.488,2.927,0.488,2.927
					s3.659,2.439,5.855,2.683c2.195,0.244,6.586-1.22,6.586-1.952c0-0.732,1.952-8.05,1.952-10.733c0-2.683,0-1.708,0.732-5.367
					c0.732-3.659,8.538-54.229,9.514-58.864c0.976-4.635,2.439-39.518,2.439-39.518l1.707,3.171c0,0,4.147,37.323,3.903,41.47
					c-0.244,4.147-1.708,20.003-0.976,27.321c0.732,7.318,2.195,25.37,2.195,27.321s-0.488,6.342-0.488,8.05
					c0,1.708-1.464,4.391-0.732,5.611c0.732,1.22,1.464,3.659,1.464,3.659s8.782,1.464,11.221,1.464
					c2.439,0,4.391-2.195,4.391-2.195s0-1.952,0-4.147c0-2.195,0.488-4.147,0.488-6.342c0-2.195,0.244-6.83,0.244-10.245
					c0-3.415,0.732-7.562,0.976-9.758c0.244-2.195,3.659-27.809,4.147-37.323c0.488-9.514,2.683-30.98,2.683-34.395
					c0-3.415-0.244-35.371-0.244-35.371l-0.488-5.854c0,0-25.614,3.415-37.811,1.707c-12.197-1.707-22.198-2.195-22.198-2.195
					L121.911,331.62z"/>
				<g>
					<path style="fill:#FFFFFF;stroke:#263238;stroke-linecap:round;stroke-linejoin:round;stroke-miterlimit:10;" d="
						M138.479,466.133c0,0-0.672,0.672-2.016,1.075c-1.344,0.403-2.151,0.672-3.226-0.807c-1.075-1.479-3.226-3.226-4.974-2.42
						c-1.748,0.807-3.764,2.016-4.167,2.957c-0.403,0.941-0.134,10.754-0.134,12.636c0,1.882,3.629,2.688,7.259,2.823
						c3.629,0.134,6.452-1.882,6.452-1.882s3.092,0.269,4.167-1.075c1.075-1.344,0.538-4.436-0.134-5.511
						c-0.672-1.075-1.21-2.016-2.151-3.898C138.613,468.149,138.479,466.133,138.479,466.133z"/>
					<path style="fill:#92E3A9;stroke:#263238;stroke-linecap:round;stroke-linejoin:round;stroke-miterlimit:10;" d="
						M141.839,479.441c0.352-0.44,0.529-1.069,0.587-1.752c-1.766,0.808-3.856,0.298-4.62,0.407
						c-0.941,0.134-3.092,1.613-7.931,1.344c-2.843-0.158-4.798-0.825-5.932-1.349c0.01,0.656,0.018,1.177,0.018,1.484
						c0,1.882,3.629,2.688,7.259,2.823c3.629,0.134,6.452-1.882,6.452-1.882S140.764,480.785,141.839,479.441z"/>
					
						<line style="fill:none;stroke:#263238;stroke-linecap:round;stroke-linejoin:round;stroke-miterlimit:10;" x1="137.135" y1="480.516" x2="137.672" y2="474.064"/>
					<path style="fill:#92E3A9;stroke:#263238;stroke-linecap:round;stroke-linejoin:round;stroke-miterlimit:10;" d="
						M134.35,467.399c-0.361-0.152-0.719-0.456-1.113-0.997c-1.075-1.479-3.226-3.226-4.974-2.42
						c-1.46,0.674-3.096,1.628-3.833,2.473c0.579,1.661,1.987,4.594,4.774,4.786C131.477,471.398,133.242,469.406,134.35,467.399z"
						/>
				</g>
				<g>
					<path style="fill:#FFFFFF;stroke:#263238;stroke-linecap:round;stroke-linejoin:round;stroke-miterlimit:10;" d="
						M175.042,469.204c0,0-2.016,0.538-3.092-0.134c-1.075-0.672-2.688-4.705-6.318-4.302c-3.629,0.403-5.242,3.764-6.049,4.167
						c-0.806,0.403-0.941,0.538-1.21,0.941c-0.269,0.403-0.403,11.297-0.269,12.372s7.796,2.146,12.501,1.608
						c4.705-0.538,6.318-2.554,6.721-2.823c0.403-0.269,2.151-0.807,2.42-3.226c0.269-2.42-0.538-5.108-1.882-6.049
						c-1.344-0.941-2.42-2.016-2.42-2.016L175.042,469.204z"/>
					<path style="fill:#92E3A9;stroke:#263238;stroke-linecap:round;stroke-linejoin:round;stroke-miterlimit:10;" d="
						M169.799,480.765c-4.894,0.102-9.704-0.915-11.745-1.806c-0.009,1.623,0.006,2.938,0.05,3.29
						c0.134,1.075,7.796,2.146,12.501,1.608c4.705-0.538,6.318-2.554,6.721-2.823c0.403-0.269,2.151-0.806,2.42-3.226
						c0.067-0.6,0.066-1.215,0.009-1.817c-0.195,0.406-0.422,0.848-0.681,1.28C178.268,478.614,176.252,480.63,169.799,480.765z"/>
					
						<line style="fill:none;stroke:#263238;stroke-linecap:round;stroke-linejoin:round;stroke-miterlimit:10;" x1="175.08" y1="476.175" x2="174.297" y2="482.832"/>
					<path style="fill:#92E3A9;stroke:#263238;stroke-linecap:round;stroke-linejoin:round;stroke-miterlimit:10;" d="
						M166.035,472.699c2.416,0.279,5.023-1.626,6.448-3.407c-0.192-0.052-0.374-0.123-0.534-0.223
						c-1.075-0.672-2.688-4.705-6.318-4.302c-3.629,0.403-5.242,3.764-6.049,4.167C159.583,468.936,162.54,472.296,166.035,472.699z
						"/>
				</g>
				
					<line style="fill:none;stroke:#636363;stroke-linecap:round;stroke-linejoin:round;stroke-miterlimit:10;" x1="152.159" y1="355.526" x2="146.304" y2="352.598"/>
			</g>
			<g>
				<path style="fill:#FFFFFF;stroke:#263238;stroke-linecap:round;stroke-linejoin:round;stroke-miterlimit:10;" d="
					M164.544,217.886c0,0,1.464-2.439,1.951,0.732s-0.732,6.586-2.439,7.806c-1.708,1.22-2.439,0-2.439-1.22
					C161.617,223.984,164.544,217.886,164.544,217.886z"/>
				<path style="fill:#FFFFFF;stroke:#263238;stroke-linecap:round;stroke-linejoin:round;stroke-miterlimit:10;" d="
					M136.003,219.106c0,0-2.683-0.732-2.683,2.195c0,2.927,3.903,7.074,5.611,6.098
					C140.638,226.424,136.003,219.106,136.003,219.106z"/>
				<path style="fill:#263238;stroke:#263238;stroke-linecap:round;stroke-linejoin:round;stroke-miterlimit:10;" d="
					M150.152,190.565c0,0-3.814,6.339-7.806,8.05c-5.123,2.195-9.27,8.782-9.026,14.148s8.05,22.93,9.27,23.418
					c1.22,0.488,16.588-0.732,17.076-1.464c0.488-0.732,2.683-8.05,4.635-15.124c1.952-7.074,1.952-10.733,1.952-10.733
					s0.976-2.683,0.976-7.074s-3.171-7.806-3.171-7.806l-2.927,3.659l0.976-8.294c0,0-3.171-0.488-5.854,1.22
					c-2.683,1.708-4.635,4.147-4.635,4.147L150.152,190.565z"/>
			</g>
			<path style="fill:#FFFFFF;stroke:#263238;stroke-linecap:round;stroke-linejoin:round;stroke-miterlimit:10;" d="
				M235.768,197.161c-0.363-1.089-1.452-1.089-2.36-3.449c-0.907-2.36-3.449-1.815-4.175-2.178
				c-0.726-0.363-0.726-0.726-0.363-1.815c0.363-1.089,1.271-4.719-0.363-4.719c-1.634,0-2.904,3.812-3.267,4.719
				c-0.363,0.908-3.267,4.719-3.267,4.719s-1.452,0.363-2.36,0.363c-0.908,0-1.997,1.815-2.178,2.723
				c-0.113,0.567,0.766,2.411,1.441,3.714c0.43,1.59,1.1,3.184,1.1,3.184s0.908,1.27,3.63,0.907
				c2.723-0.363,7.805,3.267,8.531,2.723c0.726-0.545,2.36-3.812,3.086-5.627C235.95,200.61,236.131,198.25,235.768,197.161z"/>
			<g>
				<path style="fill:#FFFFFF;stroke:#263238;stroke-linecap:round;stroke-linejoin:round;stroke-miterlimit:10;" d="
					M118.365,348.867c0,0,3.299,5.035,3.472,6.945c0.174,1.91,0.174,5.556,0.347,6.771c0.174,1.215-0.521,2.084-1.389,2.084
					c-0.868,0-1.389-0.868-1.389-0.868s0.174,1.736,0.521,2.951c0.347,1.215,2.257,2.257,2.083,3.472
					c-0.174,1.215-2.083,1.736-4.688,1.736s-5.729-1.389-7.292-5.035c-1.563-3.646-3.125-14.063-3.125-15.973
					C106.906,349.04,116.628,347.478,118.365,348.867z"/>
				<path style="fill:none;stroke:#263238;stroke-linecap:round;stroke-linejoin:round;stroke-miterlimit:10;" d="M114.719,355.291
					c0,0,0.695,1.563-0.694,3.993c-1.389,2.431-2.083,4.167-2.083,4.688c0,0.521,0.868,2.083,1.563,3.472
					c0.695,1.389,2.952,1.215,3.125,2.431c0.174,1.215-0.347,1.91-0.347,1.91"/>
				<path style="fill:none;stroke:#263238;stroke-linecap:round;stroke-linejoin:round;stroke-miterlimit:10;" d="M116.906,362.716
					c0,0,0.244,2.298,0.938,4.034c0.695,1.736,4.341,2.778,2.952,4.688"/>
				<path style="fill:none;stroke:#263238;stroke-linecap:round;stroke-linejoin:round;stroke-miterlimit:10;" d="M114.719,363.451
					c0,0,0.347,2.257,0.868,3.299c0.521,1.042,3.993,2.083,3.299,4.861"/>
				<path style="fill:none;stroke:#263238;stroke-linecap:round;stroke-linejoin:round;stroke-miterlimit:10;" d="M119.406,363.798
					c0,0-0.347-2.778-0.521-3.82c-0.174-1.042-0.174-2.952-0.174-2.952"/>
			</g>
			<g>
				<path style="fill:#FFFFFF;stroke:#263238;stroke-linecap:round;stroke-linejoin:round;stroke-miterlimit:10;" d="
					M176.359,242.333c0,0-5.854-5.123-15.612-7.074c-9.758-1.952-22.686,1.22-27.809,4.635c-5.123,3.415-5.611,9.27-5.611,9.27
					L176.359,242.333z"/>
				<path style="fill:#FFFFFF;stroke:#263238;stroke-linecap:round;stroke-linejoin:round;stroke-miterlimit:10;" d="
					M216.609,212.572c0,0-0.488-1.951,0-2.927c0.488-0.976,0.732-3.903,1.464-4.635c0.732-0.732,6.098-3.659,10.001-1.952
					s5.855,9.026,6.586,10.733c0.732,1.708-1.464,5.611-2.439,6.098c-0.976,0.488-1.952-2.927-2.927-3.903
					C228.318,215.012,220.024,211.109,216.609,212.572z"/>
				<path style="fill:#92E3A9;stroke:#263238;stroke-linecap:round;stroke-linejoin:round;stroke-miterlimit:10;" d="
					M152.21,241.845c-0.976,0.244-19.515,2.683-27.809,5.123c-8.294,2.439-15.124,5.611-15.368,8.782
					c-0.244,3.171-7.018,62.263-7.262,65.678c-0.244,3.415,2.195,23.174,3.415,23.906c1.22,0.732,6.83,1.22,8.782,0.488
					c1.952-0.732,3.171-2.195,3.171-2.195l0.732-16.344c0,0,0.488,5.611,1.464,5.855c0.976,0.244,16.344,4.879,37.323,3.171
					c20.979-1.707,29.76-4.879,31.468-6.098c1.708-1.22,1.464-4.879,1.464-4.879s0.244-2.683,0.244-5.367
					c0-2.683-7.862-56.652-7.862-56.652s32.2-8.782,34.639-11.709c2.439-2.927,14.148-34.883,14.148-37.323
					c0-2.439-5.367-6.099-9.27-6.342c-3.903-0.244-13.417,19.027-15.612,20.491c-2.196,1.464-23.174,9.758-30.98,11.221
					C167.09,241.113,152.21,241.845,152.21,241.845z"/>
				<path style="fill:none;stroke:#263238;stroke-linecap:round;stroke-linejoin:round;stroke-miterlimit:10;" d="M144.48,258.385
					c0,0,3.305,12.967,12.967,18.306"/>
				<path style="fill:none;stroke:#263238;stroke-linecap:round;stroke-linejoin:round;stroke-miterlimit:10;" d="M158.764,282.451
					c0.727,0.38,1.475,0.75,2.243,1.104"/>
				<path style="fill:none;stroke:#263238;stroke-linecap:round;stroke-linejoin:round;stroke-miterlimit:10;" d="M144.48,271.86
					c0,0,4.12,4.437,10.733,8.557"/>
				<path style="fill:#263238;stroke:#263238;stroke-linecap:round;stroke-linejoin:round;stroke-miterlimit:10;" d="M183.232,273.2
					l-1.262-9.888l-12.043,4.439l4.653,1.906c-2.266,1.993-5.236,4.825-3.404,4.492c1.648-0.3,4.703-1.833,6.939-3.044
					L183.232,273.2z"/>
				<g>
					<path style="fill:#263238;stroke:#263238;stroke-linecap:round;stroke-linejoin:round;stroke-miterlimit:10;" d="
						M115.674,320.208c0-4.391,2.14-49.09,2.14-49.09l-0.732-3.171l-5.416-8.613l2.881,16.709c-2.288-0.711-6.9-1.933-5.155,0.394
						c1.482,1.977,3.919,4.054,5.456,5.277l-1.639,33.053c-0.137,2.762,0.537,5.503,1.939,7.887l1.682,2.861
						C116.263,324.292,115.674,322.481,115.674,320.208z"/>
					<path style="fill:#263238;stroke:#263238;stroke-linecap:round;stroke-linejoin:round;stroke-miterlimit:10;" d="
						M116.831,325.514c0.529,1.138,1.039,1.768,1.039,1.768L116.831,325.514z"/>
				</g>
				<path style="fill:#FFFFFF;stroke:#263238;stroke-linecap:round;stroke-linejoin:round;stroke-miterlimit:10;" d="
					M188.612,324.111c-37.323,16.832-70.742,3.171-70.742,3.171s0.488,5.611,1.464,5.855c0.976,0.244,16.344,4.879,37.323,3.171
					c20.979-1.708,29.76-4.879,31.468-6.098c1.708-1.22,1.464-4.879,1.464-4.879s0.051-0.564,0.106-1.429L188.612,324.111z"/>
				<path style="fill:#FFFFFF;stroke:#263238;stroke-linecap:round;stroke-linejoin:round;stroke-miterlimit:10;" d="
					M102.502,342.894c0,0,5.611,2.439,10.245,0.976c4.635-1.464,5.854-2.927,6.586-2.683c0.732,0.244,0.732,6.099,0,7.806
					c-0.732,1.708-2.439,2.927-7.562,3.415c-5.123,0.488-7.806-1.952-8.294-3.415C102.99,347.529,102.502,342.894,102.502,342.894z"
					/>
			</g>
		</g>
	</g>
</g>
<g id="Character_1">
	<g>
		<g>
			<ellipse style="fill:#92E3A9;" cx="82.32" cy="465.553" rx="36.29" ry="11.263"/>
			<ellipse style="opacity:0.5;fill:#FFFFFF;" cx="82.32" cy="465.553" rx="36.29" ry="11.263"/>
		</g>
		<g>
			<g>
				<path style="fill:#FFFFFF;stroke:#263238;stroke-linecap:round;stroke-linejoin:round;stroke-miterlimit:10;" d="
					M88.054,209.942c0,0,3.027,3.562,2.849,4.986c-0.178,1.425,0.356,3.74,1.069,4.63c0.712,0.89,2.671,1.603,2.671,3.206
					s-1.069,3.027-1.069,3.027s0.712,7.124,0,8.904c-0.712,1.781-3.562,1.781-5.165,1.781s-2.493-0.178-3.028-0.178
					c-0.534,0-3.74-2.849-6.233-9.083c-2.493-6.233,0.356-15.494,2.493-16.74C83.78,209.23,88.054,209.942,88.054,209.942z"/>
				
					<line style="fill:none;stroke:#263238;stroke-linecap:round;stroke-linejoin:round;stroke-miterlimit:10;" x1="86.808" y1="220.805" x2="94.109" y2="216.709"/>
				<path style="fill:none;stroke:#263238;stroke-linecap:round;stroke-linejoin:round;stroke-miterlimit:10;" d="M90.904,215.997
					c0,0,3.918-1.068,2.493,4.63"/>
			</g>
			<path style="fill:#FFFFFF;stroke:#263238;stroke-linecap:round;stroke-linejoin:round;stroke-miterlimit:10;" d="M80.249,241.885
				l-1.104,13.25l-14.078-3.313v-10.49C65.066,241.333,75.004,239.125,80.249,241.885z"/>
			<path style="fill:#FFFFFF;stroke:#263238;stroke-linecap:round;stroke-linejoin:round;stroke-miterlimit:10;" d="M78.801,204.004
				c0,0-3.846,1.099-7.966,0.549c-4.12-0.549-13.186,0.549-15.658,6.593c-2.472,6.044,0.549,11.538,0.275,13.186
				c-0.275,1.648-4.67,4.121-4.67,6.593c0,2.472,1.923,4.67,1.099,6.593c-0.824,1.923-2.198,3.571-1.099,5.494
				c1.099,1.923,5.494-1.373,6.044,0.549c0.549,1.923,4.67,4.395,6.593,4.395c1.923,0,4.121-4.121,5.219-2.472
				c1.099,1.648,3.296,3.296,5.494,3.022c2.198-0.275,3.285-5.348,7.966-3.296c4.606,2.018,6.215-2.24,6.043-6.044
				c-0.161-3.578-4.395-8.516-3.571-11.263c0.824-2.747,2.472-4.67,1.923-7.692s-3.022-4.12-1.648-6.318
				c1.374-2.198,3.297-2.198,3.846-4.945c0.549-2.747-0.549-6.318-4.67-6.868C79.9,201.532,78.801,204.004,78.801,204.004z"/>
			<g>
				<path style="fill:#FFFFFF;stroke:#263238;stroke-linecap:round;stroke-linejoin:round;stroke-miterlimit:10;" d="
					M54.024,344.299c0,0,3.865,22.084,1.932,43.34c-0.775,8.527-4.969,10.766-6.073,22.084c-1.104,11.318,2.761,34.23,0.828,46.376
					c-0.264,1.658-2.208,5.797,0,8.005s9.938,0.828,12.146,0.828c2.208,0,7.453-0.828,8.005-2.208
					c0.552-1.38-3.313-2.76-5.797-7.453c-2.484-4.693-4.417-11.042-4.417-17.391c0-6.349,3.865-24.292,6.901-38.923
					c3.037-14.63,4.693-22.636,4.693-30.917c0-8.281,0-24.568,0-25.949c0-1.38-7.453-4.693-13.25-3.589
					C53.196,339.607,54.024,344.299,54.024,344.299z"/>
				<path style="fill:#263238;stroke:#263238;stroke-linecap:round;stroke-linejoin:round;stroke-miterlimit:10;" d="
					M65.066,455.271c-0.424-0.801-0.824-1.666-1.209-2.555c-0.714,1.52-0.969,3.346-2.38,3.66
					c-2.485,0.552-10.766-0.276-10.766-0.276c-0.276,1.656-2.208,5.797,0,8.005c2.208,2.208,9.938,0.828,12.146,0.828
					c2.208,0,7.453-0.828,8.005-2.208C71.415,461.344,67.551,459.964,65.066,455.271z"/>
				<path style="fill:#92E3A9;stroke:#263238;stroke-linecap:round;stroke-linejoin:round;stroke-miterlimit:10;" d="
					M61.257,444.158c-0.378-2.054-0.608-4.163-0.608-6.278c0-6.349,3.865-24.292,6.901-38.923
					c3.037-14.631,4.693-22.636,4.693-30.917c0-8.281,0-24.568,0-25.949c0-1.38-7.453-4.693-13.25-3.589
					c-5.797,1.104-4.969,5.797-4.969,5.797s3.865,22.084,1.932,43.34c-0.775,8.527-4.969,10.766-6.073,22.084
					c-0.802,8.219,1.015,22.551,1.331,34.436C53.625,444.767,57.119,445.152,61.257,444.158z"/>
				<path style="fill:#FFFFFF;stroke:#263238;stroke-linecap:round;stroke-linejoin:round;stroke-miterlimit:10;" d="
					M50.436,438.984c0,0,4.141,0.828,6.349,0.828c2.208,0,5.245-1.104,5.245-1.104l0.828,7.177c0,0-4.693,1.38-7.729,1.38
					c-3.037,0-4.141-0.552-4.141-0.552S50.436,441.193,50.436,438.984z"/>
			</g>
			<g>
				<path style="fill:#FFFFFF;stroke:#263238;stroke-linecap:round;stroke-linejoin:round;stroke-miterlimit:10;" d="
					M50.988,323.872c0,0-1.656,11.042,0,16.563c1.656,5.521,6.073,13.25,7.177,15.459s2.484,9.11,2.484,10.49
					c0,1.38,1.104,17.667-0.552,25.949c-1.656,8.281-3.589,12.974-3.589,20.98s3.865,37.887,3.865,43.132
					c0,5.245-1.932,11.87-0.552,13.25c1.38,1.38,25.12-1.434,27.329-2.262c2.208-0.828,2.208-3.313,1.38-4.417
					c-0.828-1.104-10.766-4.363-12.422-5.743c-1.656-1.38-2.76-5.797-3.037-7.729c-0.276-1.932,0.552-31.537,1.656-38.163
					c1.104-6.625,5.521-19.599,8.005-26.777c2.485-7.177,6.901-32.574,6.901-41.683c0-9.11-0.828-16.287-0.828-16.287
					S63.134,328.565,50.988,323.872z"/>
				<path style="fill:#263238;stroke:#263238;stroke-linecap:round;stroke-linejoin:round;stroke-miterlimit:10;" d="M87.15,467.431
					c2.208-0.828,2.208-3.313,1.38-4.417c-0.828-1.104-10.766-4.363-12.422-5.743c-0.24-0.2-0.466-0.468-0.682-0.778l-0.699,4.367
					c0,0-2.484,2.208-6.073,2.208c-2.763,0-6.825-1.796-8.552-2.624c-0.477,4.172-1.454,8.356-0.281,9.249
					C65.425,473.959,84.942,468.259,87.15,467.431z"/>
				<path style="fill:#92E3A9;stroke:#263238;stroke-linecap:round;stroke-linejoin:round;stroke-miterlimit:10;" d="
					M73.025,448.511c-0.082-5.279,0.695-31.083,1.703-37.132c1.104-6.625,5.521-19.599,8.006-26.777
					c2.484-7.177,6.901-32.574,6.901-41.683c0-9.11-0.828-16.287-0.828-16.287s-25.673,1.932-37.819-2.76c0,0-1.656,11.042,0,16.563
					c1.656,5.521,6.073,13.25,7.177,15.459s2.484,9.11,2.484,10.49c0,1.38,1.104,17.667-0.552,25.949
					c-1.656,8.281-3.589,12.974-3.589,20.98c0,5.668,1.936,24.12,3.068,34.142c2.721,0.702,6.589,1.536,9.631,1.536
					C70.593,448.99,71.878,448.795,73.025,448.511z"/>
				<path style="fill:#FFFFFF;stroke:#263238;stroke-linecap:round;stroke-linejoin:round;stroke-miterlimit:10;" d="
					M59.545,450.922c0,0,2.485,1.104,5.797,1.104s8.281,0.828,8.005-0.828c-0.276-1.656,0.276-7.177,0.276-7.177
					s-6.073,0.828-9.662,0.276c-3.589-0.552-5.797-0.828-5.797-0.828S58.717,449.266,59.545,450.922z"/>
			</g>
			<path style="fill:#263238;stroke:#263238;stroke-linecap:round;stroke-linejoin:round;stroke-miterlimit:10;" d="M82.181,258.172
				c0,0-3.865-5.521-11.318-7.453c-7.453-1.932-14.63,9.11-16.563,15.183c-1.932,6.073-2.208,22.36-4.969,30.641
				c-2.761,8.281-4.693,24.844-3.589,26.777c1.104,1.932,24.844,8.005,33.126,8.005c8.281,0,17.115-6.625,17.391-9.938
				c0.276-3.313-1.38-25.396-2.76-37.267C92.119,272.251,82.181,258.172,82.181,258.172z"/>
			<path style="fill:#FFFFFF;stroke:#263238;stroke-linecap:round;stroke-linejoin:round;stroke-miterlimit:10;" d="M78.502,349.949
				c0,0-0.094,3.834,0,6.078c0.093,2.244-0.374,4.582-0.842,6.078c-0.467,1.496-1.59,2.525-1.683,1.496s0.374-2.899,0.374-3.74
				c0-0.842-0.281-4.675-0.281-4.675s-0.28,1.964-0.842,4.114c-0.561,2.151-2.151,4.395-2.899,4.582
				c-0.748,0.187-1.216-0.467-0.842-1.496c0.374-1.029,1.309-4.021,1.403-4.675c0.093-0.655,0.093-2.712,0.093-2.712
				s-1.777,5.143-2.525,6.265c-0.748,1.122-0.841,1.683-1.59,1.777c-0.748,0.094-0.655-1.496-0.187-2.712
				c0.468-1.216,1.216-5.143,1.216-5.517c0-0.374-0.842,1.683-1.87,2.805c-1.029,1.122-1.777,2.057-2.244,1.87
				c-0.467-0.187,0.187-1.964,0.561-2.805c0.374-0.842,0.935-2.525,0.935-3.086c0-0.561,0-2.431,0-2.431s-0.842-1.87,3.086-2.525
				C74.294,347.986,77.66,347.238,78.502,349.949z"/>
			<path style="fill:#FFFFFF;stroke:#263238;stroke-linecap:round;stroke-linejoin:round;stroke-miterlimit:10;" d="M64.802,347.336
				c0,0-0.882,2.484,1.176,3.865c2.058,1.38,9.409,2.484,11.761,0.276c2.352-2.208,2.352-4.417,2.352-4.417L64.802,347.336z"/>
			<path style="fill:#263238;stroke:#263238;stroke-linecap:round;stroke-linejoin:round;stroke-miterlimit:10;" d="M66.999,261.485
				c0,0-6.073,9.938-6.073,16.287s-3.313,50.793-3.589,56.314c-0.276,5.521,0.276,9.938,3.589,12.698s16.839,2.76,20.428,1.38
				c3.589-1.38,6.901-7.729,6.901-12.146s-4.141-36.991-4.969-43.34c-0.828-6.349-1.104-23.188-3.589-27.053
				c-2.484-3.865-3.313-4.141-3.313-4.141"/>
			<path style="fill:none;stroke:#636363;stroke-linecap:round;stroke-linejoin:round;stroke-miterlimit:10;" d="M57.925,324.09
				c0,0,1.696-38.474,3-46.318c1.304-7.844,4.532-14.3,4.532-14.3"/>
			<path style="fill:none;stroke:#636363;stroke-linecap:round;stroke-linejoin:round;stroke-miterlimit:10;" d="M78.012,263.83
				c0,0,4.77,9.173,5.022,19.011c0.252,9.838,3.587,41.249,3.587,41.249"/>
			
				<line style="fill:none;stroke:#636363;stroke-linecap:round;stroke-linejoin:round;stroke-miterlimit:10;" x1="81.905" y1="273.355" x2="82.733" y2="267.834"/>
		</g>
	</g>
</g>
</svg>
