<?xml version="1.0" encoding="utf-8"?>
<!-- Generator: Adobe Illustrator 27.5.0, SVG Export Plug-In . SVG Version: 6.00 Build 0)  -->
<svg version="1.1" xmlns="http://www.w3.org/2000/svg" xmlns:xlink="http://www.w3.org/1999/xlink" x="0px" y="0px"
	 viewBox="0 0 500 500" style="enable-background:new 0 0 500 500;" xml:space="preserve">
<g id="Background_Simple">
	<g>
		<path style="fill:#92E3A9;" d="M465.74,377.39c27.811-59.692,29.683-139.224,10.484-202.987
			c-16.53-54.899-53.313-96.77-95.799-121.704c-49.295-28.93-108.051-37.54-160.95-19.282c-13.918,4.804-27.464,9.203-40.583,17.092
			c-53.783,32.341-43.405,112.037-62.275,139.76c-15.876,23.324-46.233,16.446-65.372,34.319
			c-51.643,48.229-51.779,170.137,7.813,208.245C122.277,473.259,396.855,525.236,465.74,377.39z"/>
		<path style="opacity:0.8;fill:#FFFFFF;" d="M465.74,377.39c27.811-59.692,29.683-139.224,10.484-202.987
			c-16.53-54.899-53.313-96.77-95.799-121.704c-49.295-28.93-108.051-37.54-160.95-19.282c-13.918,4.804-27.464,9.203-40.583,17.092
			c-53.783,32.341-43.405,112.037-62.275,139.76c-15.876,23.324-46.233,16.446-65.372,34.319
			c-51.643,48.229-51.779,170.137,7.813,208.245C122.277,473.259,396.855,525.236,465.74,377.39z"/>
	</g>
</g>
<g id="Clouds">
	<g>
		<path style="fill:none;stroke:#263238;stroke-linecap:round;stroke-linejoin:round;stroke-miterlimit:10;" d="M436.266,76.36
			c0,0-11.51-17.648-26.089-25.321s-29.158-1.535-34.529,6.139c-5.371,7.673-1.535,16.881-8.44,18.416
			c-6.906,1.535-11.51-5.371-18.416,0c-6.906,5.371-6.906,13.044-10.742,13.812c-3.837,0.767-9.208-6.906-14.579-0.767
			c-5.371,6.139-9.208,10.743-9.208,10.743s-3.837-4.604-9.208,0.767c-5.371,5.371-5.371,5.371-5.371,5.371h171.88
			c0,0,1.535-14.579-6.906-22.252c-8.441-7.673-13.812,1.535-19.183,0.767C440.103,83.266,436.266,76.36,436.266,76.36z"/>
		<path style="fill:none;stroke:#263238;stroke-linecap:round;stroke-linejoin:round;stroke-miterlimit:10;" d="M451.613,105.518
			c0,0-8.44-26.089-30.693-30.693c-22.252-4.604-22.252,16.114-26.089,19.95c-3.837,3.837-9.208-1.535-15.346,0.767
			c-6.138,2.302-9.975,9.208-9.975,9.208"/>
	</g>
	<g>
		<path style="fill:none;stroke:#263238;stroke-linecap:round;stroke-linejoin:round;stroke-miterlimit:10;" d="M113.752,102.207
			c0,0-7.098-10.884-16.09-15.617c-8.992-4.732-17.983-0.946-21.296,3.786c-3.313,4.732-0.946,10.411-5.206,11.358
			c-4.259,0.947-7.099-3.313-11.358,0c-4.259,3.313-4.259,8.045-6.625,8.518c-2.366,0.473-5.679-4.259-8.992-0.473
			c-3.313,3.786-5.679,6.625-5.679,6.625s-2.366-2.839-5.679,0.473c-3.313,3.313-3.313,3.313-3.313,3.313h106.004
			c0,0,0.946-8.992-4.259-13.724s-8.518,0.947-11.831,0.473C116.118,106.466,113.752,102.207,113.752,102.207z"/>
		<path style="fill:none;stroke:#263238;stroke-linecap:round;stroke-linejoin:round;stroke-miterlimit:10;" d="M123.217,120.19
			c0,0-5.206-16.09-18.929-18.929c-13.724-2.839-13.724,9.938-16.09,12.304s-5.679-0.947-9.465,0.473
			c-3.786,1.42-6.152,5.679-6.152,5.679"/>
	</g>
	<g>
		<path style="fill:none;stroke:#263238;stroke-linecap:round;stroke-linejoin:round;stroke-miterlimit:10;" d="M234.384,349.99
			c0,0-7.098-10.884-16.09-15.617c-8.991-4.732-17.983-0.946-21.296,3.786c-3.313,4.732-0.946,10.411-5.206,11.358
			c-4.259,0.947-7.098-3.313-11.358,0c-4.259,3.313-4.259,8.045-6.625,8.518s-5.679-4.259-8.991-0.473
			c-3.313,3.786-5.679,6.625-5.679,6.625s-2.366-2.839-5.679,0.473c-3.313,3.313-3.313,3.313-3.313,3.313h106.004
			c0,0,0.947-8.991-4.259-13.724c-5.205-4.732-8.518,0.947-11.831,0.473C236.75,354.249,234.384,349.99,234.384,349.99z"/>
		<path style="fill:none;stroke:#263238;stroke-linecap:round;stroke-linejoin:round;stroke-miterlimit:10;" d="M243.848,367.973
			c0,0-5.206-16.09-18.929-18.929c-13.724-2.839-13.724,9.938-16.09,12.304c-2.366,2.366-5.679-0.947-9.465,0.473
			c-3.786,1.42-6.152,5.679-6.152,5.679"/>
	</g>
</g>
<g id="Floor">
	
		<line style="fill:none;stroke:#263238;stroke-linecap:round;stroke-linejoin:round;stroke-miterlimit:10;" x1="14.513" y1="486.69" x2="484.696" y2="486.69"/>
</g>
<g id="Stairs">
	<g>
		<g>
			
				<rect x="102.596" y="149.123" style="fill:#263238;stroke:#263238;stroke-linecap:round;stroke-linejoin:round;stroke-miterlimit:10;" width="60.453" height="337.567"/>
			
				<rect x="105.59" y="149.123" style="fill:#92E3A9;stroke:#263238;stroke-linecap:round;stroke-linejoin:round;stroke-miterlimit:10;" width="60.453" height="337.567"/>
		</g>
		<g>
			<g>
				
					<rect x="87.769" y="147.108" style="fill:#263238;stroke:#263238;stroke-linecap:round;stroke-linejoin:round;stroke-miterlimit:10;" width="215.665" height="20.322"/>
				
					<rect x="166.115" y="147.108" style="fill:#FFFFFF;stroke:#263238;stroke-linecap:round;stroke-linejoin:round;stroke-miterlimit:10;" width="137.318" height="20.322"/>
			</g>
			<g>
				
					<rect x="206.709" y="146.923" style="fill:#263238;stroke:#263238;stroke-linecap:round;stroke-linejoin:round;stroke-miterlimit:10;" width="60.453" height="79.26"/>
				
					<rect x="209.702" y="146.923" style="fill:#92E3A9;stroke:#263238;stroke-linecap:round;stroke-linejoin:round;stroke-miterlimit:10;" width="60.453" height="79.26"/>
			</g>
		</g>
		<g>
			<g>
				
					<rect x="212.704" y="384.888" style="fill:#263238;stroke:#263238;stroke-linecap:round;stroke-linejoin:round;stroke-miterlimit:10;" width="215.665" height="20.322"/>
				
					<rect x="291.05" y="384.888" style="fill:#FFFFFF;stroke:#263238;stroke-linecap:round;stroke-linejoin:round;stroke-miterlimit:10;" width="137.318" height="20.322"/>
			</g>
			
				<rect x="329.629" y="384.888" style="fill:#263238;stroke:#263238;stroke-linecap:round;stroke-linejoin:round;stroke-miterlimit:10;" width="60.452" height="79.26"/>
			
				<rect x="332.622" y="384.888" style="fill:#92E3A9;stroke:#263238;stroke-linecap:round;stroke-linejoin:round;stroke-miterlimit:10;" width="60.452" height="79.26"/>
		</g>
		<g>
			<g>
				
					<rect x="129.414" y="226.368" style="fill:#263238;stroke:#263238;stroke-linecap:round;stroke-linejoin:round;stroke-miterlimit:10;" width="215.665" height="20.322"/>
				
					<rect x="207.76" y="226.368" style="fill:#FFFFFF;stroke:#263238;stroke-linecap:round;stroke-linejoin:round;stroke-miterlimit:10;" width="137.318" height="20.322"/>
			</g>
			
				<rect x="247.683" y="226.368" style="fill:#263238;stroke:#263238;stroke-linecap:round;stroke-linejoin:round;stroke-miterlimit:10;" width="60.452" height="79.26"/>
			
				<rect x="250.676" y="226.368" style="fill:#92E3A9;stroke:#263238;stroke-linecap:round;stroke-linejoin:round;stroke-miterlimit:10;" width="60.452" height="79.26"/>
		</g>
		<g>
			<g>
				
					<rect x="171.059" y="305.628" style="fill:#263238;stroke:#263238;stroke-linecap:round;stroke-linejoin:round;stroke-miterlimit:10;" width="215.665" height="20.322"/>
				
					<rect x="249.405" y="305.628" style="fill:#FFFFFF;stroke:#263238;stroke-linecap:round;stroke-linejoin:round;stroke-miterlimit:10;" width="137.318" height="20.322"/>
			</g>
			
				<rect x="288.656" y="305.628" style="fill:#263238;stroke:#263238;stroke-linecap:round;stroke-linejoin:round;stroke-miterlimit:10;" width="60.452" height="79.26"/>
			
				<rect x="291.649" y="305.628" style="fill:#92E3A9;stroke:#263238;stroke-linecap:round;stroke-linejoin:round;stroke-miterlimit:10;" width="60.452" height="79.26"/>
		</g>
		<g>
			
				<rect x="236.622" y="352.738" transform="matrix(6.123234e-17 -1 1 6.123234e-17 -247.1487 723.3115)" style="fill:#263238;stroke:#263238;stroke-linecap:round;stroke-linejoin:round;stroke-miterlimit:10;" width="2.92" height="264.984"/>
			<g>
				
					<rect x="254.349" y="464.147" style="fill:#263238;stroke:#263238;stroke-linecap:round;stroke-linejoin:round;stroke-miterlimit:10;" width="215.665" height="20.322"/>
				
					<rect x="332.695" y="464.147" style="fill:#FFFFFF;stroke:#263238;stroke-linecap:round;stroke-linejoin:round;stroke-miterlimit:10;" width="137.318" height="20.322"/>
			</g>
			
				<rect x="370.603" y="464.147" style="fill:#263238;stroke:#263238;stroke-linecap:round;stroke-linejoin:round;stroke-miterlimit:10;" width="60.453" height="22.542"/>
			
				<rect x="373.596" y="464.147" style="fill:#92E3A9;stroke:#263238;stroke-linecap:round;stroke-linejoin:round;stroke-miterlimit:10;" width="60.453" height="22.542"/>
		</g>
	</g>
</g>
<g id="Character_5">
	<g>
		<g>
			<g>
				<polygon style="fill:#FFFFFF;stroke:#263238;stroke-linecap:round;stroke-linejoin:round;stroke-miterlimit:10;" points="
					447.625,359.764 451.143,382.221 450.286,401.384 447.184,401.384 445.39,384.214 				"/>
				<polygon style="fill:#263238;stroke:#263238;stroke-linecap:round;stroke-linejoin:round;stroke-miterlimit:10;" points="
					444.549,390.932 420.513,390.932 419.212,456.361 425.039,456.361 432.531,406.624 440.023,456.361 445.85,456.361 				"/>
				<polygon style="fill:#FFFFFF;stroke:#263238;stroke-linecap:round;stroke-linejoin:round;stroke-miterlimit:10;" points="
					436.816,355.527 432.556,356.426 428.296,355.527 417.597,359.764 420.513,390.932 444.6,390.932 447.515,359.764 				"/>
				<polygon style="fill:#263238;stroke:#263238;stroke-linecap:round;stroke-linejoin:round;stroke-miterlimit:10;" points="
					429.901,362 431.64,366.302 430.267,384.862 432.464,388.888 435.026,384.679 432.921,366.485 434.752,362.733 432.364,359.251 
									"/>
				<polygon style="fill:#263238;stroke:#263238;stroke-linecap:round;stroke-linejoin:round;stroke-miterlimit:10;" points="
					436.701,355.527 432.434,360.92 428.434,355.527 428.434,350.668 436.701,350.668 				"/>
				<g>
					<path style="fill:#FFFFFF;stroke:#263238;stroke-linecap:round;stroke-linejoin:round;stroke-miterlimit:10;" d="
						M426.923,345.602c0,0-0.978-1.422-1.244-0.178c-0.267,1.244,1.497,3.466,1.497,3.466L426.923,345.602z"/>
					<path style="fill:#FFFFFF;stroke:#263238;stroke-linecap:round;stroke-linejoin:round;stroke-miterlimit:10;" d="
						M438.081,345.602c0,0,0.978-1.422,1.244-0.178c0.267,1.244-1.497,3.466-1.497,3.466L438.081,345.602z"/>
					<path style="fill:#FFFFFF;stroke:#263238;stroke-linecap:round;stroke-linejoin:round;stroke-miterlimit:10;" d="
						M436.432,353.522l-0.854,1.093c-0.683,0.874-1.73,1.384-2.839,1.384l0,0c-1.021,0-1.994-0.433-2.677-1.192l-1.069-1.187
						c-1.169-1.298-1.816-2.983-1.816-4.729v-5.786c0-2.97,2.407-5.377,5.377-5.377l0,0c2.97,0,5.377,2.408,5.377,5.377v6.065
						C437.93,350.747,437.403,352.279,436.432,353.522z"/>
					<g>
						
							<path style="fill:none;stroke:#263238;stroke-width:0.5;stroke-linecap:round;stroke-linejoin:round;stroke-miterlimit:10;" d="
							M431.133,349.645c0,0-0.372,0.776,0.029,1.097c0.401,0.321,1.478,0.506,2.28,0.266c0.802-0.241,0.354-1.505,0.354-1.505"/>
						
							<path style="fill:none;stroke:#263238;stroke-width:0.5;stroke-linecap:round;stroke-linejoin:round;stroke-miterlimit:10;" d="
							M431.133,352.501c0,0,1.765,0.562,2.808-0.08"/>
						
							<path style="fill:none;stroke:#263238;stroke-width:0.5;stroke-linecap:round;stroke-linejoin:round;stroke-miterlimit:10;" d="
							M431.236,345.853c0,0-1.225-0.648-2.349,0.235"/>
						
							<path style="fill:none;stroke:#263238;stroke-width:0.5;stroke-linecap:round;stroke-linejoin:round;stroke-miterlimit:10;" d="
							M433.413,346.035c0,0,1.043-0.642,2.487,0.321"/>
						<path style="fill:#263238;" d="M430.782,347.57c0,0.329-0.229,0.596-0.511,0.596s-0.511-0.267-0.511-0.596
							c0-0.329,0.229-0.597,0.511-0.597S430.782,347.241,430.782,347.57z"/>
						<path style="fill:#263238;" d="M435.353,347.57c0,0.329-0.229,0.596-0.511,0.596c-0.282,0-0.511-0.267-0.511-0.596
							c0-0.329,0.229-0.597,0.511-0.597C435.124,346.974,435.353,347.241,435.353,347.57z"/>
					</g>
					<path style="fill:#263238;stroke:#263238;stroke-linecap:round;stroke-linejoin:round;stroke-miterlimit:10;" d="
						M437.93,343.105c0-2.97-2.407-5.377-5.377-5.377s-5.377,2.408-5.377,5.377v1.998l0.369,0.499c0,0,0.622,0,0.622-0.444
						c0-0.444,0-2.311,0-2.311s1.244,0.267,4.089,0c2.844-0.267,4.178-1.778,4.178-1.778s-0.445,1.867,0,2.578
						c0.444,0.711,0.978,1.778,0.978,1.778l0.356,1.156l0.163-0.955V343.105z"/>
				</g>
				<polygon style="fill:#FFFFFF;stroke:#263238;stroke-linecap:round;stroke-linejoin:round;stroke-miterlimit:10;" points="
					427.979,354.77 426.842,356.169 428.126,364.13 432.434,360.92 437.115,364.002 437.885,356.169 436.765,355.045 
					432.364,359.251 				"/>
				<path style="fill:#FFFFFF;stroke:#263238;stroke-linecap:round;stroke-linejoin:round;stroke-miterlimit:10;" d="
					M419.212,456.361c0,0-2.471,7.634-2.104,7.757c0.367,0.122,8.318,0,8.318,0l-0.386-7.757H419.212z"/>
				<path style="fill:#FFFFFF;stroke:#263238;stroke-linecap:round;stroke-linejoin:round;stroke-miterlimit:10;" d="
					M445.951,456.361c0,0,2.471,7.634,2.104,7.757c-0.367,0.122-8.318,0-8.318,0l0.387-7.757H445.951z"/>
				<path style="fill:#FFFFFF;stroke:#263238;stroke-linecap:round;stroke-linejoin:round;stroke-miterlimit:10;" d="
					M450.232,401.384l0.445,5.31c0,0-2.125,0.953-2.433,0.953s-0.807-0.807-0.807-0.807l0,0c-0.758,0.051-1.353-0.639-1.192-1.382
					l0.885-4.073H450.232z"/>
			</g>
			<polygon style="fill:#FFFFFF;stroke:#263238;stroke-linecap:round;stroke-linejoin:round;stroke-miterlimit:10;" points="
				417.597,359.764 397.76,393.3 398.598,397.658 418.438,374.437 			"/>
		</g>
		<g>
			<path style="fill:#FFFFFF;stroke:#263238;stroke-linecap:round;stroke-linejoin:round;stroke-miterlimit:10;" d="M395.132,392.72
				c0,0-2.755,3.481-2.611,4.641c0.145,1.16,3.336,5.801,3.481,5.221C396.147,402.002,395.132,392.72,395.132,392.72z"/>
			
				<rect x="395.69" y="353.118" style="fill:#FFFFFF;stroke:#263238;stroke-linecap:round;stroke-linejoin:round;stroke-miterlimit:10;" width="14.877" height="77.845"/>
			<path style="fill:#FFFFFF;stroke:#263238;stroke-linecap:round;stroke-linejoin:round;stroke-miterlimit:10;" d="
				M412.285,326.017l0.128,14.664l-9.06,5.952l-8.861-6.244l0.701-14.902c-5.067,2.844-8.497,8.26-8.497,14.485
				c0,9.172,7.435,16.607,16.607,16.607c9.172,0,16.607-7.435,16.607-16.607C419.909,334.112,416.867,328.973,412.285,326.017z"/>
			<path style="fill:#FFFFFF;stroke:#263238;stroke-linecap:round;stroke-linejoin:round;stroke-miterlimit:10;" d="
				M412.584,458.031l0.031-1.274l-0.202-13.703l-9.06-5.952l-8.861,6.244l0.245,13.702l0.035,1.186
				c-5.067-2.844-8.077-8.245-8.077-14.47c0-9.172,7.435-16.607,16.607-16.607c9.172,0,16.607,7.435,16.607,16.607
				C419.909,449.623,417.166,455.074,412.584,458.031z"/>
			
				<path style="fill:#FFFFFF;stroke:#263238;stroke-width:0.75;stroke-linecap:round;stroke-linejoin:round;stroke-miterlimit:10;" d="
				M403.878,416.778h-1.499c-1.401,0-2.537-1.136-2.537-2.537v-42.67c0-1.401,1.136-2.537,2.537-2.537h1.499
				c1.401,0,2.537,1.136,2.537,2.537v42.67C406.415,415.642,405.279,416.778,403.878,416.778z"/>
		</g>
	</g>
</g>
<g id="Character_4">
	<g>
		<g>
			<polygon style="fill:#FFFFFF;stroke:#263238;stroke-linecap:round;stroke-linejoin:round;stroke-miterlimit:10;" points="
				271.528,281.158 271.305,282.198 269.505,298.667 260.809,296.544 257.573,300.241 272.822,305.78 273.616,302.764 			"/>
			<polygon style="fill:#263238;stroke:#263238;stroke-linecap:round;stroke-linejoin:round;stroke-miterlimit:10;" points="
				296.722,312.013 272.928,312.013 271.639,376.785 277.408,376.785 284.825,327.547 292.241,376.785 298.01,376.785 			"/>
			<polygon style="fill:#FFFFFF;stroke:#263238;stroke-linecap:round;stroke-linejoin:round;stroke-miterlimit:10;" points="
				289.067,276.963 284.85,277.853 280.633,276.963 271.528,281.158 272.928,312.013 296.772,312.013 298.183,281.158 			"/>
			<polygon style="fill:#263238;stroke:#263238;stroke-linecap:round;stroke-linejoin:round;stroke-miterlimit:10;" points="
				282.221,283.372 283.943,287.63 282.584,306.003 284.758,309.99 287.295,305.822 285.211,287.811 287.023,284.097 
				284.659,280.65 			"/>
			<polygon style="fill:#FFFFFF;stroke:#263238;stroke-linecap:round;stroke-linejoin:round;stroke-miterlimit:10;" points="
				280.318,276.214 279.193,277.599 280.465,285.48 284.729,282.302 289.362,285.353 290.125,277.599 289.016,276.486 
				284.659,280.65 			"/>
			<path style="fill:#FFFFFF;stroke:#263238;stroke-linecap:round;stroke-linejoin:round;stroke-miterlimit:10;" d="
				M271.639,376.785c0,0-2.446,7.558-2.083,7.679c0.363,0.121,8.234,0,8.234,0l-0.383-7.679H271.639z"/>
			<path style="fill:#FFFFFF;stroke:#263238;stroke-linecap:round;stroke-linejoin:round;stroke-miterlimit:10;" d="M298.11,376.785
				c0,0,2.446,7.558,2.083,7.679c-0.363,0.121-8.234,0-8.234,0l0.383-7.679H298.11z"/>
			<g>
				<polygon style="fill:#263238;stroke:#263238;stroke-linecap:round;stroke-linejoin:round;stroke-miterlimit:10;" points="
					288.952,276.963 284.729,282.302 280.769,276.963 280.769,272.153 288.952,272.153 				"/>
				<g>
					<path style="fill:#A1A1A1;stroke:#263238;stroke-linecap:round;stroke-linejoin:round;stroke-miterlimit:10;" d="
						M279.273,267.138c0,0-0.968-1.408-1.232-0.176c-0.264,1.232,1.482,3.432,1.482,3.432L279.273,267.138z"/>
					<path style="fill:#A1A1A1;stroke:#263238;stroke-linecap:round;stroke-linejoin:round;stroke-miterlimit:10;" d="
						M290.319,267.138c0,0,0.968-1.408,1.232-0.176s-1.482,3.432-1.482,3.432L290.319,267.138z"/>
					<path style="fill:#A1A1A1;stroke:#263238;stroke-linecap:round;stroke-linejoin:round;stroke-miterlimit:10;" d="
						M288.686,274.978l-0.846,1.082c-0.676,0.865-1.713,1.37-2.81,1.37l0,0c-1.011,0-1.974-0.429-2.65-1.18l-1.059-1.175
						c-1.157-1.285-1.798-2.953-1.798-4.682v-5.728c0-2.94,2.383-5.323,5.323-5.323l0,0c2.94,0,5.323,2.383,5.323,5.323v6.004
						C290.17,272.231,289.648,273.748,288.686,274.978z"/>
					
						<path style="fill:none;stroke:#263238;stroke-width:0.5;stroke-linecap:round;stroke-linejoin:round;stroke-miterlimit:10;" d="
						M283.646,270.915c0,0-0.372,0.776,0.029,1.097c0.401,0.321,1.478,0.506,2.28,0.266c0.802-0.241,0.354-1.505,0.354-1.505"/>
					
						<path style="fill:none;stroke:#263238;stroke-width:0.5;stroke-linecap:round;stroke-linejoin:round;stroke-miterlimit:10;" d="
						M283.646,273.772c0,0,1.765,0.562,2.808-0.08"/>
					
						<path style="fill:none;stroke:#263238;stroke-width:0.5;stroke-linecap:round;stroke-linejoin:round;stroke-miterlimit:10;" d="
						M283.749,267.123c0,0-1.225-0.648-2.349,0.235"/>
					
						<path style="fill:none;stroke:#263238;stroke-width:0.5;stroke-linecap:round;stroke-linejoin:round;stroke-miterlimit:10;" d="
						M285.926,267.306c0,0,1.043-0.642,2.487,0.321"/>
					<path style="fill:#263238;" d="M283.295,268.841c0,0.329-0.229,0.597-0.511,0.597s-0.511-0.267-0.511-0.597
						c0-0.329,0.229-0.597,0.511-0.597S283.295,268.512,283.295,268.841z"/>
					<path style="fill:#263238;" d="M287.865,268.841c0,0.329-0.229,0.597-0.511,0.597c-0.282,0-0.511-0.267-0.511-0.597
						c0-0.329,0.229-0.597,0.511-0.597C287.636,268.244,287.865,268.512,287.865,268.841z"/>
				</g>
			</g>
		</g>
		<g>
			<g>
				<path style="fill:#263238;stroke:#263238;stroke-linecap:round;stroke-linejoin:round;stroke-miterlimit:10;" d="
					M214.812,251.316c-10.852,11.376-10.427,29.395,0.949,40.247c11.376,10.852,29.395,10.427,40.247-0.949
					c10.852-11.376,10.427-29.395-0.949-40.247C243.683,239.515,225.663,239.94,214.812,251.316z M251.421,286.239
					c-8.435,8.843-22.442,9.173-31.285,0.738c-8.843-8.435-9.173-22.442-0.738-31.285c8.435-8.843,22.442-9.173,31.285-0.738
					C259.526,263.389,259.856,277.396,251.421,286.239z"/>
				<path style="fill:#A1A1A1;stroke:#263238;stroke-linecap:round;stroke-linejoin:round;stroke-miterlimit:10;" d="
					M292.17,325.436L292.17,325.436c-2.276,2.386-6.086,2.382-8.357-0.009l-30.444-32.049l4.95-5.189l33.448,28.9
					C294.263,319.245,294.446,323.05,292.17,325.436z"/>
			</g>
			<polygon style="fill:#FFFFFF;stroke:#263238;stroke-linecap:round;stroke-linejoin:round;stroke-miterlimit:10;" points="
				298.183,281.158 295.763,301.443 277.654,312.469 278.643,315.436 300.93,308.763 303.032,305.132 			"/>
			<path style="fill:#A1A1A1;stroke:#263238;stroke-linecap:round;stroke-linejoin:round;stroke-miterlimit:10;" d="
				M277.654,312.469l-2.713-0.659c0,0-2.16,1.672-2.413,2.429c-0.252,0.757,0.379,1.514,0.757,1.514c0,0,1.514,1.767,2.145,1.767
				c0.631,0,3.213-2.084,3.213-2.084L277.654,312.469z"/>
			
				<rect x="254.519" y="295.796" transform="matrix(0.7494 0.6621 -0.6621 0.7494 261.307 -95.5511)" style="fill:#A1A1A1;stroke:#263238;stroke-linecap:round;stroke-linejoin:round;stroke-miterlimit:10;" width="4.737" height="3.289"/>
		</g>
	</g>
</g>
<g id="Character_3">
	<g>
		<g>
			
				<rect x="355.028" y="166.374" style="fill:#FFFFFF;stroke:#263238;stroke-linecap:round;stroke-linejoin:round;stroke-miterlimit:10;" width="61.39" height="69.026"/>
			
				<rect x="355.028" y="166.374" style="fill:#92E3A9;stroke:#263238;stroke-linecap:round;stroke-linejoin:round;stroke-miterlimit:10;" width="61.39" height="4.957"/>
			
				<line style="fill:#FFFFFF;stroke:#263238;stroke-linecap:round;stroke-linejoin:round;stroke-miterlimit:10;" x1="362.519" y1="176.005" x2="376.431" y2="176.005"/>
			
				<line style="fill:#FFFFFF;stroke:#263238;stroke-linecap:round;stroke-linejoin:round;stroke-miterlimit:10;" x1="366.344" y1="179.816" x2="375.31" y2="179.816"/>
			
				<line style="fill:#FFFFFF;stroke:#263238;stroke-linecap:round;stroke-linejoin:round;stroke-miterlimit:10;" x1="362.519" y1="215.233" x2="376.431" y2="215.233"/>
			
				<line style="fill:#FFFFFF;stroke:#263238;stroke-linecap:round;stroke-linejoin:round;stroke-miterlimit:10;" x1="366.344" y1="219.043" x2="375.31" y2="219.043"/>
			
				<line style="fill:#FFFFFF;stroke:#263238;stroke-linecap:round;stroke-linejoin:round;stroke-miterlimit:10;" x1="370.379" y1="222.63" x2="386.966" y2="222.63"/>
			
				<line style="fill:#FFFFFF;stroke:#263238;stroke-linecap:round;stroke-linejoin:round;stroke-miterlimit:10;" x1="370.379" y1="226.216" x2="386.966" y2="226.216"/>
			
				<line style="fill:#FFFFFF;stroke:#263238;stroke-linecap:round;stroke-linejoin:round;stroke-miterlimit:10;" x1="370.379" y1="229.803" x2="386.966" y2="229.803"/>
			<g>
				<g>
					
						<line style="fill:#FFFFFF;stroke:#263238;stroke-linecap:round;stroke-linejoin:round;stroke-miterlimit:10;" x1="405.123" y1="183.851" x2="410.727" y2="183.851"/>
					
						<line style="fill:#FFFFFF;stroke:#263238;stroke-linecap:round;stroke-linejoin:round;stroke-miterlimit:10;" x1="392.794" y1="183.851" x2="401.537" y2="183.851"/>
					
						<line style="fill:#FFFFFF;stroke:#263238;stroke-linecap:round;stroke-linejoin:round;stroke-miterlimit:10;" x1="378.224" y1="183.851" x2="389.208" y2="183.851"/>
					
						<line style="fill:#FFFFFF;stroke:#263238;stroke-linecap:round;stroke-linejoin:round;stroke-miterlimit:10;" x1="373.741" y1="183.851" x2="376.431" y2="183.851"/>
				</g>
				<g>
					
						<line style="fill:#FFFFFF;stroke:#263238;stroke-linecap:round;stroke-linejoin:round;stroke-miterlimit:10;" x1="379.345" y1="187.213" x2="373.741" y2="187.213"/>
					
						<line style="fill:#FFFFFF;stroke:#263238;stroke-linecap:round;stroke-linejoin:round;stroke-miterlimit:10;" x1="391.674" y1="187.213" x2="382.932" y2="187.213"/>
					
						<line style="fill:#FFFFFF;stroke:#263238;stroke-linecap:round;stroke-linejoin:round;stroke-miterlimit:10;" x1="406.244" y1="187.213" x2="395.26" y2="187.213"/>
					
						<line style="fill:#FFFFFF;stroke:#263238;stroke-linecap:round;stroke-linejoin:round;stroke-miterlimit:10;" x1="410.727" y1="187.213" x2="408.037" y2="187.213"/>
				</g>
				<g>
					
						<line style="fill:#FFFFFF;stroke:#263238;stroke-linecap:round;stroke-linejoin:round;stroke-miterlimit:10;" x1="405.123" y1="190.8" x2="410.727" y2="190.8"/>
					
						<line style="fill:#FFFFFF;stroke:#263238;stroke-linecap:round;stroke-linejoin:round;stroke-miterlimit:10;" x1="392.794" y1="190.8" x2="401.537" y2="190.8"/>
					
						<line style="fill:#FFFFFF;stroke:#263238;stroke-linecap:round;stroke-linejoin:round;stroke-miterlimit:10;" x1="378.224" y1="190.8" x2="389.208" y2="190.8"/>
					
						<line style="fill:#FFFFFF;stroke:#263238;stroke-linecap:round;stroke-linejoin:round;stroke-miterlimit:10;" x1="373.741" y1="190.8" x2="376.431" y2="190.8"/>
				</g>
				<g>
					
						<line style="fill:#FFFFFF;stroke:#263238;stroke-linecap:round;stroke-linejoin:round;stroke-miterlimit:10;" x1="379.345" y1="194.162" x2="373.741" y2="194.162"/>
					
						<line style="fill:#FFFFFF;stroke:#263238;stroke-linecap:round;stroke-linejoin:round;stroke-miterlimit:10;" x1="391.674" y1="194.162" x2="382.932" y2="194.162"/>
					
						<line style="fill:#FFFFFF;stroke:#263238;stroke-linecap:round;stroke-linejoin:round;stroke-miterlimit:10;" x1="406.244" y1="194.162" x2="395.26" y2="194.162"/>
					
						<line style="fill:#FFFFFF;stroke:#263238;stroke-linecap:round;stroke-linejoin:round;stroke-miterlimit:10;" x1="410.727" y1="194.162" x2="408.037" y2="194.162"/>
				</g>
			</g>
			<g>
				<g>
					
						<line style="fill:#FFFFFF;stroke:#263238;stroke-linecap:round;stroke-linejoin:round;stroke-miterlimit:10;" x1="405.123" y1="197.3" x2="410.727" y2="197.3"/>
					
						<line style="fill:#FFFFFF;stroke:#263238;stroke-linecap:round;stroke-linejoin:round;stroke-miterlimit:10;" x1="392.794" y1="197.3" x2="401.537" y2="197.3"/>
					
						<line style="fill:#FFFFFF;stroke:#263238;stroke-linecap:round;stroke-linejoin:round;stroke-miterlimit:10;" x1="378.224" y1="197.3" x2="389.208" y2="197.3"/>
					
						<line style="fill:#FFFFFF;stroke:#263238;stroke-linecap:round;stroke-linejoin:round;stroke-miterlimit:10;" x1="373.741" y1="197.3" x2="376.431" y2="197.3"/>
				</g>
				<g>
					
						<line style="fill:#FFFFFF;stroke:#263238;stroke-linecap:round;stroke-linejoin:round;stroke-miterlimit:10;" x1="379.345" y1="200.663" x2="373.741" y2="200.663"/>
					
						<line style="fill:#FFFFFF;stroke:#263238;stroke-linecap:round;stroke-linejoin:round;stroke-miterlimit:10;" x1="391.674" y1="200.663" x2="382.932" y2="200.663"/>
					
						<line style="fill:#FFFFFF;stroke:#263238;stroke-linecap:round;stroke-linejoin:round;stroke-miterlimit:10;" x1="406.244" y1="200.663" x2="395.26" y2="200.663"/>
					
						<line style="fill:#FFFFFF;stroke:#263238;stroke-linecap:round;stroke-linejoin:round;stroke-miterlimit:10;" x1="410.727" y1="200.663" x2="408.037" y2="200.663"/>
				</g>
				<g>
					
						<line style="fill:#FFFFFF;stroke:#263238;stroke-linecap:round;stroke-linejoin:round;stroke-miterlimit:10;" x1="405.123" y1="204.249" x2="410.727" y2="204.249"/>
					
						<line style="fill:#FFFFFF;stroke:#263238;stroke-linecap:round;stroke-linejoin:round;stroke-miterlimit:10;" x1="392.794" y1="204.249" x2="401.537" y2="204.249"/>
					
						<line style="fill:#FFFFFF;stroke:#263238;stroke-linecap:round;stroke-linejoin:round;stroke-miterlimit:10;" x1="378.224" y1="204.249" x2="389.208" y2="204.249"/>
					
						<line style="fill:#FFFFFF;stroke:#263238;stroke-linecap:round;stroke-linejoin:round;stroke-miterlimit:10;" x1="373.741" y1="204.249" x2="376.431" y2="204.249"/>
				</g>
				<g>
					
						<line style="fill:#FFFFFF;stroke:#263238;stroke-linecap:round;stroke-linejoin:round;stroke-miterlimit:10;" x1="379.345" y1="207.611" x2="373.741" y2="207.611"/>
					
						<line style="fill:#FFFFFF;stroke:#263238;stroke-linecap:round;stroke-linejoin:round;stroke-miterlimit:10;" x1="391.674" y1="207.611" x2="382.932" y2="207.611"/>
					
						<line style="fill:#FFFFFF;stroke:#263238;stroke-linecap:round;stroke-linejoin:round;stroke-miterlimit:10;" x1="406.244" y1="207.611" x2="395.26" y2="207.611"/>
					
						<line style="fill:#FFFFFF;stroke:#263238;stroke-linecap:round;stroke-linejoin:round;stroke-miterlimit:10;" x1="410.727" y1="207.611" x2="408.037" y2="207.611"/>
				</g>
			</g>
		</g>
		<g>
			<polygon style="fill:#263238;stroke:#263238;stroke-linecap:round;stroke-linejoin:round;stroke-miterlimit:10;" points="
				356.204,232.615 332.323,232.615 331.029,297.626 336.819,297.626 344.263,248.207 351.707,297.626 357.497,297.626 			"/>
			<polygon style="fill:#FFFFFF;stroke:#263238;stroke-linecap:round;stroke-linejoin:round;stroke-miterlimit:10;" points="
				348.522,197.437 344.289,195.243 340.056,197.437 329.426,201.647 332.323,232.615 356.255,232.615 359.152,201.647 			"/>
			<g>
				<path style="fill:#FFFFFF;stroke:#263238;stroke-linecap:round;stroke-linejoin:round;stroke-miterlimit:10;" d="
					M338.691,187.575c0,0-0.971-1.413-1.236-0.177c-0.265,1.236,1.488,3.444,1.488,3.444L338.691,187.575z"/>
				<path style="fill:#FFFFFF;stroke:#263238;stroke-linecap:round;stroke-linejoin:round;stroke-miterlimit:10;" d="
					M349.778,187.575c0,0,0.971-1.413,1.237-0.177c0.265,1.236-1.488,3.444-1.488,3.444L349.778,187.575z"/>
				<path style="fill:#FFFFFF;stroke:#263238;stroke-linecap:round;stroke-linejoin:round;stroke-miterlimit:10;" d="
					M349.628,185.094c0-2.951-2.392-5.343-5.343-5.343s-5.343,2.392-5.343,5.343v5.749c0,1.433,0.444,2.82,1.25,3.987v2.607
					l3.974-0.598l4.239,0.598v-2.366c0.792-1.162,1.222-2.537,1.222-3.951V185.094z"/>
			</g>
			<path style="fill:#FFFFFF;stroke:#263238;stroke-linecap:round;stroke-linejoin:round;stroke-miterlimit:10;" d="
				M331.029,297.626c0,0-2.455,7.586-2.091,7.707c0.365,0.122,8.264,0,8.264,0l-0.384-7.707H331.029z"/>
			<path style="fill:#FFFFFF;stroke:#263238;stroke-linecap:round;stroke-linejoin:round;stroke-miterlimit:10;" d="
				M357.597,297.626c0,0,2.455,7.586,2.091,7.707c-0.365,0.122-8.265,0-8.265,0l0.384-7.707H357.597z"/>
			<path style="fill:#FFFFFF;stroke:#263238;stroke-linecap:round;stroke-linejoin:round;stroke-miterlimit:10;" d="
				M337.296,198.432l3.001-3.183l7.517-0.087l3.169,3.167C350.984,198.328,341.805,197.908,337.296,198.432z"/>
			<path style="fill:#263238;stroke:#263238;stroke-linecap:round;stroke-linejoin:round;stroke-miterlimit:10;" d="
				M344.286,179.751c-2.951,0-5.343,2.392-5.343,5.343v5.749c0,0.221,0.03,0.437,0.051,0.655l2.168,2.818h6.074l2.393-3.196v-6.026
				C349.628,182.143,347.236,179.751,344.286,179.751z"/>
			<path style="fill:#FFFFFF;stroke:#263238;stroke-linecap:round;stroke-linejoin:round;stroke-miterlimit:10;" d="
				M329.426,201.647c0,0-11.404,18.792-11.748,19.308c-0.344,0.516,10.488,12.674,10.488,12.674l1.042-3.704l-2.755-10.003
				l4.13-4.302L329.426,201.647z"/>
			<polygon style="fill:#FFFFFF;stroke:#263238;stroke-linecap:round;stroke-linejoin:round;stroke-miterlimit:10;" points="
				329.208,229.926 332.997,232.717 331.265,237.395 329.068,237.008 328.997,236.111 328.165,233.629 			"/>
			<polygon style="fill:#FFFFFF;stroke:#263238;stroke-linecap:round;stroke-linejoin:round;stroke-miterlimit:10;" points="
				359.152,201.647 365.289,207.296 372.476,195.164 376.707,196.434 367.405,221.047 357.931,215.19 			"/>
			<polygon style="fill:#FFFFFF;stroke:#263238;stroke-linecap:round;stroke-linejoin:round;stroke-miterlimit:10;" points="
				372.476,195.164 374.168,190.299 378.611,186.068 379.668,187.449 377.788,190.165 379.668,191.628 379.564,194.239 
				376.707,196.434 			"/>
		</g>
		<g>
			<path style="fill:#263238;" d="M396.894,268.856l4.221,0.582l1.015-4.448l-3.916-1.262c0-0.012,0.001-0.024,0.001-0.036
				c0-1.485-0.301-2.899-0.846-4.186l2.949-2.806l-2.845-3.567l-3.283,2.178c-1.156-0.928-2.508-1.623-3.984-2.011l-0.344-3.919
				H385.3l-0.339,3.865c-1.493,0.357-2.864,1.026-4.042,1.934l-3.298-2.188l-2.845,3.567l2.887,2.747
				c-0.582,1.299-0.913,2.734-0.933,4.245l-3.918,1.263l1.015,4.448l4.134-0.57c0.655,1.243,1.545,2.341,2.613,3.236l-1.518,4.016
				l4.111,1.98l2.197-3.696c0.681,0.135,1.386,0.208,2.107,0.208c0.668,0,1.32-0.064,1.954-0.181l2.227,3.747l4.111-1.98
				l-1.511-3.999C395.323,271.151,396.224,270.076,396.894,268.856z M381.652,263.691c0-3.214,2.605-5.819,5.819-5.819
				c3.214,0,5.819,2.605,5.819,5.819c0,3.214-2.605,5.819-5.819,5.819C384.257,269.51,381.652,266.905,381.652,263.691z"/>
			<path style="fill:#263238;" d="M424.06,262.23l4.221,0.582l1.015-4.448l-3.916-1.262c0-0.012,0.001-0.024,0.001-0.036
				c0-1.485-0.301-2.899-0.846-4.186l2.949-2.806l-2.845-3.567l-3.283,2.178c-1.156-0.928-2.508-1.623-3.984-2.011l-0.344-3.919
				h-4.563l-0.339,3.865c-1.493,0.357-2.864,1.026-4.043,1.934l-3.298-2.188l-2.845,3.567l2.887,2.747
				c-0.582,1.299-0.913,2.734-0.933,4.245l-3.918,1.263l1.015,4.448l4.135-0.57c0.655,1.243,1.545,2.341,2.613,3.236l-1.518,4.016
				l4.111,1.98l2.197-3.696c0.681,0.135,1.386,0.208,2.107,0.208c0.668,0,1.32-0.064,1.954-0.18l2.227,3.747l4.111-1.98
				l-1.511-3.999C422.49,264.525,423.39,263.45,424.06,262.23z M408.818,257.065c0-3.214,2.605-5.819,5.819-5.819
				s5.819,2.605,5.819,5.819s-2.605,5.819-5.819,5.819S408.818,260.279,408.818,257.065z"/>
		</g>
	</g>
</g>
<g id="Character_2">
	<g>
		<g>
			<g>
				
					<polyline style="fill:none;stroke:#263238;stroke-width:2;stroke-linecap:round;stroke-linejoin:round;stroke-miterlimit:10;" points="
					316.619,144.985 316.619,225.03 241.59,225.03 				"/>
				
					<line style="fill:none;stroke:#263238;stroke-width:2;stroke-linecap:round;stroke-linejoin:round;stroke-miterlimit:10;" x1="264.094" y1="160.03" x2="264.094" y2="225.03"/>
			</g>
			
				<polyline style="fill:none;stroke:#263238;stroke-width:2;stroke-linecap:round;stroke-linejoin:round;stroke-miterlimit:10;" points="
				297.094,166.868 315.824,189.207 264.113,189.207 247.826,166.868 			"/>
			<polygon style="fill:#A1A1A1;stroke:#263238;stroke-linecap:round;stroke-linejoin:round;stroke-miterlimit:10;" points="
				239.683,174.162 305.456,174.162 329.241,131.308 263.468,131.308 			"/>
			<polygon style="fill:#FFFFFF;stroke:#263238;stroke-linecap:round;stroke-linejoin:round;stroke-miterlimit:10;" points="
				266.94,136.491 251.875,164.3 300.656,164.3 316.208,136.035 			"/>
			<polyline style="fill:#FFFFFF;stroke:#263238;stroke-linecap:round;stroke-linejoin:round;stroke-miterlimit:10;" points="
				255.723,158.362 283.139,158.362 279.021,164.125 			"/>
			<polygon style="fill:#FFFFFF;stroke:#263238;stroke-linecap:round;stroke-linejoin:round;stroke-miterlimit:10;" points="
				239.683,174.162 237.889,171.936 302.738,171.936 305.456,174.162 			"/>
		</g>
		<g>
			<polygon style="fill:#FFFFFF;stroke:#263238;stroke-linecap:round;stroke-linejoin:round;stroke-miterlimit:10;" points="
				205.328,122.174 205.105,123.214 201.86,138.382 195.986,137.43 196.304,141.081 206.622,146.796 207.416,143.78 			"/>
			<polygon style="fill:#FFFFFF;stroke:#263238;stroke-linecap:round;stroke-linejoin:round;stroke-miterlimit:10;" points="
				231.984,122.174 236.785,139.494 241.706,139.494 240.278,143.621 230.752,144.891 			"/>
			<polygon style="fill:#263238;stroke:#263238;stroke-linecap:round;stroke-linejoin:round;stroke-miterlimit:10;" points="
				230.522,153.029 206.728,153.029 205.44,217.801 211.208,217.801 218.625,168.563 226.042,217.801 231.811,217.801 			"/>
			<polygon style="fill:#FFFFFF;stroke:#263238;stroke-linecap:round;stroke-linejoin:round;stroke-miterlimit:10;" points="
				222.868,117.979 218.65,118.869 214.433,117.979 205.328,122.174 206.728,153.029 230.573,153.029 231.984,122.174 			"/>
			<polygon style="fill:#263238;stroke:#263238;stroke-linecap:round;stroke-linejoin:round;stroke-miterlimit:10;" points="
				216.022,124.388 217.743,128.646 216.384,147.019 218.558,151.006 221.095,146.838 219.011,128.827 220.824,125.113 
				218.46,121.666 			"/>
			<polygon style="fill:#FFFFFF;stroke:#263238;stroke-linecap:round;stroke-linejoin:round;stroke-miterlimit:10;" points="
				214.119,117.23 212.994,118.615 214.265,126.496 218.529,123.318 223.163,126.369 223.925,118.615 222.817,117.502 
				218.46,121.666 			"/>
			<path style="fill:#FFFFFF;stroke:#263238;stroke-linecap:round;stroke-linejoin:round;stroke-miterlimit:10;" d="M205.44,217.801
				c0,0-2.446,7.558-2.083,7.679c0.363,0.121,8.234,0,8.234,0l-0.383-7.679H205.44z"/>
			<path style="fill:#FFFFFF;stroke:#263238;stroke-linecap:round;stroke-linejoin:round;stroke-miterlimit:10;" d="M231.91,217.801
				c0,0,2.446,7.558,2.083,7.679c-0.363,0.121-8.234,0-8.234,0l0.383-7.679H231.91z"/>
			<g>
				<polygon style="fill:#263238;stroke:#263238;stroke-linecap:round;stroke-linejoin:round;stroke-miterlimit:10;" points="
					222.753,117.979 218.529,123.318 214.569,117.979 214.569,113.169 222.753,113.169 				"/>
				<g>
					<path style="fill:#A1A1A1;stroke:#263238;stroke-linecap:round;stroke-linejoin:round;stroke-miterlimit:10;" d="
						M213.074,108.154c0,0-0.968-1.408-1.232-0.176c-0.264,1.232,1.482,3.432,1.482,3.432L213.074,108.154z"/>
					<path style="fill:#A1A1A1;stroke:#263238;stroke-linecap:round;stroke-linejoin:round;stroke-miterlimit:10;" d="
						M224.12,108.154c0,0,0.968-1.408,1.232-0.176c0.264,1.232-1.482,3.432-1.482,3.432L224.12,108.154z"/>
					<path style="fill:#A1A1A1;stroke:#263238;stroke-linecap:round;stroke-linejoin:round;stroke-miterlimit:10;" d="
						M222.487,115.994l-0.846,1.082c-0.676,0.865-1.713,1.37-2.81,1.37l0,0c-1.011,0-1.974-0.429-2.65-1.18l-1.058-1.175
						c-1.157-1.285-1.798-2.953-1.798-4.682v-5.728c0-2.94,2.383-5.323,5.323-5.323l0,0c2.94,0,5.323,2.383,5.323,5.323v6.004
						C223.97,113.247,223.448,114.764,222.487,115.994z"/>
					
						<path style="fill:none;stroke:#263238;stroke-width:0.5;stroke-linecap:round;stroke-linejoin:round;stroke-miterlimit:10;" d="
						M215.571,110.702c0,0,0.877,0.697,1.92,0.055"/>
					
						<path style="fill:none;stroke:#263238;stroke-width:0.5;stroke-linecap:round;stroke-linejoin:round;stroke-miterlimit:10;" d="
						M219.953,110.817c0,0,0.703,0.65,1.746,0.009"/>
					
						<path style="fill:none;stroke:#263238;stroke-width:0.5;stroke-linecap:round;stroke-linejoin:round;stroke-miterlimit:10;" d="
						M217.446,112.992c0,0-0.372,0.776,0.029,1.097c0.401,0.321,1.478,0.506,2.28,0.266c0.802-0.241,0.354-1.505,0.354-1.505"/>
					
						<path style="fill:none;stroke:#263238;stroke-width:0.5;stroke-linecap:round;stroke-linejoin:round;stroke-miterlimit:10;" d="
						M217.446,115.64c0,0,1.765,0.562,2.808-0.08"/>
					
						<path style="fill:none;stroke:#263238;stroke-width:0.5;stroke-linecap:round;stroke-linejoin:round;stroke-miterlimit:10;" d="
						M217.549,109.503c0,0-1.225-0.648-2.349,0.235"/>
					
						<path style="fill:none;stroke:#263238;stroke-width:0.5;stroke-linecap:round;stroke-linejoin:round;stroke-miterlimit:10;" d="
						M219.726,109.685c0,0,1.043-0.642,2.487,0.321"/>
				</g>
				<path style="fill:#263238;stroke:#263238;stroke-linecap:round;stroke-linejoin:round;stroke-miterlimit:10;" d="
					M218.647,100.358c-2.94,0-5.323,2.383-5.323,5.323v2.472h0.898v-2.83l2.31-2.068l2.309,0.414l2.31-0.414l2.309,2.068v2.83h0.511
					v-2.472C223.97,102.742,221.587,100.358,218.647,100.358z"/>
			</g>
			<g>
				<path style="fill:#FFFFFF;stroke:#263238;stroke-linecap:round;stroke-linejoin:round;stroke-miterlimit:10;" d="
					M193.985,127.582c0,0,14.189,6.587,22.043,7.854c7.854,1.267,28.884-6.588,28.884-6.588l-5.574,24.83
					c0,0-15.202,2.534-22.55,3.04c-7.348,0.507-21.283-4.561-21.283-4.561S195.252,131.636,193.985,127.582z"/>
				
					<line style="fill:none;stroke:#263238;stroke-width:0.5;stroke-linecap:round;stroke-linejoin:round;stroke-miterlimit:10;" x1="219.117" y1="139.391" x2="218.054" y2="154.277"/>
				<path style="fill:none;stroke:#263238;stroke-width:0.5;stroke-linecap:round;stroke-linejoin:round;stroke-miterlimit:10;" d="
					M241.446,136.999c0,0-3.19,3.721-7.177,8.506"/>
				<path style="fill:none;stroke:#263238;stroke-width:0.5;stroke-linecap:round;stroke-linejoin:round;stroke-miterlimit:10;" d="
					M195.986,137.43c0,0,4.789,3.556,6.915,8.075"/>
			</g>
			<path style="fill:#A1A1A1;stroke:#263238;stroke-linecap:round;stroke-linejoin:round;stroke-miterlimit:10;" d="M243.135,137.43
				c0,0,1.27,0.318,1.27,1.429s-0.159,4.286-1.429,4.762c-1.27,0.476-1.905,0.318-1.587-1.905
				C241.706,139.494,241.071,137.906,243.135,137.43z"/>
			<path style="fill:#A1A1A1;stroke:#263238;stroke-linecap:round;stroke-linejoin:round;stroke-miterlimit:10;" d="M194.557,137.43
				c0,0-1.27,0.318-1.27,1.429s0.159,4.286,1.429,4.762c1.27,0.476,1.905,0.318,1.587-1.905
				C195.986,139.494,196.621,137.906,194.557,137.43z"/>
		</g>
	</g>
</g>
<g id="Character_1">
	<g>
		<g>
			<g>
				<path style="fill:#263238;stroke:#263238;stroke-linecap:round;stroke-linejoin:round;stroke-miterlimit:10;" d="
					M156.676,39.279c0,3.321,2.692,6.013,6.013,6.013c3.321,0,6.013-2.692,6.013-6.013c0-3.321-2.692-6.013-6.013-6.013
					C159.368,33.266,156.676,35.958,156.676,39.279z"/>
				<g>
					<polygon style="fill:#FFFFFF;stroke:#263238;stroke-linecap:round;stroke-linejoin:round;stroke-miterlimit:10;" points="
						173.644,100.658 173.343,111.471 173.049,139.295 168.819,139.295 165.835,111.771 165.084,100.508 					"/>
					<path style="fill:#FFFFFF;stroke:#263238;stroke-linecap:round;stroke-linejoin:round;stroke-miterlimit:10;" d="
						M173.049,139.295c0,0,1.794,7.456,1.528,7.575c-0.266,0.12-6.039,0-6.039,0l0.281-7.575H173.049z"/>
					<path style="fill:#263238;stroke:#263238;stroke-linecap:round;stroke-linejoin:round;stroke-miterlimit:10;" d="
						M174.577,146.87c-0.266,0.119-6.039,0-6.039,0l0.104-2.812h5.492C174.451,145.548,174.686,146.821,174.577,146.87z"/>
				</g>
				<g>
					<polygon style="fill:#FFFFFF;stroke:#263238;stroke-linecap:round;stroke-linejoin:round;stroke-miterlimit:10;" points="
						151.568,100.658 151.869,111.471 152.163,139.295 156.394,139.295 159.377,111.771 160.128,100.508 					"/>
					<path style="fill:#FFFFFF;stroke:#263238;stroke-linecap:round;stroke-linejoin:round;stroke-miterlimit:10;" d="
						M152.163,139.295c0,0-1.794,7.456-1.528,7.575c0.266,0.12,6.039,0,6.039,0l-0.281-7.575H152.163z"/>
					<path style="fill:#263238;stroke:#263238;stroke-linecap:round;stroke-linejoin:round;stroke-miterlimit:10;" d="
						M150.635,146.87c0.266,0.119,6.039,0,6.039,0l-0.104-2.812h-5.492C150.761,145.548,150.526,146.821,150.635,146.87z"/>
				</g>
				<path style="fill:#FFFFFF;stroke:#263238;stroke-linecap:round;stroke-linejoin:round;stroke-miterlimit:10;" d="
					M153.884,62.063l-4.332-14.799l8.993-4.138l4.16-1.429l4.16,1.429l8.982,4.138l-4.311,14.75l0.143,2.43l2.761,7.845
					c0.488,1.386,0.737,2.845,0.737,4.315v7.583l-12.391,3.268l-12.391-3.268v-7.583c0-1.47,0.249-2.929,0.737-4.315l2.761-7.845
					L153.884,62.063z"/>
				<polygon style="fill:#FFFFFF;stroke:#263238;stroke-linecap:round;stroke-linejoin:round;stroke-miterlimit:10;" points="
					157.114,43.785 158.545,43.126 158.681,43.155 158.658,43.126 159.596,36.074 165.997,36.074 166.731,43.126 166.65,43.236 
					167.186,43.274 168.076,43.684 168.933,50.076 156.444,50.076 				"/>
				<g>
					<path style="fill:#A1A1A1;stroke:#263238;stroke-linecap:round;stroke-linejoin:round;stroke-miterlimit:10;" d="
						M168.207,31.126c0,0,0.955-1.389,1.215-0.174c0.26,1.215-1.462,3.385-1.462,3.385L168.207,31.126z"/>
					<path style="fill:#A1A1A1;stroke:#263238;stroke-linecap:round;stroke-linejoin:round;stroke-miterlimit:10;" d="
						M157.31,31.126c0,0-0.955-1.389-1.215-0.174c-0.26,1.215,1.462,3.385,1.462,3.385L157.31,31.126z"/>
					<g>
						<path style="fill:#FFFFFF;stroke:#263238;stroke-linecap:round;stroke-linejoin:round;stroke-miterlimit:10;" d="
							M158.921,38.861l0.834,1.067c0.667,0.853,1.69,1.352,2.773,1.352l0,0c0.997,0,1.947-0.423,2.615-1.164l1.044-1.159
							c1.142-1.268,1.773-2.913,1.773-4.619v-5.65c0-2.9-2.351-5.252-5.251-5.252l0,0c-2.9,0-5.251,2.351-5.251,5.252v5.923
							C157.457,36.151,157.972,37.647,158.921,38.861z"/>
						
							<path style="fill:#FFFFFF;stroke:#263238;stroke-width:0.5;stroke-linecap:round;stroke-linejoin:round;stroke-miterlimit:10;" d="
							M161.125,37.047c0,0,1.555,0.879,2.906,0"/>
						
							<path style="fill:#FFFFFF;stroke:#263238;stroke-width:0.5;stroke-linecap:round;stroke-linejoin:round;stroke-miterlimit:10;" d="
							M163.153,34.411c0,0,0.135,1.217-0.27,1.284c-0.406,0.068-0.879-0.676-0.879-0.676"/>
						
							<path style="fill:#FFFFFF;stroke:#263238;stroke-width:0.5;stroke-linecap:round;stroke-linejoin:round;stroke-miterlimit:10;" d="
							M159.503,33.194c0,0,0.946,0.879,2.231,0.068"/>
						
							<path style="fill:#FFFFFF;stroke:#263238;stroke-width:0.5;stroke-linecap:round;stroke-linejoin:round;stroke-miterlimit:10;" d="
							M163.761,33.194c0,0,0.946,0.879,2.231,0.068"/>
						
							<path style="fill:#FFFFFF;stroke:#263238;stroke-width:0.5;stroke-linecap:round;stroke-linejoin:round;stroke-miterlimit:10;" d="
							M161.869,32.316c0,0-1.352-1.014-3.042-0.27"/>
						
							<path style="fill:#FFFFFF;stroke:#263238;stroke-width:0.5;stroke-linecap:round;stroke-linejoin:round;stroke-miterlimit:10;" d="
							M163.694,32.248c0,0,1.149-0.608,2.636,0.068"/>
					</g>
				</g>
				<path style="fill:#263238;stroke:#263238;stroke-linecap:round;stroke-linejoin:round;stroke-miterlimit:10;" d="
					M162.709,23.436c2.9,0,5.251,2.351,5.251,5.252v2.351c-1.161-0.419-6.209-2.352-8.458-5.05l-2.045,4.792v-2.094
					C157.457,25.787,159.808,23.436,162.709,23.436z"/>
				<path style="fill:#263238;stroke:#263238;stroke-linecap:round;stroke-linejoin:round;stroke-miterlimit:10;" d="
					M150.397,76.605c0-1.47,0.249-2.928,0.737-4.315l2.477-7.039h18.352l2.477,7.039c0.488,1.386,0.737,2.845,0.737,4.315
					l-0.06,25.104h-24.638L150.397,76.605z"/>
				<path style="fill:#FFFFFF;stroke:#263238;stroke-linecap:round;stroke-linejoin:round;stroke-miterlimit:10;" d="
					M179.142,61.352c0,0,0.868,3.845,0.682,4.899c-0.186,1.054-1.24,2.419-2.233,2.357c-0.992-0.062-3.387-4.031-3.387-4.031
					l0.38-2.277L179.142,61.352z"/>
				
					<line style="fill:none;stroke:#263238;stroke-linecap:round;stroke-linejoin:round;stroke-miterlimit:10;" x1="175.917" y1="62.282" x2="178.522" y2="63.646"/>
				<polygon style="fill:#FFFFFF;stroke:#263238;stroke-linecap:round;stroke-linejoin:round;stroke-miterlimit:10;" points="
					175.848,47.265 180.37,61.197 173.097,62.865 172.687,58.166 				"/>
				<path style="fill:#FFFFFF;stroke:#263238;stroke-linecap:round;stroke-linejoin:round;stroke-miterlimit:10;" d="
					M146.024,61.786c0,0-0.62,3.535-0.124,4.527c0.496,0.992,3.039,2.109,4.465,1.923c1.426-0.186,1.97-5.051,1.97-5.051
					L146.024,61.786z"/>
				<polygon style="fill:#FFFFFF;stroke:#263238;stroke-linecap:round;stroke-linejoin:round;stroke-miterlimit:10;" points="
					149.624,47.265 145.796,61.197 153.029,63.185 152.785,58.166 				"/>
			</g>
			<g>
				<path style="fill:#FFFFFF;stroke:#263238;stroke-linecap:round;stroke-linejoin:round;stroke-miterlimit:10;" d="
					M148.442,63.584l10.047-4.652c0,0,2.233-2.667,2.605-2.605c0.372,0.062,4.403,4.279,3.969,4.465
					c-0.434,0.186-0.992,0.496-1.426,0.372c-0.434-0.124-2.171-0.682-2.171-0.682s-1.116,0.868-1.737,1.116
					c-0.62,0.248-1.054,0.186-1.054,0.186s-6.044,5.977-6.788,6.287c-0.744,0.31-3.091,1.388-4.669,0
					c-0.764-0.672-0.883-1.451-0.883-1.451"/>
				
					<rect x="160.203" y="52.112" transform="matrix(-0.9875 -0.1576 0.1576 -0.9875 322.1844 146.2444)" style="fill:#92E3A9;stroke:#263238;stroke-linecap:round;stroke-linejoin:round;stroke-miterlimit:10;" width="13.372" height="16.481"/>
				<polygon style="fill:#FFFFFF;stroke:#263238;stroke-linecap:round;stroke-linejoin:round;stroke-miterlimit:10;" points="
					171.377,51.59 170.881,54.13 164.806,53.132 165.305,50.641 				"/>
			</g>
			<path style="fill:#FFFFFF;stroke:#263238;stroke-linecap:round;stroke-linejoin:round;stroke-miterlimit:10;" d="M175.593,62.328
				c-0.195-1.381-0.534-2.909-0.534-3.017c-0.759-0.285-3.131-0.095-3.416,0.332c-0.285,0.427-0.38,1.803-0.38,1.803l2.128,0.547
				c0.247,0.921,0.629,2.277,0.813,2.584c0.285,0.474,0.854,0.427,1.376-0.047c0.056-0.051,0.094-0.149,0.117-0.284"/>
		</g>
		<g>
			<g>
				
					<rect x="193.955" y="21.334" style="fill:#A1A1A1;stroke:#263238;stroke-linecap:round;stroke-linejoin:round;stroke-miterlimit:10;" width="45.774" height="59.661"/>
				
					<rect x="196.26" y="24.339" style="fill:#FFFFFF;stroke:#263238;stroke-linecap:round;stroke-linejoin:round;stroke-miterlimit:10;" width="41.164" height="53.653"/>
				<path style="fill:#263238;stroke:#263238;stroke-linecap:round;stroke-linejoin:round;stroke-miterlimit:10;" d="M222.83,18.346
					h-1.705v-2.105h-8.566v2.105h-1.706c-1.489,0-2.697,1.207-2.697,2.697v5.221h17.37v-5.221
					C225.527,19.553,224.32,18.346,222.83,18.346z"/>
				
					<rect x="199.47" y="36.881" style="fill:#FFFFFF;stroke:#263238;stroke-linecap:round;stroke-linejoin:round;stroke-miterlimit:10;" width="7.28" height="7.28"/>
				
					<rect x="199.47" y="49.823" style="fill:#FFFFFF;stroke:#263238;stroke-linecap:round;stroke-linejoin:round;stroke-miterlimit:10;" width="7.28" height="7.28"/>
				
					<rect x="199.47" y="62.764" style="fill:#FFFFFF;stroke:#263238;stroke-linecap:round;stroke-linejoin:round;stroke-miterlimit:10;" width="7.28" height="7.28"/>
				
					<line style="fill:none;stroke:#263238;stroke-linecap:round;stroke-linejoin:round;stroke-miterlimit:10;" x1="210.255" y1="40.117" x2="232.633" y2="40.117"/>
				
					<line style="fill:none;stroke:#263238;stroke-linecap:round;stroke-linejoin:round;stroke-miterlimit:10;" x1="210.255" y1="54.137" x2="232.633" y2="54.137"/>
				
					<line style="fill:none;stroke:#263238;stroke-linecap:round;stroke-linejoin:round;stroke-miterlimit:10;" x1="210.255" y1="67.348" x2="232.633" y2="67.348"/>
				<polyline style="fill:#FFFFFF;stroke:#263238;stroke-linecap:round;stroke-linejoin:round;stroke-miterlimit:10;" points="
					201.572,39.051 203.182,41.627 208.98,35.079 				"/>
				<polyline style="fill:#FFFFFF;stroke:#263238;stroke-linecap:round;stroke-linejoin:round;stroke-miterlimit:10;" points="
					201.572,52.141 203.182,54.718 208.98,48.169 				"/>
				<polyline style="fill:#FFFFFF;stroke:#263238;stroke-linecap:round;stroke-linejoin:round;stroke-miterlimit:10;" points="
					201.572,65.232 203.182,67.809 208.98,61.26 				"/>
			</g>
			
				<line style="fill:none;stroke:#263238;stroke-linecap:round;stroke-linejoin:round;stroke-miterlimit:10;" x1="193.183" y1="58.513" x2="180.37" y2="58.513"/>
		</g>
	</g>
</g>
<g id="Plant">
	<g>
		<path style="fill:#263238;" d="M128.826,398.113c-3.568,1.055-11.822-0.167-11.828-0.168c-0.086-0.013,2.457-5.195,2.654-5.505
			c2.292-3.571,8.819-9.125,13.413-7.91c3.31,0.876,4.76,4.479,3.603,7.554C135.488,395.224,131.866,397.214,128.826,398.113z"/>
		<path style="fill:#263238;" d="M51.771,394.659c-0.078,0.037-0.817-5.689-0.822-6.055c-0.059-4.243,2.321-12.476,6.824-13.997
			c3.243-1.095,6.441,1.11,7.172,4.312c0.747,3.271-1.176,6.928-3.215,9.355C59.335,391.122,51.777,394.656,51.771,394.659z"/>
		<path style="fill:#263238;" d="M34.107,379.344c2.49,1.395,8.371,2.001,9.833,2.132c0.728,0.998,1.494,2.074,2.315,3.28
			c1.427,2.134,3.018,4.557,4.571,7.307c0.415,0.732,0.833,1.536,1.251,2.308c-0.975-1.154-2.336-2.72-2.485-2.858
			c-2.741-2.528-9.525-5.803-13.161-3.749c-2.62,1.48-3.054,4.866-1.388,7.223c1.702,2.408,5.223,3.296,8.008,3.385
			c2.905,0.093,8.531-2.153,9.756-2.658c0.901,1.724,1.785,3.516,2.6,5.438c1.41,3.315,2.741,6.924,3.614,10.762
			c-0.121,0.052-0.098,0.042-0.219,0.094c-0.77-1.175-2.444-3.605-2.605-3.79c-2.447-2.814-8.83-6.814-12.671-5.172
			c-2.766,1.183-3.569,4.501-2.173,7.027c1.427,2.581,4.83,3.85,7.588,4.245c3.178,0.455,9.964-1.561,10.219-1.638
			c0.772,3.592,1.292,7.339,1.607,11.175c0.231,2.779,0.351,5.604,0.446,8.44c-0.519-0.839-2.714-4.032-2.898-4.245
			c-2.447-2.814-8.83-6.814-12.671-5.172c-2.767,1.183-3.57,4.501-2.173,7.027c1.427,2.581,4.83,3.85,7.587,4.245
			c3.102,0.444,9.613-1.458,10.161-1.62c0.043,1.288,0.09,2.573,0.121,3.864c0.106,4.214,0.193,8.439,0.408,12.607
			c0.073,1.444,0.2,2.863,0.319,4.287c-0.816-1.234-2.345-3.451-2.498-3.626c-2.448-2.815-8.83-6.814-12.671-5.172
			c-2.767,1.183-3.57,4.501-2.173,7.028c1.426,2.58,4.83,3.849,7.587,4.244c2.77,0.397,8.279-1.084,9.825-1.524
			c0.217,2.366,0.485,4.708,0.859,7.002c0.182,0.986,0.305,2.004,0.534,2.939c0.21,0.948,0.419,1.887,0.625,2.816
			c0.495,1.908,0.948,3.682,1.454,5.445c0.25,0.893,0.506,1.73,0.759,2.595c-0.64-1.374-1.689-3.534-1.807-3.72
			c-1.992-3.152-7.696-8.073-11.741-7.031c-2.914,0.75-4.21,3.908-3.213,6.617c1.02,2.767,4.191,4.537,6.857,5.345
			c2.939,0.891,9.445,0.051,10.241-0.056c0.631,2.113,1.265,4.165,1.894,6.074c0.51,1.56,1.008,3.02,1.497,4.425h2.747
			c-0.613-1.628-1.249-3.366-1.901-5.221c-0.606-1.712-1.219-3.537-1.831-5.419c0.732-0.292,6.391-2.6,8.69-4.755
			c2.349,1.545,5.03,2.861,5.503,3.09c-0.639,2.111-1.242,4.172-1.771,6.111c-0.606,2.203-1.139,4.267-1.617,6.195H82.6
			c0.398-1.752,0.83-3.589,1.328-5.566c0.439-1.763,0.934-3.623,1.462-5.53c0.801,0.166,7.218,1.451,10.208,0.768
			c2.716-0.62,6.002-2.166,7.212-4.855c1.184-2.633,0.11-5.873-2.744-6.824c-3.963-1.32-9.994,3.191-12.202,6.198
			c-0.142,0.193-1.556,2.655-2.25,3.928c0.323-1.151,0.64-2.296,0.997-3.489c0.499-1.72,1.083-3.521,1.638-5.27
			c0.321-0.896,0.646-1.802,0.974-2.716c0.311-0.93,0.721-1.777,1.082-2.683c0.557-1.314,1.199-2.641,1.836-3.968
			c1.72,0.614,6.801,2.327,9.491,2.132c2.779-0.202,6.261-1.232,7.864-3.706c1.569-2.424,0.999-5.789-1.678-7.162
			c-3.717-1.905-10.363,1.641-13,4.278c-0.085,0.086-0.585,0.701-1.171,1.436c0.661-1.276,1.317-2.553,2.031-3.823
			c2.022-3.605,4.195-7.214,6.356-10.84c0.451-0.755,0.889-1.517,1.337-2.274c1.446,0.524,6.933,2.429,9.752,2.224
			c2.778-0.202,6.262-1.231,7.864-3.706c1.57-2.423,1-5.789-1.678-7.161c-3.717-1.905-10.362,1.64-13,4.278
			c-0.094,0.094-0.689,0.831-1.347,1.66c1.146-1.986,2.264-3.982,3.312-5.996c1.837-3.519,3.455-7.086,4.749-10.664
			c0.507,0.19,6.896,2.554,10.03,2.326c2.778-0.202,6.261-1.232,7.864-3.706c1.569-2.424,0.999-5.789-1.679-7.162
			c-3.717-1.905-10.362,1.641-13,4.278c-0.187,0.188-2.319,2.865-3.048,3.848c0.015-0.043,0.036-0.085,0.051-0.128
			c1.324-3.769,2.122-7.531,2.706-11.135c0.587-3.595,0.835-7.031,0.981-10.196c0.154-3.168,0.1-6.075,0.031-8.647
			c-0.048-1.392-0.118-2.665-0.196-3.852c0.013,0.011,0.069,0.056,0.069,0.056c0.061,0.047,1.809-4.716,1.885-5.029
			c0.878-3.625,0.442-11.144-3.12-13.325c-2.567-1.57-5.736-0.304-6.987,2.298c-1.278,2.657-0.342,6.167,0.933,8.643
			c1.306,2.538,5.878,6.287,7.025,7.203c0.056,1.234,0.102,2.553,0.121,4.014c0.013,2.567,0.004,5.466-0.218,8.616
			c-0.057,0.84-0.152,1.741-0.229,2.615c-0.177-1.501-0.448-3.557-0.496-3.754c-0.892-3.621-4.744-10.094-8.91-10.388
			c-3.002-0.211-5.231,2.374-5.143,5.259c0.091,2.947,2.538,5.63,4.811,7.241c2.371,1.681,8.303,2.911,9.604,3.165
			c-0.2,1.935-0.45,3.918-0.832,5.97c-0.652,3.545-1.533,7.288-2.923,10.972c-0.129-0.023-0.105-0.019-0.234-0.042
			c0.006-1.404-0.05-4.357-0.082-4.6c-0.488-3.697-3.605-10.554-7.715-11.303c-2.96-0.54-5.46,1.785-5.689,4.663
			c-0.234,2.939,1.904,5.875,3.986,7.726c2.399,2.132,9.172,4.194,9.427,4.272c-1.337,3.422-2.97,6.834-4.825,10.207
			c-1.34,2.447-2.799,4.868-4.284,7.285c0.03-0.986-0.039-4.86-0.076-5.139c-0.489-3.697-3.606-10.554-7.715-11.303
			c-2.96-0.54-5.46,1.785-5.689,4.662c-0.234,2.94,1.905,5.875,3.987,7.726c2.342,2.082,8.822,4.088,9.369,4.254
			c-0.675,1.097-1.345,2.196-2.031,3.29c-2.237,3.574-4.495,7.145-6.615,10.74c-0.735,1.245-1.413,2.499-2.098,3.752
			c0-1.48-0.052-4.172-0.083-4.403c-0.488-3.698-3.606-10.555-7.715-11.303c-2.961-0.54-5.46,1.785-5.689,4.663
			c-0.233,2.939,1.904,5.875,3.986,7.725c2.091,1.859,7.504,3.663,9.036,4.149c-1.125,2.093-2.193,4.194-3.147,6.314
			c-0.391,0.923-0.851,1.839-1.175,2.746c-0.348,0.907-0.692,1.805-1.033,2.694c-0.64,1.864-1.241,3.595-1.792,5.345
			c-0.285,0.883-0.533,1.722-0.799,2.583c0.224-1.499,0.541-3.88,0.545-4.1c0.077-3.729-1.966-10.979-5.913-12.342
			c-2.845-0.982-5.668,0.936-6.33,3.746c-0.084,0.357-0.131,0.72-0.147,1.085c-1.95,2.698-3.118,6.651-3.239,9.127
			c-0.012,0.238,0.167,3.072,0.29,4.517c-0.366-1.139-0.732-2.268-1.093-3.46c-0.533-1.71-1.039-3.534-1.541-5.299
			c-0.226-0.925-0.455-1.859-0.686-2.802c-0.253-0.948-0.378-1.881-0.578-2.835c-0.26-1.404-0.458-2.864-0.658-4.322
			c1.774-0.437,6.957-1.811,9.093-3.458c2.206-1.701,4.543-4.482,4.515-7.429c-0.027-2.887-2.36-5.38-5.351-5.048
			c-4.152,0.461-7.738,7.085-8.482,10.739c-0.024,0.119-0.101,0.907-0.184,1.843c-0.153-1.428-0.31-2.855-0.416-4.308
			c-0.302-4.122-0.481-8.332-0.679-12.548c-0.041-0.879-0.095-1.756-0.139-2.634c1.494-0.361,7.123-1.798,9.361-3.524
			c2.206-1.702,4.543-4.481,4.515-7.43c-0.028-2.887-2.36-5.379-5.351-5.047c-4.151,0.461-7.738,7.085-8.482,10.739
			c-0.027,0.131-0.116,1.073-0.208,2.127c-0.14-2.289-0.307-4.57-0.544-6.827c-0.41-3.949-1.028-7.817-1.923-11.515
			c0.529-0.122,7.161-1.675,9.649-3.593c2.205-1.701,4.543-4.482,4.514-7.43c-0.028-2.886-2.36-5.379-5.351-5.047
			c-4.151,0.461-7.737,7.085-8.482,10.74c-0.053,0.259-0.353,3.669-0.42,4.891c-0.011-0.044-0.017-0.091-0.028-0.134
			c-0.975-3.875-2.385-7.452-3.886-10.781c-1.493-3.323-3.182-6.325-4.806-9.046c-1.619-2.727-3.268-5.122-4.744-7.229
			c-0.809-1.135-1.569-2.158-2.289-3.105c0.017,0.001,0.088,0.007,0.088,0.007c0.077,0.006-1.092-4.931-1.201-5.234
			c-1.269-3.507-5.78-9.539-9.954-9.393c-3.007,0.106-4.953,2.911-4.561,5.771C28.961,375.57,31.678,377.981,34.107,379.344z"/>
	</g>
</g>
</svg>
