<svg xmlns="http://www.w3.org/2000/svg" xmlns:xlink="http://www.w3.org/1999/xlink" width="60" zoomAndPan="magnify" viewBox="0 0 45 44.999999" height="60" preserveAspectRatio="xMidYMid meet" version="1.0"><defs><clipPath id="ba4fd17cfe"><path d="M 11 1.480469 L 27 1.480469 L 27 7 L 11 7 Z M 11 1.480469 " clip-rule="nonzero"/></clipPath><clipPath id="12fa316007"><path d="M 9 8 L 44 8 L 44 43.480469 L 9 43.480469 Z M 9 8 " clip-rule="nonzero"/></clipPath></defs><path fill="#545454" d="M 24.855469 34.429688 L 7.59375 34.429688 C 7.320312 34.429688 7.097656 34.207031 7.097656 33.9375 L 7.097656 5.050781 C 7.097656 4.929688 7.171875 4.804688 7.246094 4.707031 C 7.347656 4.609375 7.46875 4.558594 7.59375 4.558594 L 11.902344 4.558594 C 12.171875 4.558594 12.394531 4.78125 12.394531 5.050781 L 12.394531 5.988281 L 25.050781 5.988281 L 25.050781 5.050781 C 25.050781 4.78125 25.273438 4.558594 25.542969 4.558594 L 29.828125 4.558594 C 30.097656 4.558594 30.320312 4.78125 30.320312 5.050781 L 30.320312 27.265625 C 30.320312 27.535156 30.097656 27.757812 29.828125 27.757812 C 29.558594 27.757812 29.335938 27.535156 29.335938 27.265625 L 29.335938 5.542969 L 26.035156 5.542969 L 26.035156 6.480469 C 26.035156 6.75 25.816406 6.972656 25.542969 6.972656 L 11.902344 6.972656 C 11.628906 6.972656 11.410156 6.75 11.410156 6.480469 L 11.410156 5.542969 L 8.085938 5.542969 L 8.085938 33.445312 L 24.855469 33.445312 C 25.125 33.445312 25.347656 33.667969 25.347656 33.9375 C 25.347656 34.207031 25.125 34.429688 24.855469 34.429688 Z M 24.855469 34.429688 " fill-opacity="1" fill-rule="evenodd"/><path fill="#545454" d="M 21.703125 37.359375 L 4.835938 37.359375 C 4.5625 37.359375 4.339844 37.136719 4.339844 36.867188 L 4.339844 8.179688 C 4.339844 8.054688 4.390625 7.933594 4.488281 7.835938 C 4.585938 7.734375 4.710938 7.6875 4.835938 7.6875 L 7.59375 7.6875 C 7.886719 7.6875 8.085938 7.910156 8.085938 8.179688 C 8.085938 8.449219 7.886719 8.671875 7.59375 8.671875 L 5.328125 8.671875 L 5.328125 36.375 L 21.703125 36.375 C 21.972656 36.375 22.195312 36.597656 22.195312 36.867188 C 22.195312 37.136719 21.972656 37.359375 21.703125 37.359375 Z M 21.703125 37.359375 " fill-opacity="1" fill-rule="evenodd"/><g clip-path="url(#ba4fd17cfe)"><path fill="#545454" d="M 25.542969 6.972656 L 11.902344 6.972656 C 11.628906 6.972656 11.410156 6.75 11.410156 6.480469 L 11.410156 5.050781 C 11.410156 4.019531 12.246094 3.15625 13.304688 3.15625 L 16.605469 3.15625 C 16.726562 2.21875 17.539062 1.480469 18.5 1.480469 L 18.917969 1.480469 C 19.90625 1.480469 20.71875 2.21875 20.839844 3.15625 L 24.117188 3.15625 C 25.175781 3.15625 26.035156 4.019531 26.035156 5.050781 L 26.035156 6.480469 C 26.035156 6.75 25.816406 6.972656 25.542969 6.972656 Z M 12.394531 5.988281 L 25.050781 5.988281 L 25.050781 5.050781 C 25.050781 4.558594 24.632812 4.140625 24.117188 4.140625 L 20.371094 4.140625 C 20.101562 4.140625 19.878906 3.917969 19.878906 3.648438 L 19.878906 3.402344 C 19.878906 2.886719 19.4375 2.464844 18.917969 2.464844 L 18.5 2.464844 C 17.984375 2.464844 17.566406 2.886719 17.566406 3.402344 L 17.566406 3.648438 C 17.566406 3.917969 17.34375 4.140625 17.074219 4.140625 L 13.304688 4.140625 C 12.789062 4.140625 12.394531 4.558594 12.394531 5.050781 Z M 12.394531 5.988281 " fill-opacity="1" fill-rule="evenodd"/></g><path fill="#545454" d="M 27.21875 14.902344 L 16.0625 14.902344 C 15.792969 14.902344 15.570312 14.679688 15.570312 14.410156 C 15.570312 14.136719 15.792969 13.917969 16.0625 13.917969 L 27.21875 13.917969 C 27.488281 13.917969 27.710938 14.136719 27.710938 14.410156 C 27.710938 14.679688 27.488281 14.902344 27.21875 14.902344 Z M 27.21875 14.902344 " fill-opacity="1" fill-rule="evenodd"/><path fill="#545454" d="M 27.21875 17.019531 L 16.0625 17.019531 C 15.792969 17.019531 15.570312 16.796875 15.570312 16.527344 C 15.570312 16.257812 15.792969 16.035156 16.0625 16.035156 L 27.21875 16.035156 C 27.488281 16.035156 27.710938 16.257812 27.710938 16.527344 C 27.710938 16.796875 27.488281 17.019531 27.21875 17.019531 Z M 27.21875 17.019531 " fill-opacity="1" fill-rule="evenodd"/><path fill="#545454" d="M 11.1875 17.289062 C 11.0625 17.289062 10.941406 17.242188 10.84375 17.167969 L 9.859375 16.207031 C 9.683594 16.035156 9.660156 15.714844 9.859375 15.519531 C 10.054688 15.320312 10.351562 15.320312 10.546875 15.519531 L 11.1875 16.109375 L 13.601562 13.792969 C 13.796875 13.597656 14.09375 13.597656 14.289062 13.792969 C 14.488281 13.992188 14.460938 14.3125 14.289062 14.484375 L 11.53125 17.167969 C 11.433594 17.242188 11.308594 17.289062 11.1875 17.289062 Z M 11.1875 17.289062 " fill-opacity="1" fill-rule="evenodd"/><path fill="#545454" d="M 27.21875 19.875 L 16.0625 19.875 C 15.792969 19.875 15.570312 19.65625 15.570312 19.382812 C 15.570312 19.113281 15.792969 18.890625 16.0625 18.890625 L 27.21875 18.890625 C 27.488281 18.890625 27.710938 19.113281 27.710938 19.382812 C 27.710938 19.65625 27.488281 19.875 27.21875 19.875 Z M 27.21875 19.875 " fill-opacity="1" fill-rule="evenodd"/><path fill="#545454" d="M 27.21875 21.96875 L 16.0625 21.96875 C 15.792969 21.96875 15.570312 21.746094 15.570312 21.476562 C 15.570312 21.207031 15.792969 20.984375 16.0625 20.984375 L 27.21875 20.984375 C 27.488281 20.984375 27.710938 21.207031 27.710938 21.476562 C 27.710938 21.746094 27.488281 21.96875 27.21875 21.96875 Z M 27.21875 21.96875 " fill-opacity="1" fill-rule="evenodd"/><path fill="#545454" d="M 11.1875 22.265625 C 11.0625 22.265625 10.941406 22.214844 10.84375 22.117188 L 9.859375 21.179688 C 9.683594 20.984375 9.660156 20.664062 9.859375 20.46875 C 10.054688 20.292969 10.351562 20.269531 10.546875 20.46875 L 11.1875 21.082031 L 13.601562 18.742188 C 13.796875 18.546875 14.09375 18.570312 14.289062 18.769531 C 14.488281 18.964844 14.460938 19.261719 14.289062 19.457031 L 11.53125 22.117188 C 11.433594 22.214844 11.308594 22.265625 11.1875 22.265625 Z M 11.1875 22.265625 " fill-opacity="1" fill-rule="evenodd"/><path fill="#545454" d="M 27.21875 24.824219 L 16.0625 24.824219 C 15.792969 24.824219 15.570312 24.605469 15.570312 24.332031 C 15.570312 24.0625 15.792969 23.839844 16.0625 23.839844 L 27.21875 23.839844 C 27.488281 23.839844 27.710938 24.0625 27.710938 24.332031 C 27.710938 24.605469 27.488281 24.824219 27.21875 24.824219 Z M 27.21875 24.824219 " fill-opacity="1" fill-rule="evenodd"/><path fill="#545454" d="M 27.21875 26.945312 L 16.0625 26.945312 C 15.792969 26.945312 15.570312 26.722656 15.570312 26.449219 C 15.570312 26.179688 15.792969 25.957031 16.0625 25.957031 L 27.21875 25.957031 C 27.488281 25.957031 27.710938 26.179688 27.710938 26.449219 C 27.710938 26.722656 27.488281 26.945312 27.21875 26.945312 Z M 27.21875 26.945312 " fill-opacity="1" fill-rule="evenodd"/><path fill="#545454" d="M 11.1875 27.214844 C 11.0625 27.214844 10.941406 27.164062 10.84375 27.066406 L 9.859375 26.132812 C 9.683594 25.957031 9.660156 25.636719 9.859375 25.441406 C 10.054688 25.246094 10.351562 25.246094 10.546875 25.417969 L 11.1875 26.03125 L 13.601562 23.71875 C 13.796875 23.519531 14.09375 23.519531 14.289062 23.71875 C 14.488281 23.914062 14.460938 24.234375 14.289062 24.40625 L 11.53125 27.066406 C 11.433594 27.164062 11.308594 27.214844 11.1875 27.214844 Z M 11.1875 27.214844 " fill-opacity="1" fill-rule="evenodd"/><path fill="#545454" d="M 25.59375 29.800781 L 16.0625 29.800781 C 15.792969 29.800781 15.570312 29.578125 15.570312 29.308594 C 15.570312 29.035156 15.792969 28.816406 16.0625 28.816406 L 25.59375 28.816406 C 25.863281 28.816406 26.085938 29.035156 26.085938 29.308594 C 26.085938 29.578125 25.863281 29.800781 25.59375 29.800781 Z M 25.59375 29.800781 " fill-opacity="1" fill-rule="evenodd"/><path fill="#545454" d="M 21.652344 31.894531 L 16.0625 31.894531 C 15.792969 31.894531 15.570312 31.671875 15.570312 31.402344 C 15.570312 31.128906 15.792969 30.910156 16.0625 30.910156 L 21.652344 30.910156 C 21.925781 30.910156 22.144531 31.128906 22.144531 31.402344 C 22.144531 31.671875 21.925781 31.894531 21.652344 31.894531 Z M 21.652344 31.894531 " fill-opacity="1" fill-rule="evenodd"/><path fill="#545454" d="M 11.1875 32.1875 C 11.0625 32.1875 10.941406 32.140625 10.84375 32.042969 L 9.859375 31.105469 C 9.683594 30.910156 9.660156 30.589844 9.859375 30.390625 C 10.054688 30.195312 10.351562 30.195312 10.546875 30.390625 L 11.1875 31.007812 L 13.601562 28.667969 C 13.796875 28.46875 14.09375 28.496094 14.289062 28.691406 C 14.488281 28.863281 14.460938 29.183594 14.289062 29.382812 L 11.53125 32.042969 C 11.433594 32.140625 11.308594 32.1875 11.1875 32.1875 Z M 11.1875 32.1875 " fill-opacity="1" fill-rule="evenodd"/><path fill="#545454" d="M 41.527344 41.914062 C 41.253906 41.914062 41.03125 41.695312 41.03125 41.421875 L 41.03125 38.589844 C 41.03125 38.320312 41.253906 38.097656 41.527344 38.097656 C 41.796875 38.097656 42.019531 38.320312 42.019531 38.589844 L 42.019531 41.421875 C 42.019531 41.695312 41.796875 41.914062 41.527344 41.914062 Z M 41.527344 41.914062 " fill-opacity="1" fill-rule="evenodd"/><path fill="#545454" d="M 41.527344 39.082031 C 40.394531 39.082031 39.457031 38.171875 39.457031 37.015625 C 39.457031 35.882812 40.394531 34.945312 41.527344 34.945312 C 42.683594 34.945312 43.617188 35.882812 43.617188 37.015625 C 43.617188 38.171875 42.683594 39.082031 41.527344 39.082031 Z M 41.527344 35.933594 C 40.933594 35.933594 40.441406 36.425781 40.441406 37.015625 C 40.441406 37.632812 40.933594 38.097656 41.527344 38.097656 C 42.140625 38.097656 42.632812 37.632812 42.632812 37.015625 C 42.632812 36.425781 42.140625 35.933594 41.527344 35.933594 Z M 41.527344 35.933594 " fill-opacity="1" fill-rule="evenodd"/><path fill="#545454" d="M 23.277344 41.914062 C 23.007812 41.914062 22.785156 41.695312 22.785156 41.421875 L 22.785156 38.589844 C 22.785156 38.320312 23.007812 38.097656 23.277344 38.097656 C 23.550781 38.097656 23.769531 38.320312 23.769531 38.589844 L 23.769531 41.421875 C 23.769531 41.695312 23.550781 41.914062 23.277344 41.914062 Z M 23.277344 41.914062 " fill-opacity="1" fill-rule="evenodd"/><path fill="#545454" d="M 23.277344 39.082031 C 22.144531 39.082031 21.210938 38.171875 21.210938 37.015625 C 21.210938 35.882812 22.144531 34.945312 23.277344 34.945312 C 24.4375 34.945312 25.347656 35.882812 25.347656 37.015625 C 25.347656 38.171875 24.4375 39.082031 23.277344 39.082031 Z M 23.277344 35.933594 C 22.6875 35.933594 22.195312 36.425781 22.195312 37.015625 C 22.195312 37.632812 22.6875 38.097656 23.277344 38.097656 C 23.871094 38.097656 24.363281 37.632812 24.363281 37.015625 C 24.363281 36.425781 23.871094 35.933594 23.277344 35.933594 Z M 23.277344 35.933594 " fill-opacity="1" fill-rule="evenodd"/><path fill="#545454" d="M 33.054688 41.914062 L 28.351562 41.914062 C 28.082031 41.914062 27.859375 41.695312 27.859375 41.421875 L 27.859375 27.265625 C 27.859375 26.96875 28.082031 26.769531 28.351562 26.769531 L 33.054688 26.769531 C 33.324219 26.769531 33.546875 26.992188 33.546875 27.265625 L 33.546875 41.421875 C 33.546875 41.695312 33.324219 41.914062 33.054688 41.914062 Z M 28.84375 40.929688 L 32.5625 40.929688 L 32.5625 27.757812 L 28.84375 27.757812 Z M 28.84375 40.929688 " fill-opacity="1" fill-rule="evenodd"/><path fill="#545454" d="M 24.855469 41.914062 C 24.582031 41.914062 24.363281 41.695312 24.363281 41.421875 L 24.363281 31.820312 C 24.363281 31.621094 24.484375 31.449219 24.65625 31.375 L 28.128906 29.652344 C 28.375 29.554688 28.671875 29.652344 28.792969 29.898438 C 28.917969 30.144531 28.820312 30.441406 28.574219 30.539062 L 25.347656 32.113281 L 25.347656 41.421875 C 25.347656 41.695312 25.125 41.914062 24.855469 41.914062 Z M 24.855469 41.914062 " fill-opacity="1" fill-rule="evenodd"/><path fill="#545454" d="M 39.949219 41.914062 C 39.679688 41.914062 39.457031 41.695312 39.457031 41.421875 L 39.457031 34.503906 L 33.054688 34.503906 C 32.785156 34.503906 32.5625 34.28125 32.5625 34.011719 C 32.5625 33.738281 32.785156 33.519531 33.054688 33.519531 L 39.949219 33.519531 C 40.21875 33.519531 40.441406 33.738281 40.441406 34.011719 L 40.441406 41.421875 C 40.441406 41.695312 40.21875 41.914062 39.949219 41.914062 Z M 39.949219 41.914062 " fill-opacity="1" fill-rule="evenodd"/><path fill="#545454" d="M 28.351562 33.640625 L 26.875 33.640625 C 26.601562 33.640625 26.382812 33.421875 26.382812 33.148438 C 26.382812 32.878906 26.601562 32.65625 26.875 32.65625 L 28.351562 32.65625 C 28.621094 32.65625 28.84375 32.878906 28.84375 33.148438 C 28.84375 33.421875 28.621094 33.640625 28.351562 33.640625 Z M 28.351562 33.640625 " fill-opacity="1" fill-rule="evenodd"/><path fill="#545454" d="M 28.351562 35.757812 L 26.875 35.757812 C 26.601562 35.757812 26.382812 35.539062 26.382812 35.265625 C 26.382812 34.996094 26.601562 34.773438 26.875 34.773438 L 28.351562 34.773438 C 28.621094 34.773438 28.84375 34.996094 28.84375 35.265625 C 28.84375 35.539062 28.621094 35.757812 28.351562 35.757812 Z M 28.351562 35.757812 " fill-opacity="1" fill-rule="evenodd"/><path fill="#545454" d="M 28.351562 37.878906 L 26.875 37.878906 C 26.601562 37.878906 26.382812 37.65625 26.382812 37.382812 C 26.382812 37.113281 26.601562 36.890625 26.875 36.890625 L 28.351562 36.890625 C 28.621094 36.890625 28.84375 37.113281 28.84375 37.382812 C 28.84375 37.65625 28.621094 37.878906 28.351562 37.878906 Z M 28.351562 37.878906 " fill-opacity="1" fill-rule="evenodd"/><path fill="#545454" d="M 28.351562 39.996094 L 26.875 39.996094 C 26.601562 39.996094 26.382812 39.773438 26.382812 39.503906 C 26.382812 39.230469 26.601562 39.011719 26.875 39.011719 L 28.351562 39.011719 C 28.621094 39.011719 28.84375 39.230469 28.84375 39.503906 C 28.84375 39.773438 28.621094 39.996094 28.351562 39.996094 Z M 28.351562 39.996094 " fill-opacity="1" fill-rule="evenodd"/><path fill="#545454" d="M 37.90625 34.503906 C 37.632812 34.503906 37.414062 34.28125 37.414062 34.011719 L 37.414062 31.203125 L 32.832031 28.9375 C 32.585938 28.816406 32.488281 28.519531 32.609375 28.273438 C 32.734375 28.027344 33.03125 27.929688 33.277344 28.050781 L 38.128906 30.464844 C 38.300781 30.539062 38.398438 30.710938 38.398438 30.910156 L 38.398438 34.011719 C 38.398438 34.28125 38.175781 34.503906 37.90625 34.503906 Z M 37.90625 34.503906 " fill-opacity="1" fill-rule="evenodd"/><path fill="#545454" d="M 31.453125 29.652344 L 29.953125 29.652344 C 29.679688 29.652344 29.460938 29.429688 29.460938 29.160156 C 29.460938 28.890625 29.679688 28.667969 29.953125 28.667969 L 31.453125 28.667969 C 31.726562 28.667969 31.945312 28.890625 31.945312 29.160156 C 31.945312 29.429688 31.726562 29.652344 31.453125 29.652344 Z M 31.453125 29.652344 " fill-opacity="1" fill-rule="evenodd"/><path fill="#545454" d="M 31.453125 31.722656 L 29.953125 31.722656 C 29.679688 31.722656 29.460938 31.5 29.460938 31.226562 C 29.460938 30.957031 29.679688 30.734375 29.953125 30.734375 L 31.453125 30.734375 C 31.726562 30.734375 31.945312 30.957031 31.945312 31.226562 C 31.945312 31.5 31.726562 31.722656 31.453125 31.722656 Z M 31.453125 31.722656 " fill-opacity="1" fill-rule="evenodd"/><path fill="#545454" d="M 31.453125 33.789062 L 29.953125 33.789062 C 29.679688 33.789062 29.460938 33.566406 29.460938 33.296875 C 29.460938 33.027344 29.679688 32.804688 29.953125 32.804688 L 31.453125 32.804688 C 31.726562 32.804688 31.945312 33.027344 31.945312 33.296875 C 31.945312 33.566406 31.726562 33.789062 31.453125 33.789062 Z M 31.453125 33.789062 " fill-opacity="1" fill-rule="evenodd"/><path fill="#545454" d="M 31.453125 35.859375 L 29.953125 35.859375 C 29.679688 35.859375 29.460938 35.636719 29.460938 35.367188 C 29.460938 35.09375 29.679688 34.871094 29.953125 34.871094 L 31.453125 34.871094 C 31.726562 34.871094 31.945312 35.09375 31.945312 35.367188 C 31.945312 35.636719 31.726562 35.859375 31.453125 35.859375 Z M 31.453125 35.859375 " fill-opacity="1" fill-rule="evenodd"/><path fill="#545454" d="M 31.453125 37.925781 L 29.953125 37.925781 C 29.679688 37.925781 29.460938 37.703125 29.460938 37.433594 C 29.460938 37.164062 29.679688 36.941406 29.953125 36.941406 L 31.453125 36.941406 C 31.726562 36.941406 31.945312 37.164062 31.945312 37.433594 C 31.945312 37.703125 31.726562 37.925781 31.453125 37.925781 Z M 31.453125 37.925781 " fill-opacity="1" fill-rule="evenodd"/><path fill="#545454" d="M 31.453125 39.996094 L 29.953125 39.996094 C 29.679688 39.996094 29.460938 39.796875 29.460938 39.503906 C 29.460938 39.230469 29.679688 39.011719 29.953125 39.011719 L 31.453125 39.011719 C 31.726562 39.011719 31.945312 39.230469 31.945312 39.503906 C 31.945312 39.796875 31.726562 39.996094 31.453125 39.996094 Z M 31.453125 39.996094 " fill-opacity="1" fill-rule="evenodd"/><path fill="#545454" d="M 38.25 36.425781 L 34.753906 36.425781 C 34.484375 36.425781 34.261719 36.203125 34.261719 35.933594 C 34.261719 35.660156 34.484375 35.4375 34.753906 35.4375 L 38.25 35.4375 C 38.519531 35.4375 38.742188 35.660156 38.742188 35.933594 C 38.742188 36.203125 38.519531 36.425781 38.25 36.425781 Z M 38.25 36.425781 " fill-opacity="1" fill-rule="evenodd"/><path fill="#545454" d="M 38.25 38.199219 L 34.753906 38.199219 C 34.484375 38.199219 34.261719 37.976562 34.261719 37.703125 C 34.261719 37.433594 34.484375 37.210938 34.753906 37.210938 L 38.25 37.210938 C 38.519531 37.210938 38.742188 37.433594 38.742188 37.703125 C 38.742188 37.976562 38.519531 38.199219 38.25 38.199219 Z M 38.25 38.199219 " fill-opacity="1" fill-rule="evenodd"/><path fill="#545454" d="M 38.25 39.996094 L 34.753906 39.996094 C 34.484375 39.996094 34.261719 39.773438 34.261719 39.503906 C 34.261719 39.230469 34.484375 39.011719 34.753906 39.011719 L 38.25 39.011719 C 38.519531 39.011719 38.742188 39.230469 38.742188 39.503906 C 38.742188 39.773438 38.519531 39.996094 38.25 39.996094 Z M 38.25 39.996094 " fill-opacity="1" fill-rule="evenodd"/><g clip-path="url(#12fa316007)"><path fill="#545454" d="M 42.976562 43.515625 L 21.183594 43.515625 C 20.914062 43.515625 20.691406 43.292969 20.691406 43.023438 L 20.691406 41.421875 C 20.691406 41.152344 20.914062 40.929688 21.183594 40.929688 L 42.976562 40.929688 C 43.25 40.929688 43.472656 41.152344 43.472656 41.421875 L 43.472656 43.023438 C 43.472656 43.292969 43.25 43.515625 42.976562 43.515625 Z M 27.265625 12.4375 L 10.152344 12.4375 C 9.882812 12.4375 9.660156 12.21875 9.660156 11.945312 L 9.660156 8.722656 C 9.660156 8.449219 9.882812 8.230469 10.152344 8.230469 L 27.265625 8.230469 C 27.539062 8.230469 27.761719 8.449219 27.761719 8.722656 L 27.761719 11.945312 C 27.761719 12.21875 27.539062 12.4375 27.265625 12.4375 Z M 27.265625 12.4375 " fill-opacity="1" fill-rule="evenodd"/></g></svg>