<svg xmlns="http://www.w3.org/2000/svg" xmlns:xlink="http://www.w3.org/1999/xlink" width="60" zoomAndPan="magnify" viewBox="0 0 45 44.999999" height="60" preserveAspectRatio="xMidYMid meet" version="1.0"><defs><clipPath id="4c8595a514"><path d="M 11 1.480469 L 27 1.480469 L 27 7 L 11 7 Z M 11 1.480469 " clip-rule="nonzero"/></clipPath><clipPath id="c674fb784c"><path d="M 9 8 L 44 8 L 44 43.480469 L 9 43.480469 Z M 9 8 " clip-rule="nonzero"/></clipPath></defs><rect x="-4.5" width="54" fill="#ffffff" y="-4.5" height="53.999999" fill-opacity="1"/><rect x="-4.5" width="54" fill="#ffffff" y="-4.5" height="53.999999" fill-opacity="1"/><path fill="#2d6a4f" d="M 24.835938 34.402344 L 7.589844 34.402344 C 7.316406 34.402344 7.097656 34.179688 7.097656 33.910156 L 7.097656 5.050781 C 7.097656 4.925781 7.167969 4.804688 7.242188 4.703125 C 7.34375 4.605469 7.464844 4.558594 7.589844 4.558594 L 11.894531 4.558594 C 12.164062 4.558594 12.386719 4.777344 12.386719 5.050781 L 12.386719 5.984375 L 25.03125 5.984375 L 25.03125 5.050781 C 25.03125 4.777344 25.253906 4.558594 25.523438 4.558594 L 29.804688 4.558594 C 30.078125 4.558594 30.296875 4.777344 30.296875 5.050781 L 30.296875 27.242188 C 30.296875 27.511719 30.078125 27.734375 29.804688 27.734375 C 29.535156 27.734375 29.3125 27.511719 29.3125 27.242188 L 29.3125 5.539062 L 26.015625 5.539062 L 26.015625 6.476562 C 26.015625 6.746094 25.796875 6.96875 25.523438 6.96875 L 11.894531 6.96875 C 11.625 6.96875 11.402344 6.746094 11.402344 6.476562 L 11.402344 5.539062 L 8.082031 5.539062 L 8.082031 33.417969 L 24.835938 33.417969 C 25.105469 33.417969 25.328125 33.640625 25.328125 33.910156 C 25.328125 34.179688 25.105469 34.402344 24.835938 34.402344 Z M 24.835938 34.402344 " fill-opacity="1" fill-rule="evenodd"/><path fill="#2d6a4f" d="M 21.6875 37.332031 L 4.832031 37.332031 C 4.5625 37.332031 4.339844 37.109375 4.339844 36.839844 L 4.339844 8.171875 C 4.339844 8.050781 4.390625 7.925781 4.488281 7.828125 C 4.585938 7.730469 4.710938 7.679688 4.832031 7.679688 L 7.589844 7.679688 C 7.882812 7.679688 8.082031 7.902344 8.082031 8.171875 C 8.082031 8.445312 7.882812 8.664062 7.589844 8.664062 L 5.324219 8.664062 L 5.324219 36.347656 L 21.6875 36.347656 C 21.957031 36.347656 22.179688 36.566406 22.179688 36.839844 C 22.179688 37.109375 21.957031 37.332031 21.6875 37.332031 Z M 21.6875 37.332031 " fill-opacity="1" fill-rule="evenodd"/><g clip-path="url(#4c8595a514)"><path fill="#2d6a4f" d="M 25.523438 6.96875 L 11.894531 6.96875 C 11.625 6.96875 11.402344 6.746094 11.402344 6.476562 L 11.402344 5.050781 C 11.402344 4.015625 12.238281 3.15625 13.296875 3.15625 L 16.59375 3.15625 C 16.714844 2.21875 17.527344 1.480469 18.488281 1.480469 L 18.90625 1.480469 C 19.890625 1.480469 20.703125 2.21875 20.824219 3.15625 L 24.097656 3.15625 C 25.15625 3.15625 26.015625 4.015625 26.015625 5.050781 L 26.015625 6.476562 C 26.015625 6.746094 25.796875 6.96875 25.523438 6.96875 Z M 12.386719 5.984375 L 25.03125 5.984375 L 25.03125 5.050781 C 25.03125 4.558594 24.613281 4.136719 24.097656 4.136719 L 20.359375 4.136719 C 20.085938 4.136719 19.867188 3.917969 19.867188 3.644531 L 19.867188 3.402344 C 19.867188 2.882812 19.421875 2.464844 18.90625 2.464844 L 18.488281 2.464844 C 17.972656 2.464844 17.554688 2.882812 17.554688 3.402344 L 17.554688 3.644531 C 17.554688 3.917969 17.332031 4.136719 17.0625 4.136719 L 13.296875 4.136719 C 12.78125 4.136719 12.386719 4.558594 12.386719 5.050781 Z M 12.386719 5.984375 " fill-opacity="1" fill-rule="evenodd"/></g><path fill="#2d6a4f" d="M 27.199219 14.890625 L 16.050781 14.890625 C 15.78125 14.890625 15.558594 14.667969 15.558594 14.398438 C 15.558594 14.128906 15.78125 13.90625 16.050781 13.90625 L 27.199219 13.90625 C 27.46875 13.90625 27.691406 14.128906 27.691406 14.398438 C 27.691406 14.667969 27.46875 14.890625 27.199219 14.890625 Z M 27.199219 14.890625 " fill-opacity="1" fill-rule="evenodd"/><path fill="#2d6a4f" d="M 27.199219 17.007812 L 16.050781 17.007812 C 15.78125 17.007812 15.558594 16.785156 15.558594 16.515625 C 15.558594 16.242188 15.78125 16.023438 16.050781 16.023438 L 27.199219 16.023438 C 27.46875 16.023438 27.691406 16.242188 27.691406 16.515625 C 27.691406 16.785156 27.46875 17.007812 27.199219 17.007812 Z M 27.199219 17.007812 " fill-opacity="1" fill-rule="evenodd"/><path fill="#2d6a4f" d="M 11.179688 17.277344 C 11.058594 17.277344 10.933594 17.226562 10.835938 17.15625 L 9.851562 16.195312 C 9.679688 16.023438 9.65625 15.703125 9.851562 15.503906 C 10.046875 15.308594 10.34375 15.308594 10.539062 15.503906 L 11.179688 16.097656 L 13.589844 13.785156 C 13.789062 13.585938 14.082031 13.585938 14.28125 13.785156 C 14.476562 13.980469 14.453125 14.300781 14.28125 14.472656 L 11.523438 17.15625 C 11.425781 17.226562 11.304688 17.277344 11.179688 17.277344 Z M 11.179688 17.277344 " fill-opacity="1" fill-rule="evenodd"/><path fill="#2d6a4f" d="M 27.199219 19.859375 L 16.050781 19.859375 C 15.78125 19.859375 15.558594 19.640625 15.558594 19.367188 C 15.558594 19.097656 15.78125 18.875 16.050781 18.875 L 27.199219 18.875 C 27.46875 18.875 27.691406 19.097656 27.691406 19.367188 C 27.691406 19.640625 27.46875 19.859375 27.199219 19.859375 Z M 27.199219 19.859375 " fill-opacity="1" fill-rule="evenodd"/><path fill="#2d6a4f" d="M 27.199219 21.953125 L 16.050781 21.953125 C 15.78125 21.953125 15.558594 21.730469 15.558594 21.460938 C 15.558594 21.191406 15.78125 20.96875 16.050781 20.96875 L 27.199219 20.96875 C 27.46875 20.96875 27.691406 21.191406 27.691406 21.460938 C 27.691406 21.730469 27.46875 21.953125 27.199219 21.953125 Z M 27.199219 21.953125 " fill-opacity="1" fill-rule="evenodd"/><path fill="#2d6a4f" d="M 11.179688 22.246094 C 11.058594 22.246094 10.933594 22.199219 10.835938 22.101562 L 9.851562 21.164062 C 9.679688 20.96875 9.65625 20.648438 9.851562 20.453125 C 10.046875 20.277344 10.34375 20.253906 10.539062 20.453125 L 11.179688 21.066406 L 13.589844 18.730469 C 13.789062 18.53125 14.082031 18.558594 14.28125 18.753906 C 14.476562 18.949219 14.453125 19.246094 14.28125 19.441406 L 11.523438 22.101562 C 11.425781 22.199219 11.304688 22.246094 11.179688 22.246094 Z M 11.179688 22.246094 " fill-opacity="1" fill-rule="evenodd"/><path fill="#2d6a4f" d="M 27.199219 24.804688 L 16.050781 24.804688 C 15.78125 24.804688 15.558594 24.585938 15.558594 24.3125 C 15.558594 24.042969 15.78125 23.820312 16.050781 23.820312 L 27.199219 23.820312 C 27.46875 23.820312 27.691406 24.042969 27.691406 24.3125 C 27.691406 24.585938 27.46875 24.804688 27.199219 24.804688 Z M 27.199219 24.804688 " fill-opacity="1" fill-rule="evenodd"/><path fill="#2d6a4f" d="M 27.199219 26.921875 L 16.050781 26.921875 C 15.78125 26.921875 15.558594 26.699219 15.558594 26.429688 C 15.558594 26.160156 15.78125 25.9375 16.050781 25.9375 L 27.199219 25.9375 C 27.46875 25.9375 27.691406 26.160156 27.691406 26.429688 C 27.691406 26.699219 27.46875 26.921875 27.199219 26.921875 Z M 27.199219 26.921875 " fill-opacity="1" fill-rule="evenodd"/><path fill="#2d6a4f" d="M 11.179688 27.191406 C 11.058594 27.191406 10.933594 27.144531 10.835938 27.046875 L 9.851562 26.109375 C 9.679688 25.9375 9.65625 25.617188 9.851562 25.421875 C 10.046875 25.226562 10.34375 25.226562 10.539062 25.398438 L 11.179688 26.011719 L 13.589844 23.699219 C 13.789062 23.503906 14.082031 23.503906 14.28125 23.699219 C 14.476562 23.894531 14.453125 24.214844 14.28125 24.386719 L 11.523438 27.046875 C 11.425781 27.144531 11.304688 27.191406 11.179688 27.191406 Z M 11.179688 27.191406 " fill-opacity="1" fill-rule="evenodd"/><path fill="#2d6a4f" d="M 25.574219 29.777344 L 16.050781 29.777344 C 15.78125 29.777344 15.558594 29.554688 15.558594 29.285156 C 15.558594 29.015625 15.78125 28.792969 16.050781 28.792969 L 25.574219 28.792969 C 25.84375 28.792969 26.066406 29.015625 26.066406 29.285156 C 26.066406 29.554688 25.84375 29.777344 25.574219 29.777344 Z M 25.574219 29.777344 " fill-opacity="1" fill-rule="evenodd"/><path fill="#2d6a4f" d="M 21.636719 31.867188 L 16.050781 31.867188 C 15.78125 31.867188 15.558594 31.644531 15.558594 31.375 C 15.558594 31.105469 15.78125 30.882812 16.050781 30.882812 L 21.636719 30.882812 C 21.90625 30.882812 22.128906 31.105469 22.128906 31.375 C 22.128906 31.644531 21.90625 31.867188 21.636719 31.867188 Z M 21.636719 31.867188 " fill-opacity="1" fill-rule="evenodd"/><path fill="#2d6a4f" d="M 11.179688 32.164062 C 11.058594 32.164062 10.933594 32.113281 10.835938 32.015625 L 9.851562 31.082031 C 9.679688 30.882812 9.65625 30.5625 9.851562 30.367188 C 10.046875 30.171875 10.34375 30.171875 10.539062 30.367188 L 11.179688 30.980469 L 13.589844 28.644531 C 13.789062 28.449219 14.082031 28.472656 14.28125 28.667969 C 14.476562 28.839844 14.453125 29.160156 14.28125 29.359375 L 11.523438 32.015625 C 11.425781 32.113281 11.304688 32.164062 11.179688 32.164062 Z M 11.179688 32.164062 " fill-opacity="1" fill-rule="evenodd"/><path fill="#2d6a4f" d="M 41.492188 41.882812 C 41.222656 41.882812 41 41.660156 41 41.390625 L 41 38.558594 C 41 38.289062 41.222656 38.066406 41.492188 38.066406 C 41.765625 38.066406 41.984375 38.289062 41.984375 38.558594 L 41.984375 41.390625 C 41.984375 41.660156 41.765625 41.882812 41.492188 41.882812 Z M 41.492188 41.882812 " fill-opacity="1" fill-rule="evenodd"/><path fill="#2d6a4f" d="M 41.492188 39.050781 C 40.363281 39.050781 39.425781 38.140625 39.425781 36.984375 C 39.425781 35.855469 40.363281 34.917969 41.492188 34.917969 C 42.648438 34.917969 43.585938 35.855469 43.585938 36.984375 C 43.585938 38.140625 42.648438 39.050781 41.492188 39.050781 Z M 41.492188 35.902344 C 40.902344 35.902344 40.410156 36.394531 40.410156 36.984375 C 40.410156 37.601562 40.902344 38.066406 41.492188 38.066406 C 42.109375 38.066406 42.601562 37.601562 42.601562 36.984375 C 42.601562 36.394531 42.109375 35.902344 41.492188 35.902344 Z M 41.492188 35.902344 " fill-opacity="1" fill-rule="evenodd"/><path fill="#2d6a4f" d="M 23.261719 41.882812 C 22.992188 41.882812 22.769531 41.660156 22.769531 41.390625 L 22.769531 38.558594 C 22.769531 38.289062 22.992188 38.066406 23.261719 38.066406 C 23.53125 38.066406 23.753906 38.289062 23.753906 38.558594 L 23.753906 41.390625 C 23.753906 41.660156 23.53125 41.882812 23.261719 41.882812 Z M 23.261719 41.882812 " fill-opacity="1" fill-rule="evenodd"/><path fill="#2d6a4f" d="M 23.261719 39.050781 C 22.128906 39.050781 21.195312 38.140625 21.195312 36.984375 C 21.195312 35.855469 22.128906 34.917969 23.261719 34.917969 C 24.417969 34.917969 25.328125 35.855469 25.328125 36.984375 C 25.328125 38.140625 24.417969 39.050781 23.261719 39.050781 Z M 23.261719 35.902344 C 22.671875 35.902344 22.179688 36.394531 22.179688 36.984375 C 22.179688 37.601562 22.671875 38.066406 23.261719 38.066406 C 23.851562 38.066406 24.34375 37.601562 24.34375 36.984375 C 24.34375 36.394531 23.851562 35.902344 23.261719 35.902344 Z M 23.261719 35.902344 " fill-opacity="1" fill-rule="evenodd"/><path fill="#2d6a4f" d="M 33.027344 41.882812 L 28.328125 41.882812 C 28.058594 41.882812 27.835938 41.660156 27.835938 41.390625 L 27.835938 27.242188 C 27.835938 26.945312 28.058594 26.75 28.328125 26.75 L 33.027344 26.75 C 33.300781 26.75 33.519531 26.972656 33.519531 27.242188 L 33.519531 41.390625 C 33.519531 41.660156 33.300781 41.882812 33.027344 41.882812 Z M 28.820312 40.898438 L 32.539062 40.898438 L 32.539062 27.734375 L 28.820312 27.734375 Z M 28.820312 40.898438 " fill-opacity="1" fill-rule="evenodd"/><path fill="#2d6a4f" d="M 24.835938 41.882812 C 24.566406 41.882812 24.34375 41.660156 24.34375 41.390625 L 24.34375 31.792969 C 24.34375 31.597656 24.46875 31.425781 24.640625 31.351562 L 28.109375 29.628906 C 28.355469 29.53125 28.648438 29.628906 28.773438 29.875 C 28.894531 30.121094 28.796875 30.417969 28.550781 30.515625 L 25.328125 32.089844 L 25.328125 41.390625 C 25.328125 41.660156 25.105469 41.882812 24.835938 41.882812 Z M 24.835938 41.882812 " fill-opacity="1" fill-rule="evenodd"/><path fill="#2d6a4f" d="M 39.917969 41.882812 C 39.648438 41.882812 39.425781 41.660156 39.425781 41.390625 L 39.425781 34.476562 L 33.027344 34.476562 C 32.757812 34.476562 32.539062 34.253906 32.539062 33.984375 C 32.539062 33.714844 32.757812 33.492188 33.027344 33.492188 L 39.917969 33.492188 C 40.1875 33.492188 40.410156 33.714844 40.410156 33.984375 L 40.410156 41.390625 C 40.410156 41.660156 40.1875 41.882812 39.917969 41.882812 Z M 39.917969 41.882812 " fill-opacity="1" fill-rule="evenodd"/><path fill="#2d6a4f" d="M 28.328125 33.613281 L 26.855469 33.613281 C 26.582031 33.613281 26.363281 33.394531 26.363281 33.121094 C 26.363281 32.851562 26.582031 32.628906 26.855469 32.628906 L 28.328125 32.628906 C 28.601562 32.628906 28.820312 32.851562 28.820312 33.121094 C 28.820312 33.394531 28.601562 33.613281 28.328125 33.613281 Z M 28.328125 33.613281 " fill-opacity="1" fill-rule="evenodd"/><path fill="#2d6a4f" d="M 28.328125 35.730469 L 26.855469 35.730469 C 26.582031 35.730469 26.363281 35.507812 26.363281 35.238281 C 26.363281 34.96875 26.582031 34.746094 26.855469 34.746094 L 28.328125 34.746094 C 28.601562 34.746094 28.820312 34.96875 28.820312 35.238281 C 28.820312 35.507812 28.601562 35.730469 28.328125 35.730469 Z M 28.328125 35.730469 " fill-opacity="1" fill-rule="evenodd"/><path fill="#2d6a4f" d="M 28.328125 37.847656 L 26.855469 37.847656 C 26.582031 37.847656 26.363281 37.625 26.363281 37.355469 C 26.363281 37.085938 26.582031 36.863281 26.855469 36.863281 L 28.328125 36.863281 C 28.601562 36.863281 28.820312 37.085938 28.820312 37.355469 C 28.820312 37.625 28.601562 37.847656 28.328125 37.847656 Z M 28.328125 37.847656 " fill-opacity="1" fill-rule="evenodd"/><path fill="#2d6a4f" d="M 28.328125 39.960938 L 26.855469 39.960938 C 26.582031 39.960938 26.363281 39.742188 26.363281 39.46875 C 26.363281 39.199219 26.582031 38.980469 26.855469 38.980469 L 28.328125 38.980469 C 28.601562 38.980469 28.820312 39.199219 28.820312 39.46875 C 28.820312 39.742188 28.601562 39.960938 28.328125 39.960938 Z M 28.328125 39.960938 " fill-opacity="1" fill-rule="evenodd"/><path fill="#2d6a4f" d="M 37.875 34.476562 C 37.605469 34.476562 37.382812 34.253906 37.382812 33.984375 L 37.382812 31.179688 L 32.808594 28.914062 C 32.5625 28.792969 32.464844 28.496094 32.585938 28.25 C 32.710938 28.003906 33.003906 27.90625 33.25 28.03125 L 38.097656 30.441406 C 38.269531 30.515625 38.367188 30.6875 38.367188 30.882812 L 38.367188 33.984375 C 38.367188 34.253906 38.148438 34.476562 37.875 34.476562 Z M 37.875 34.476562 " fill-opacity="1" fill-rule="evenodd"/><path fill="#2d6a4f" d="M 31.429688 29.628906 L 29.929688 29.628906 C 29.660156 29.628906 29.4375 29.40625 29.4375 29.136719 C 29.4375 28.867188 29.660156 28.644531 29.929688 28.644531 L 31.429688 28.644531 C 31.699219 28.644531 31.921875 28.867188 31.921875 29.136719 C 31.921875 29.40625 31.699219 29.628906 31.429688 29.628906 Z M 31.429688 29.628906 " fill-opacity="1" fill-rule="evenodd"/><path fill="#2d6a4f" d="M 31.429688 31.695312 L 29.929688 31.695312 C 29.660156 31.695312 29.4375 31.472656 29.4375 31.203125 C 29.4375 30.933594 29.660156 30.710938 29.929688 30.710938 L 31.429688 30.710938 C 31.699219 30.710938 31.921875 30.933594 31.921875 31.203125 C 31.921875 31.472656 31.699219 31.695312 31.429688 31.695312 Z M 31.429688 31.695312 " fill-opacity="1" fill-rule="evenodd"/><path fill="#2d6a4f" d="M 31.429688 33.761719 L 29.929688 33.761719 C 29.660156 33.761719 29.4375 33.539062 29.4375 33.269531 C 29.4375 33 29.660156 32.777344 29.929688 32.777344 L 31.429688 32.777344 C 31.699219 32.777344 31.921875 33 31.921875 33.269531 C 31.921875 33.539062 31.699219 33.761719 31.429688 33.761719 Z M 31.429688 33.761719 " fill-opacity="1" fill-rule="evenodd"/><path fill="#2d6a4f" d="M 31.429688 35.828125 L 29.929688 35.828125 C 29.660156 35.828125 29.4375 35.609375 29.4375 35.335938 C 29.4375 35.066406 29.660156 34.84375 29.929688 34.84375 L 31.429688 34.84375 C 31.699219 34.84375 31.921875 35.066406 31.921875 35.335938 C 31.921875 35.609375 31.699219 35.828125 31.429688 35.828125 Z M 31.429688 35.828125 " fill-opacity="1" fill-rule="evenodd"/><path fill="#2d6a4f" d="M 31.429688 37.894531 L 29.929688 37.894531 C 29.660156 37.894531 29.4375 37.675781 29.4375 37.402344 C 29.4375 37.132812 29.660156 36.910156 29.929688 36.910156 L 31.429688 36.910156 C 31.699219 36.910156 31.921875 37.132812 31.921875 37.402344 C 31.921875 37.675781 31.699219 37.894531 31.429688 37.894531 Z M 31.429688 37.894531 " fill-opacity="1" fill-rule="evenodd"/><path fill="#2d6a4f" d="M 31.429688 39.960938 L 29.929688 39.960938 C 29.660156 39.960938 29.4375 39.765625 29.4375 39.46875 C 29.4375 39.199219 29.660156 38.980469 29.929688 38.980469 L 31.429688 38.980469 C 31.699219 38.980469 31.921875 39.199219 31.921875 39.46875 C 31.921875 39.765625 31.699219 39.960938 31.429688 39.960938 Z M 31.429688 39.960938 " fill-opacity="1" fill-rule="evenodd"/><path fill="#2d6a4f" d="M 38.222656 36.394531 L 34.726562 36.394531 C 34.457031 36.394531 34.234375 36.171875 34.234375 35.902344 C 34.234375 35.632812 34.457031 35.410156 34.726562 35.410156 L 38.222656 35.410156 C 38.492188 35.410156 38.714844 35.632812 38.714844 35.902344 C 38.714844 36.171875 38.492188 36.394531 38.222656 36.394531 Z M 38.222656 36.394531 " fill-opacity="1" fill-rule="evenodd"/><path fill="#2d6a4f" d="M 38.222656 38.167969 L 34.726562 38.167969 C 34.457031 38.167969 34.234375 37.945312 34.234375 37.675781 C 34.234375 37.402344 34.457031 37.183594 34.726562 37.183594 L 38.222656 37.183594 C 38.492188 37.183594 38.714844 37.402344 38.714844 37.675781 C 38.714844 37.945312 38.492188 38.167969 38.222656 38.167969 Z M 38.222656 38.167969 " fill-opacity="1" fill-rule="evenodd"/><path fill="#2d6a4f" d="M 38.222656 39.960938 L 34.726562 39.960938 C 34.457031 39.960938 34.234375 39.742188 34.234375 39.46875 C 34.234375 39.199219 34.457031 38.980469 34.726562 38.980469 L 38.222656 38.980469 C 38.492188 38.980469 38.714844 39.199219 38.714844 39.46875 C 38.714844 39.742188 38.492188 39.960938 38.222656 39.960938 Z M 38.222656 39.960938 " fill-opacity="1" fill-rule="evenodd"/><g clip-path="url(#c674fb784c)"><path fill="#74c69d" d="M 42.945312 43.480469 L 21.167969 43.480469 C 20.898438 43.480469 20.679688 43.261719 20.679688 42.988281 L 20.679688 41.390625 C 20.679688 41.121094 20.898438 40.898438 21.167969 40.898438 L 42.945312 40.898438 C 43.214844 40.898438 43.4375 41.121094 43.4375 41.390625 L 43.4375 42.988281 C 43.4375 43.261719 43.214844 43.480469 42.945312 43.480469 Z M 27.246094 12.429688 L 10.148438 12.429688 C 9.875 12.429688 9.65625 12.207031 9.65625 11.9375 L 9.65625 8.714844 C 9.65625 8.445312 9.875 8.222656 10.148438 8.222656 L 27.246094 8.222656 C 27.519531 8.222656 27.738281 8.445312 27.738281 8.714844 L 27.738281 11.9375 C 27.738281 12.207031 27.519531 12.429688 27.246094 12.429688 Z M 27.246094 12.429688 " fill-opacity="1" fill-rule="evenodd"/></g></svg>