<svg xmlns="http://www.w3.org/2000/svg" xmlns:xlink="http://www.w3.org/1999/xlink" width="60" zoomAndPan="magnify" viewBox="0 0 45 44.999999" height="60" preserveAspectRatio="xMidYMid meet" version="1.0"><defs><clipPath id="04e1bf79d0"><path d="M 4.5 1.351562 L 30 1.351562 L 30 33 L 4.5 33 Z M 4.5 1.351562 " clip-rule="nonzero"/></clipPath><clipPath id="3b25e4a177"><path d="M 34 19 L 42.75 19 L 42.75 28 L 34 28 Z M 34 19 " clip-rule="nonzero"/></clipPath><clipPath id="0f79226ef0"><path d="M 11 9 L 37 9 L 37 40.351562 L 11 40.351562 Z M 11 9 " clip-rule="nonzero"/></clipPath></defs><g clip-path="url(#04e1bf79d0)"><path fill="#545454" d="M 12.625 32.96875 C 12.335938 32.96875 12.0625 32.785156 11.96875 32.492188 L 4.855469 10.625 C 4.5 9.527344 5.097656 8.351562 6.191406 7.996094 L 25.507812 1.710938 C 26.605469 1.355469 27.78125 1.957031 28.136719 3.050781 L 29.761719 8.039062 C 29.878906 8.402344 29.679688 8.792969 29.316406 8.914062 C 28.949219 9.03125 28.5625 8.832031 28.441406 8.46875 L 26.820312 3.476562 C 26.699219 3.109375 26.304688 2.910156 25.9375 3.027344 L 6.621094 9.3125 C 6.253906 9.433594 6.054688 9.828125 6.171875 10.195312 L 13.285156 32.0625 C 13.40625 32.425781 13.207031 32.816406 12.839844 32.933594 C 12.769531 32.957031 12.699219 32.96875 12.625 32.96875 Z M 12.625 32.96875 " fill-opacity="1" fill-rule="nonzero"/></g><path fill="#545454" d="M 17.171875 16.648438 C 17 16.648438 16.835938 16.585938 16.707031 16.46875 L 15.101562 15.019531 C 14.820312 14.765625 14.796875 14.324219 15.054688 14.042969 C 15.308594 13.757812 15.75 13.734375 16.03125 13.992188 L 17.089844 14.945312 L 18.988281 12.558594 C 19.226562 12.257812 19.664062 12.210938 19.964844 12.445312 C 20.261719 12.683594 20.3125 13.121094 20.074219 13.421875 L 17.714844 16.386719 C 17.597656 16.535156 17.421875 16.628906 17.230469 16.644531 C 17.210938 16.648438 17.191406 16.648438 17.171875 16.648438 Z M 17.171875 16.648438 " fill-opacity="1" fill-rule="nonzero"/><path fill="#545454" d="M 23.1875 16.648438 L 20.785156 16.648438 C 20.402344 16.648438 20.09375 16.335938 20.09375 15.953125 C 20.09375 15.570312 20.402344 15.261719 20.785156 15.261719 L 23.1875 15.261719 C 23.570312 15.261719 23.882812 15.570312 23.882812 15.953125 C 23.882812 16.335938 23.570312 16.648438 23.1875 16.648438 Z M 23.1875 16.648438 " fill-opacity="1" fill-rule="nonzero"/><path fill="#545454" d="M 17.171875 23.246094 C 17 23.246094 16.835938 23.183594 16.707031 23.066406 L 15.101562 21.617188 C 14.820312 21.363281 14.796875 20.921875 15.054688 20.640625 C 15.308594 20.355469 15.75 20.332031 16.03125 20.589844 L 17.089844 21.542969 L 18.988281 19.15625 C 19.226562 18.855469 19.664062 18.808594 19.964844 19.042969 C 20.261719 19.28125 20.3125 19.71875 20.074219 20.019531 L 17.714844 22.984375 C 17.597656 23.132812 17.421875 23.226562 17.230469 23.242188 C 17.210938 23.246094 17.191406 23.246094 17.171875 23.246094 Z M 17.171875 23.246094 " fill-opacity="1" fill-rule="nonzero"/><path fill="#545454" d="M 27.632812 23.246094 L 20.785156 23.246094 C 20.402344 23.246094 20.09375 22.9375 20.09375 22.554688 C 20.09375 22.167969 20.402344 21.859375 20.785156 21.859375 L 27.632812 21.859375 C 28.019531 21.859375 28.328125 22.167969 28.328125 22.554688 C 28.328125 22.9375 28.019531 23.246094 27.632812 23.246094 Z M 27.632812 23.246094 " fill-opacity="1" fill-rule="nonzero"/><path fill="#545454" d="M 17.171875 29.84375 C 17 29.84375 16.835938 29.78125 16.707031 29.664062 L 15.101562 28.214844 C 14.820312 27.960938 14.796875 27.523438 15.054688 27.238281 C 15.308594 26.953125 15.75 26.929688 16.03125 27.1875 L 17.089844 28.140625 L 18.988281 25.753906 C 19.226562 25.453125 19.664062 25.40625 19.964844 25.640625 C 20.261719 25.878906 20.3125 26.316406 20.074219 26.617188 L 17.714844 29.582031 C 17.597656 29.730469 17.421875 29.824219 17.230469 29.839844 C 17.210938 29.84375 17.191406 29.84375 17.171875 29.84375 Z M 17.171875 29.84375 " fill-opacity="1" fill-rule="nonzero"/><path fill="#545454" d="M 32.402344 29.84375 L 20.785156 29.84375 C 20.402344 29.84375 20.09375 29.535156 20.09375 29.152344 C 20.09375 28.769531 20.402344 28.457031 20.785156 28.457031 L 31.707031 28.457031 L 31.707031 27.289062 L 24.347656 27.289062 C 23.964844 27.289062 23.65625 26.980469 23.65625 26.597656 C 23.65625 26.214844 23.964844 25.902344 24.347656 25.902344 L 32.402344 25.902344 C 32.785156 25.902344 33.09375 26.214844 33.09375 26.597656 L 33.09375 29.152344 C 33.09375 29.535156 32.785156 29.84375 32.402344 29.84375 Z M 32.402344 29.84375 " fill-opacity="1" fill-rule="nonzero"/><path fill="#545454" d="M 17.171875 36.441406 C 17 36.441406 16.835938 36.378906 16.707031 36.261719 L 15.101562 34.8125 C 14.820312 34.558594 14.796875 34.121094 15.054688 33.835938 C 15.308594 33.550781 15.75 33.527344 16.03125 33.785156 L 17.089844 34.738281 L 18.988281 32.351562 C 19.226562 32.050781 19.664062 32.003906 19.964844 32.238281 C 20.261719 32.476562 20.3125 32.914062 20.074219 33.214844 L 17.714844 36.179688 C 17.597656 36.328125 17.421875 36.425781 17.230469 36.441406 C 17.210938 36.441406 17.191406 36.441406 17.171875 36.441406 Z M 17.171875 36.441406 " fill-opacity="1" fill-rule="nonzero"/><path fill="#545454" d="M 32.402344 36.441406 L 20.785156 36.441406 C 20.402344 36.441406 20.09375 36.132812 20.09375 35.75 C 20.09375 35.367188 20.402344 35.054688 20.785156 35.054688 L 31.707031 35.054688 L 31.707031 33.886719 L 24.347656 33.886719 C 23.964844 33.886719 23.65625 33.578125 23.65625 33.195312 C 23.65625 32.8125 23.964844 32.503906 24.347656 32.503906 L 32.402344 32.503906 C 32.785156 32.503906 33.09375 32.8125 33.09375 33.195312 L 33.09375 35.75 C 33.09375 36.132812 32.785156 36.441406 32.402344 36.441406 Z M 32.402344 36.441406 " fill-opacity="1" fill-rule="nonzero"/><path fill="#545454" d="M 30.757812 21.089844 C 29.363281 21.089844 27.96875 20.5625 26.910156 19.5 C 24.785156 17.375 24.785156 13.921875 26.910156 11.796875 C 29.035156 9.675781 32.488281 9.675781 34.609375 11.796875 C 36.734375 13.921875 36.734375 17.375 34.609375 19.5 C 33.550781 20.5625 32.152344 21.089844 30.757812 21.089844 Z M 30.757812 11.589844 C 29.71875 11.589844 28.679688 11.984375 27.890625 12.777344 C 26.304688 14.359375 26.304688 16.9375 27.890625 18.519531 C 29.472656 20.101562 32.046875 20.101562 33.628906 18.519531 C 35.214844 16.9375 35.214844 14.359375 33.628906 12.777344 C 32.839844 11.984375 31.800781 11.589844 30.757812 11.589844 Z M 30.757812 11.589844 " fill-opacity="1" fill-rule="nonzero"/><g clip-path="url(#3b25e4a177)"><path fill="#545454" d="M 37.941406 27.199219 C 37.863281 27.199219 37.78125 27.195312 37.699219 27.183594 C 37.160156 27.109375 36.695312 26.792969 36.429688 26.316406 L 34.222656 22.378906 C 34.035156 22.046875 34.15625 21.625 34.488281 21.4375 C 34.824219 21.25 35.246094 21.367188 35.433594 21.703125 L 37.636719 25.640625 C 37.710938 25.769531 37.828125 25.800781 37.890625 25.8125 C 37.953125 25.820312 38.074219 25.820312 38.179688 25.714844 L 40.824219 23.066406 C 40.929688 22.964844 40.929688 22.839844 40.921875 22.777344 C 40.914062 22.714844 40.878906 22.601562 40.75 22.527344 L 36.8125 20.320312 C 36.480469 20.132812 36.359375 19.710938 36.546875 19.378906 C 36.734375 19.042969 37.15625 18.925781 37.492188 19.113281 L 41.429688 21.316406 C 41.90625 21.585938 42.222656 22.046875 42.296875 22.589844 C 42.371094 23.128906 42.191406 23.664062 41.804688 24.046875 L 39.160156 26.695312 C 38.832031 27.023438 38.398438 27.199219 37.941406 27.199219 Z M 37.941406 27.199219 " fill-opacity="1" fill-rule="nonzero"/></g><path fill="#545454" d="M 30.421875 17.796875 C 30.265625 17.796875 30.113281 17.742188 29.988281 17.640625 L 28.230469 16.222656 C 27.933594 15.984375 27.886719 15.546875 28.128906 15.25 C 28.371094 14.953125 28.804688 14.90625 29.105469 15.144531 L 30.316406 16.125 L 32.132812 13.835938 C 32.367188 13.535156 32.804688 13.484375 33.105469 13.722656 C 33.40625 13.960938 33.453125 14.398438 33.214844 14.695312 L 30.964844 17.535156 C 30.851562 17.679688 30.683594 17.769531 30.5 17.792969 C 30.472656 17.792969 30.449219 17.796875 30.421875 17.796875 Z M 30.421875 17.796875 " fill-opacity="1" fill-rule="nonzero"/><path fill="#545454" d="M 30.757812 23.914062 C 28.640625 23.914062 26.523438 23.109375 24.910156 21.496094 C 21.6875 18.273438 21.6875 13.023438 24.910156 9.800781 C 28.136719 6.574219 33.382812 6.574219 36.609375 9.800781 C 39.832031 13.023438 39.832031 18.273438 36.609375 21.496094 C 34.996094 23.109375 32.878906 23.914062 30.757812 23.914062 Z M 30.757812 8.765625 C 28.996094 8.765625 27.234375 9.4375 25.890625 10.78125 C 23.207031 13.464844 23.207031 17.832031 25.890625 20.515625 C 28.574219 23.199219 32.945312 23.199219 35.628906 20.515625 C 38.3125 17.832031 38.3125 13.464844 35.628906 10.78125 C 34.285156 9.4375 32.523438 8.765625 30.757812 8.765625 Z M 30.757812 8.765625 " fill-opacity="1" fill-rule="nonzero"/><g clip-path="url(#0f79226ef0)"><path fill="#545454" d="M 34.332031 40.484375 L 14.019531 40.484375 C 12.871094 40.484375 11.933594 39.550781 11.933594 38.402344 L 11.933594 11.105469 C 11.933594 9.957031 12.871094 9.019531 14.019531 9.019531 L 26.054688 9.019531 C 26.4375 9.019531 26.746094 9.332031 26.746094 9.714844 C 26.746094 10.097656 26.4375 10.40625 26.054688 10.40625 L 14.019531 10.40625 C 13.632812 10.40625 13.320312 10.722656 13.320312 11.105469 L 13.320312 38.402344 C 13.320312 38.785156 13.632812 39.101562 14.019531 39.101562 L 34.332031 39.101562 C 34.71875 39.101562 35.03125 38.785156 35.03125 38.402344 L 35.03125 28.632812 C 35.03125 28.25 35.339844 27.941406 35.726562 27.941406 C 36.109375 27.941406 36.417969 28.25 36.417969 28.632812 L 36.417969 38.402344 C 36.417969 39.550781 35.480469 40.484375 34.332031 40.484375 Z M 34.332031 40.484375 " fill-opacity="1" fill-rule="nonzero"/></g></svg>