<svg xmlns="http://www.w3.org/2000/svg" xmlns:xlink="http://www.w3.org/1999/xlink" width="60" zoomAndPan="magnify" viewBox="0 0 45 44.999999" height="60" preserveAspectRatio="xMidYMid meet" version="1.0"><defs><clipPath id="daeb30f336"><path d="M 2 2 L 41.738281 2 L 41.738281 42 L 2 42 Z M 2 2 " clip-rule="nonzero"/></clipPath></defs><g clip-path="url(#daeb30f336)"><path fill="#545454" d="M 25.289062 28.25 L 25.296875 28.25 C 25.546875 28.351562 25.804688 28.390625 26.070312 28.375 C 26.335938 28.355469 26.585938 28.277344 26.820312 28.144531 C 27.050781 28.011719 27.242188 27.835938 27.394531 27.613281 C 27.542969 27.394531 27.636719 27.148438 27.675781 26.886719 C 27.707031 26.683594 27.699219 26.488281 27.65625 26.289062 L 28.4375 26.289062 C 28.496094 26.59375 28.640625 26.851562 28.871094 27.054688 C 29.105469 27.257812 29.378906 27.367188 29.6875 27.382812 L 32.300781 27.507812 L 32.375 27.507812 C 32.746094 27.507812 33.070312 27.390625 33.347656 27.148438 C 33.628906 26.90625 33.796875 26.605469 33.851562 26.242188 L 34.96875 18.882812 C 35 18.699219 34.992188 18.515625 34.941406 18.335938 C 34.894531 18.15625 34.8125 17.992188 34.699219 17.84375 C 34.582031 17.699219 34.441406 17.582031 34.277344 17.496094 C 34.109375 17.40625 33.933594 17.355469 33.75 17.34375 L 30.503906 17.101562 C 29.988281 17.0625 29.574219 17.25 29.261719 17.660156 L 26.5625 15.519531 C 25.390625 14.589844 22.292969 14.316406 20.773438 15.953125 L 20.433594 16.3125 C 19.273438 16.167969 18.191406 16.390625 17.179688 16.976562 L 16.988281 17.089844 L 14.847656 16.96875 C 14.785156 16.667969 14.640625 16.414062 14.410156 16.210938 C 14.179688 16.007812 13.910156 15.894531 13.601562 15.867188 L 10.511719 15.640625 C 10.292969 15.621094 10.082031 15.652344 9.878906 15.726562 C 9.671875 15.796875 9.492188 15.910156 9.332031 16.058594 C 9.175781 16.210938 9.054688 16.386719 8.972656 16.589844 C 8.890625 16.789062 8.851562 17 8.855469 17.21875 L 9.046875 24.476562 C 9.050781 24.664062 9.089844 24.84375 9.164062 25.015625 C 9.238281 25.1875 9.339844 25.339844 9.472656 25.472656 C 9.601562 25.609375 9.753906 25.710938 9.925781 25.789062 C 10.097656 25.863281 10.277344 25.90625 10.464844 25.914062 L 12.757812 26.007812 L 12.828125 26.007812 C 13.15625 26.007812 13.460938 25.914062 13.734375 25.726562 C 14.007812 25.542969 14.207031 25.296875 14.332031 24.988281 L 15.394531 24.988281 L 16.886719 27.964844 C 17.09375 28.386719 17.390625 28.722656 17.785156 28.972656 C 18.179688 29.226562 18.609375 29.355469 19.074219 29.367188 L 19.105469 29.367188 C 19.449219 29.371094 19.773438 29.292969 20.074219 29.136719 L 20.203125 29.066406 L 20.445312 29.191406 C 20.867188 29.414062 21.308594 29.480469 21.777344 29.398438 C 22.242188 29.316406 22.632812 29.097656 22.953125 28.746094 L 23.082031 28.800781 C 23.472656 28.964844 23.871094 28.996094 24.277344 28.894531 C 24.6875 28.792969 25.027344 28.578125 25.289062 28.25 Z M 29.125 26.011719 L 29.675781 18.480469 C 29.691406 18.292969 29.765625 18.132812 29.90625 18.003906 C 30.042969 17.875 30.207031 17.8125 30.398438 17.8125 L 30.453125 17.8125 L 33.699219 18.054688 C 33.882812 18.066406 34.03125 18.144531 34.148438 18.289062 C 34.261719 18.433594 34.304688 18.597656 34.277344 18.78125 L 33.15625 26.140625 C 33.128906 26.339844 33.035156 26.503906 32.875 26.632812 C 32.71875 26.761719 32.539062 26.820312 32.335938 26.8125 L 29.722656 26.679688 C 29.546875 26.671875 29.398438 26.601562 29.28125 26.46875 C 29.164062 26.335938 29.113281 26.183594 29.125 26.007812 Z M 14.175781 17.28125 L 13.742188 24.441406 C 13.726562 24.691406 13.628906 24.898438 13.445312 25.066406 C 13.257812 25.234375 13.042969 25.316406 12.792969 25.308594 L 10.496094 25.214844 C 10.292969 25.207031 10.117188 25.128906 9.976562 24.980469 C 9.832031 24.835938 9.757812 24.660156 9.75 24.457031 L 9.5625 17.199219 C 9.554688 16.960938 9.632812 16.757812 9.800781 16.589844 C 9.964844 16.421875 10.164062 16.335938 10.402344 16.335938 L 10.464844 16.335938 L 13.558594 16.566406 C 13.742188 16.582031 13.894531 16.660156 14.011719 16.796875 C 14.132812 16.9375 14.1875 17.097656 14.175781 17.28125 Z M 23.125 28.058594 L 21.613281 25.324219 C 21.613281 25.3125 21.597656 25.300781 21.589844 25.292969 L 21.574219 25.265625 C 21.5625 25.257812 21.554688 25.246094 21.542969 25.238281 L 21.523438 25.21875 L 21.492188 25.199219 L 21.464844 25.183594 L 21.433594 25.167969 L 21.402344 25.15625 L 21.371094 25.148438 L 21.335938 25.148438 C 21.328125 25.148438 21.316406 25.148438 21.308594 25.148438 C 21.292969 25.148438 21.28125 25.148438 21.269531 25.148438 L 21.242188 25.148438 C 21.226562 25.152344 21.214844 25.15625 21.203125 25.160156 L 21.171875 25.171875 L 21.136719 25.183594 L 21.109375 25.203125 L 21.078125 25.222656 L 21.054688 25.25 C 21.054688 25.257812 21.039062 25.265625 21.03125 25.273438 L 21.011719 25.304688 L 20.996094 25.332031 C 20.988281 25.339844 20.984375 25.351562 20.980469 25.363281 L 20.96875 25.394531 C 20.96875 25.40625 20.96875 25.417969 20.96875 25.429688 C 20.964844 25.4375 20.964844 25.449219 20.960938 25.460938 L 20.960938 25.496094 C 20.960938 25.503906 20.960938 25.515625 20.960938 25.527344 C 20.964844 25.539062 20.964844 25.550781 20.96875 25.5625 C 20.96875 25.574219 20.96875 25.585938 20.96875 25.59375 C 20.980469 25.617188 20.988281 25.636719 20.996094 25.660156 L 22.421875 28.277344 C 22.210938 28.507812 21.953125 28.652344 21.648438 28.707031 C 21.339844 28.761719 21.046875 28.714844 20.773438 28.574219 L 20.46875 28.414062 L 19.464844 26.246094 C 19.421875 26.160156 19.355469 26.105469 19.265625 26.074219 C 19.175781 26.042969 19.089844 26.046875 19.003906 26.085938 C 18.917969 26.125 18.859375 26.191406 18.824219 26.277344 C 18.789062 26.367188 18.792969 26.453125 18.828125 26.539062 L 19.746094 28.519531 C 19.539062 28.625 19.320312 28.667969 19.085938 28.660156 C 18.75 28.652344 18.441406 28.554688 18.160156 28.375 C 17.878906 28.191406 17.664062 27.949219 17.519531 27.644531 L 15.980469 24.566406 C 15.882812 24.375 15.726562 24.277344 15.515625 24.277344 L 14.457031 24.277344 L 14.855469 17.664062 L 17.160156 17.796875 L 17.535156 17.578125 C 18.242188 17.167969 19 16.964844 19.816406 16.96875 L 17.929688 19 C 17.804688 19.132812 17.734375 19.292969 17.71875 19.480469 C 17.703125 19.664062 17.75 19.832031 17.851562 19.988281 L 17.953125 20.136719 C 18.09375 20.347656 18.269531 20.523438 18.480469 20.660156 C 18.691406 20.796875 18.921875 20.890625 19.167969 20.9375 C 19.417969 20.980469 19.664062 20.976562 19.910156 20.921875 C 20.15625 20.867188 20.382812 20.769531 20.589844 20.621094 L 22.648438 19.164062 C 22.734375 19.105469 22.824219 19.066406 22.921875 19.050781 C 23.019531 19.03125 23.121094 19.035156 23.21875 19.058594 C 23.316406 19.085938 23.402344 19.128906 23.480469 19.191406 C 23.558594 19.257812 23.621094 19.332031 23.664062 19.425781 L 25.832031 23.902344 L 26.910156 26.253906 C 26.992188 26.425781 27.015625 26.605469 26.988281 26.792969 C 26.964844 26.953125 26.910156 27.097656 26.820312 27.230469 C 26.726562 27.363281 26.613281 27.472656 26.472656 27.550781 C 26.335938 27.628906 26.183594 27.675781 26.023438 27.6875 C 25.863281 27.699219 25.710938 27.671875 25.5625 27.613281 L 25.421875 27.554688 L 24 24.496094 C 23.964844 24.402344 23.898438 24.339844 23.804688 24.304688 C 23.710938 24.265625 23.621094 24.269531 23.527344 24.3125 C 23.4375 24.351562 23.375 24.421875 23.34375 24.515625 C 23.3125 24.609375 23.320312 24.703125 23.363281 24.792969 L 24.765625 27.796875 C 24.597656 28.011719 24.386719 28.152344 24.125 28.21875 C 23.867188 28.285156 23.613281 28.269531 23.363281 28.164062 Z M 31.058594 24.492188 C 31.058594 24.359375 31.105469 24.242188 31.203125 24.148438 C 31.296875 24.054688 31.410156 24.007812 31.542969 24.007812 C 31.675781 24.007812 31.792969 24.054688 31.886719 24.148438 C 31.980469 24.242188 32.027344 24.359375 32.027344 24.492188 C 32.027344 24.625 31.980469 24.738281 31.886719 24.835938 C 31.792969 24.929688 31.675781 24.976562 31.542969 24.976562 C 31.410156 24.976562 31.296875 24.929688 31.199219 24.832031 C 31.105469 24.738281 31.058594 24.625 31.058594 24.492188 Z M 11.960938 23.09375 C 11.960938 23.222656 11.914062 23.332031 11.824219 23.421875 C 11.730469 23.511719 11.621094 23.558594 11.492188 23.558594 C 11.363281 23.554688 11.253906 23.511719 11.164062 23.417969 C 11.074219 23.328125 11.027344 23.21875 11.027344 23.089844 C 11.027344 22.960938 11.074219 22.847656 11.164062 22.757812 C 11.257812 22.667969 11.367188 22.621094 11.496094 22.621094 C 11.625 22.621094 11.734375 22.667969 11.828125 22.761719 C 11.917969 22.851562 11.964844 22.964844 11.960938 23.09375 Z M 5.582031 28.359375 C 5.640625 28.503906 5.667969 28.65625 5.664062 28.808594 C 5.664062 28.964844 5.632812 29.113281 5.570312 29.257812 C 5.507812 29.398438 5.421875 29.523438 5.308594 29.632812 C 5.199219 29.738281 5.070312 29.820312 4.925781 29.878906 C 4.789062 29.933594 4.644531 29.960938 4.496094 29.960938 C 4.257812 29.960938 4.039062 29.894531 3.84375 29.757812 C 3.644531 29.625 3.503906 29.449219 3.414062 29.226562 C 3.148438 28.554688 2.917969 27.867188 2.726562 27.167969 C 2.535156 26.46875 2.382812 25.765625 2.269531 25.050781 C 2.152344 24.335938 2.078125 23.617188 2.042969 22.890625 C 2.003906 22.167969 2.007812 21.445312 2.050781 20.722656 C 2.09375 20 2.171875 19.28125 2.292969 18.570312 C 2.414062 17.855469 2.574219 17.148438 2.769531 16.453125 C 2.964844 15.753906 3.199219 15.070312 3.472656 14.402344 C 3.742188 13.730469 4.050781 13.074219 4.394531 12.4375 C 4.734375 11.800781 5.113281 11.179688 5.519531 10.585938 C 5.929688 9.988281 6.371094 9.414062 6.84375 8.867188 C 7.316406 8.316406 7.816406 7.792969 8.34375 7.300781 C 8.871094 6.804688 9.425781 6.339844 10.003906 5.90625 C 10.585938 5.472656 11.1875 5.070312 11.808594 4.699219 C 12.429688 4.332031 13.074219 3.996094 13.730469 3.699219 C 14.390625 3.398438 15.0625 3.136719 15.753906 2.910156 C 16.441406 2.683594 17.136719 2.496094 17.847656 2.34375 C 17.996094 2.3125 18.148438 2.3125 18.300781 2.339844 C 18.453125 2.367188 18.597656 2.425781 18.726562 2.507812 C 18.855469 2.59375 18.964844 2.699219 19.050781 2.828125 C 19.140625 2.957031 19.199219 3.097656 19.230469 3.25 C 19.261719 3.398438 19.265625 3.550781 19.234375 3.703125 C 19.207031 3.855469 19.152344 4 19.066406 4.128906 C 18.980469 4.257812 18.875 4.367188 18.746094 4.453125 C 18.621094 4.542969 18.480469 4.601562 18.328125 4.632812 C 10.230469 6.339844 4.351562 13.59375 4.351562 21.882812 C 4.351562 24.121094 4.761719 26.28125 5.582031 28.359375 Z M 21.976562 6.394531 C 21.976562 6.394531 26.484375 -0.00390625 33.832031 4.433594 L 35.359375 2.183594 L 36.714844 9.851562 L 29.125 11.355469 L 30.644531 9.121094 C 29.558594 7.941406 26.421875 5.132812 21.976562 6.394531 Z M 21.589844 36.699219 C 21.589844 36.699219 17.082031 43.097656 9.738281 38.660156 L 8.207031 40.90625 L 6.851562 33.238281 L 14.441406 31.734375 L 12.933594 33.96875 C 14.007812 35.152344 17.144531 37.957031 21.589844 36.699219 Z M 41.945312 21.882812 C 41.945312 23.0625 41.839844 24.230469 41.632812 25.390625 C 41.425781 26.554688 41.117188 27.6875 40.710938 28.792969 C 40.300781 29.902344 39.796875 30.964844 39.203125 31.980469 C 38.605469 33 37.921875 33.957031 37.15625 34.851562 C 36.390625 35.75 35.550781 36.570312 34.640625 37.320312 C 33.726562 38.066406 32.757812 38.730469 31.726562 39.304688 C 30.699219 39.882812 29.625 40.363281 28.511719 40.75 C 27.398438 41.136719 26.257812 41.421875 25.089844 41.605469 C 25.03125 41.613281 24.972656 41.621094 24.910156 41.617188 C 24.605469 41.617188 24.34375 41.511719 24.121094 41.304688 C 23.898438 41.097656 23.773438 40.84375 23.75 40.539062 C 23.726562 40.238281 23.808594 39.964844 23.996094 39.726562 C 24.183594 39.488281 24.429688 39.34375 24.730469 39.292969 C 25.363281 39.195312 25.988281 39.058594 26.605469 38.890625 C 27.222656 38.722656 27.832031 38.519531 28.429688 38.285156 C 29.023438 38.050781 29.605469 37.785156 30.171875 37.488281 C 30.742188 37.1875 31.289062 36.859375 31.820312 36.503906 C 32.351562 36.144531 32.863281 35.757812 33.351562 35.34375 C 33.84375 34.933594 34.308594 34.492188 34.75 34.027344 C 35.191406 33.5625 35.605469 33.078125 35.996094 32.566406 C 36.382812 32.058594 36.742188 31.527344 37.074219 30.980469 C 37.40625 30.429688 37.703125 29.867188 37.972656 29.285156 C 38.242188 28.703125 38.480469 28.109375 38.683594 27.5 C 38.890625 26.894531 39.058594 26.277344 39.195312 25.652344 C 39.335938 25.027344 39.4375 24.394531 39.503906 23.757812 C 39.574219 23.121094 39.609375 22.480469 39.605469 21.839844 C 39.605469 21.199219 39.570312 20.5625 39.5 19.921875 C 39.425781 19.285156 39.324219 18.65625 39.183594 18.03125 C 39.042969 17.40625 38.871094 16.789062 38.664062 16.183594 C 38.613281 16.035156 38.59375 15.886719 38.601562 15.730469 C 38.613281 15.574219 38.652344 15.429688 38.71875 15.289062 C 38.789062 15.148438 38.878906 15.027344 38.996094 14.925781 C 39.113281 14.824219 39.246094 14.746094 39.390625 14.699219 C 39.539062 14.648438 39.6875 14.628906 39.84375 14.636719 C 40 14.648438 40.144531 14.6875 40.285156 14.753906 C 40.425781 14.824219 40.546875 14.914062 40.648438 15.03125 C 40.75 15.148438 40.828125 15.28125 40.875 15.425781 C 41.589844 17.519531 41.945312 19.671875 41.945312 21.882812 Z M 41.945312 21.882812 " fill-opacity="1" fill-rule="nonzero"/></g></svg>