<svg xmlns="http://www.w3.org/2000/svg" xmlns:xlink="http://www.w3.org/1999/xlink" width="60" zoomAndPan="magnify" viewBox="0 0 45 44.999999" height="60" preserveAspectRatio="xMidYMid meet" version="1.0"><defs><clipPath id="9b9e0e6b67"><path d="M 3.300781 1.28125 L 37.050781 1.28125 L 37.050781 44.03125 L 3.300781 44.03125 Z M 3.300781 1.28125 " clip-rule="nonzero"/></clipPath></defs><g clip-path="url(#9b9e0e6b67)"><path fill="#e3a72f" d="M 26.925781 43.441406 C 27.035156 43.019531 26.789062 42.589844 26.375 42.476562 L 18.136719 40.265625 C 18.015625 40.234375 18.023438 40.058594 18.144531 40.035156 L 26.304688 38.617188 C 26.691406 38.550781 26.964844 38.203125 26.949219 37.808594 C 26.933594 37.414062 26.632812 37.089844 26.246094 37.054688 C 26.191406 37.050781 20.804688 36.527344 15.46875 33.894531 C 8.429688 30.421875 4.863281 25.101562 4.863281 18.082031 C 4.863281 9.6875 11.734375 2.855469 20.175781 2.855469 C 28.621094 2.855469 35.492188 9.6875 35.492188 18.082031 C 35.492188 22.882812 33.171875 27.460938 29.28125 30.324219 C 28.933594 30.582031 28.859375 31.074219 29.109375 31.425781 C 29.363281 31.777344 29.847656 31.855469 30.195312 31.601562 C 32.273438 30.070312 33.996094 28.054688 35.175781 25.773438 C 35.78125 24.609375 36.246094 23.375 36.558594 22.101562 C 36.882812 20.792969 37.042969 19.441406 37.042969 18.082031 C 37.042969 15.8125 36.597656 13.609375 35.71875 11.535156 C 34.867188 9.535156 33.648438 7.738281 32.097656 6.195312 C 30.550781 4.652344 28.746094 3.445312 26.738281 2.597656 C 24.660156 1.722656 22.453125 1.28125 20.175781 1.28125 C 17.902344 1.28125 15.695312 1.722656 13.617188 2.597656 C 11.609375 3.445312 9.804688 4.652344 8.253906 6.195312 C 6.707031 7.738281 5.488281 9.535156 4.636719 11.535156 C 3.757812 13.609375 3.308594 15.8125 3.308594 18.082031 C 3.308594 22.304688 4.527344 26.019531 6.925781 29.128906 C 8.832031 31.597656 11.476562 33.679688 14.789062 35.3125 C 17.089844 36.449219 19.382812 37.199219 21.195312 37.679688 C 21.316406 37.710938 21.308594 37.886719 21.183594 37.90625 L 13.84375 39.1875 C 13.480469 39.25 13.214844 39.558594 13.199219 39.925781 C 13.179688 40.296875 13.421875 40.628906 13.773438 40.722656 L 25.976562 44 C 26.042969 44.019531 26.109375 44.027344 26.175781 44.027344 C 26.519531 44.027344 26.832031 43.792969 26.925781 43.441406 Z M 27.820312 19.839844 L 24.128906 16.578125 L 23.035156 15.613281 C 22.867188 15.464844 22.804688 15.230469 22.875 15.015625 L 25.378906 7.398438 C 25.550781 6.867188 24.933594 6.433594 24.503906 6.785156 L 13.203125 16.097656 C 12.914062 16.335938 12.933594 16.789062 13.242188 17 L 18.273438 20.433594 C 18.5 20.585938 18.582031 20.886719 18.464844 21.136719 L 14.820312 29.058594 L 14.453125 29.847656 C 14.210938 30.378906 14.835938 30.886719 15.296875 30.527344 L 17.03125 29.167969 L 25.480469 22.527344 L 27.796875 20.707031 C 28.070312 20.492188 28.082031 20.074219 27.820312 19.839844 Z M 21.019531 17.574219 L 21.019531 17.570312 Z M 21.019531 17.574219 L 21.019531 17.574219 " fill-opacity="1" fill-rule="nonzero"/></g></svg>