<svg xmlns="http://www.w3.org/2000/svg" xmlns:xlink="http://www.w3.org/1999/xlink" width="60" zoomAndPan="magnify" viewBox="0 0 45 44.999999" height="60" preserveAspectRatio="xMidYMid meet" version="1.0"><defs><clipPath id="6db6b77ce3"><path d="M 2.449219 2.5 L 42.199219 2.5 L 42.199219 42.25 L 2.449219 42.25 Z M 2.449219 2.5 " clip-rule="nonzero"/></clipPath></defs><g clip-path="url(#6db6b77ce3)"><path fill="#545454" d="M 26.8125 17.253906 C 26.8125 16.003906 26.4375 15.058594 25.679688 14.410156 C 24.925781 13.761719 23.816406 13.4375 22.351562 13.4375 L 19.722656 13.4375 L 19.722656 21.976562 L 21.695312 21.976562 C 23.265625 21.976562 24.511719 21.5625 25.433594 20.734375 C 26.351562 19.90625 26.8125 18.746094 26.8125 17.253906 Z M 35.578125 32.847656 L 29.085938 32.847656 C 27.65625 30.824219 26.410156 29.136719 25.355469 27.785156 C 24.300781 26.433594 23.222656 25.070312 22.121094 23.699219 L 19.722656 23.699219 L 19.722656 29.632812 C 19.722656 29.964844 19.789062 30.269531 19.917969 30.546875 C 20.046875 30.828125 20.296875 31.035156 20.675781 31.171875 C 20.839844 31.230469 21.1875 31.304688 21.71875 31.386719 C 22.246094 31.46875 22.644531 31.519531 22.917969 31.535156 L 22.917969 32.847656 L 12.976562 32.847656 L 12.976562 31.535156 C 13.246094 31.503906 13.617188 31.457031 14.085938 31.398438 C 14.554688 31.335938 14.902344 31.261719 15.128906 31.171875 C 15.457031 31.035156 15.695312 30.839844 15.839844 30.582031 C 15.984375 30.324219 16.054688 30.007812 16.054688 29.632812 L 16.054688 15.089844 C 16.054688 14.730469 16.003906 14.414062 15.898438 14.152344 C 15.792969 13.886719 15.535156 13.6875 15.128906 13.550781 C 14.808594 13.445312 14.449219 13.351562 14.039062 13.269531 C 13.632812 13.183594 13.277344 13.128906 12.976562 13.097656 L 12.976562 11.785156 L 24.117188 11.785156 C 24.964844 11.785156 25.792969 11.875 26.609375 12.054688 C 27.425781 12.238281 28.164062 12.523438 28.828125 12.917969 C 29.476562 13.308594 30.007812 13.828125 30.414062 14.46875 C 30.820312 15.109375 31.027344 15.882812 31.027344 16.789062 C 31.027344 18.4375 30.578125 19.726562 29.679688 20.664062 C 28.78125 21.597656 27.457031 22.308594 25.703125 22.792969 C 26.925781 24.269531 27.957031 25.527344 28.796875 26.5625 C 29.632812 27.597656 30.382812 28.527344 31.046875 29.359375 C 31.472656 29.886719 31.886719 30.28125 32.292969 30.535156 C 32.703125 30.792969 33.09375 30.984375 33.472656 31.101562 C 33.773438 31.207031 34.136719 31.304688 34.558594 31.386719 C 34.980469 31.46875 35.320312 31.519531 35.578125 31.535156 Z M 40.289062 22.496094 C 40.289062 17.589844 38.558594 13.363281 35.101562 9.8125 C 31.644531 6.265625 27.441406 4.492188 22.488281 4.492188 C 17.535156 4.492188 13.332031 6.265625 9.882812 9.8125 C 6.433594 13.363281 4.707031 17.589844 4.707031 22.496094 C 4.707031 27.40625 6.433594 31.632812 9.882812 35.179688 C 13.332031 38.726562 17.535156 40.503906 22.488281 40.503906 C 27.441406 40.503906 31.644531 38.726562 35.101562 35.179688 C 38.558594 31.632812 40.289062 27.40625 40.289062 22.496094 Z M 42.53125 22.496094 C 42.53125 28.023438 40.574219 32.738281 36.652344 36.640625 C 32.734375 40.542969 28.015625 42.496094 22.488281 42.496094 C 16.960938 42.496094 12.242188 40.542969 8.332031 36.640625 C 4.421875 32.738281 2.464844 28.023438 2.464844 22.496094 C 2.464844 16.972656 4.421875 12.257812 8.332031 8.351562 C 12.242188 4.449219 16.960938 2.5 22.488281 2.5 C 28.015625 2.5 32.734375 4.449219 36.652344 8.351562 C 40.574219 12.257812 42.53125 16.972656 42.53125 22.496094 " fill-opacity="1" fill-rule="nonzero"/></g></svg>