<svg xmlns="http://www.w3.org/2000/svg" xmlns:xlink="http://www.w3.org/1999/xlink" width="60" zoomAndPan="magnify" viewBox="0 0 45 44.999999" height="60" preserveAspectRatio="xMidYMid meet" version="1.0"><defs><clipPath id="183f228ac3"><path d="M 5.5 1.28125 L 39.25 1.28125 L 39.25 44 L 5.5 44 Z M 5.5 1.28125 " clip-rule="nonzero"/></clipPath></defs><g clip-path="url(#183f228ac3)"><path fill="#545454" d="M 29.296875 43.128906 C 29.410156 42.710938 29.160156 42.285156 28.742188 42.171875 L 20.441406 39.976562 C 20.320312 39.945312 20.328125 39.769531 20.453125 39.75 L 28.671875 38.339844 C 29.0625 38.273438 29.339844 37.929688 29.324219 37.539062 C 29.308594 37.144531 29.003906 36.824219 28.613281 36.789062 C 28.558594 36.785156 23.128906 36.265625 17.757812 33.65625 C 10.667969 30.207031 7.074219 24.925781 7.074219 17.957031 C 7.074219 9.625 13.992188 2.84375 22.5 2.84375 C 31.007812 2.84375 37.925781 9.625 37.925781 17.957031 C 37.925781 22.726562 35.589844 27.265625 31.671875 30.109375 C 31.320312 30.363281 31.242188 30.851562 31.496094 31.203125 C 31.75 31.550781 32.242188 31.628906 32.589844 31.375 C 34.683594 29.855469 36.417969 27.859375 37.609375 25.59375 C 38.214844 24.4375 38.683594 23.210938 39 21.949219 C 39.324219 20.648438 39.492188 19.304688 39.492188 17.957031 C 39.492188 15.703125 39.039062 13.519531 38.152344 11.460938 C 37.296875 9.472656 36.070312 7.691406 34.507812 6.160156 C 32.949219 4.628906 31.132812 3.425781 29.109375 2.589844 C 27.015625 1.71875 24.792969 1.28125 22.5 1.28125 C 20.207031 1.28125 17.984375 1.71875 15.890625 2.589844 C 13.867188 3.425781 12.050781 4.628906 10.492188 6.160156 C 8.929688 7.691406 7.703125 9.472656 6.847656 11.460938 C 5.960938 13.519531 5.507812 15.703125 5.507812 17.957031 C 5.507812 22.148438 6.734375 25.835938 9.152344 28.921875 C 11.070312 31.375 13.738281 33.441406 17.074219 35.0625 C 19.386719 36.1875 21.699219 36.933594 23.523438 37.410156 C 23.644531 37.441406 23.640625 37.617188 23.515625 37.636719 L 16.117188 38.90625 C 15.757812 38.96875 15.484375 39.273438 15.46875 39.640625 C 15.453125 40.007812 15.695312 40.339844 16.050781 40.433594 L 28.339844 43.6875 C 28.410156 43.703125 28.476562 43.710938 28.542969 43.710938 C 28.886719 43.710938 29.203125 43.480469 29.296875 43.128906 Z M 30.199219 19.703125 L 26.480469 16.464844 L 25.378906 15.507812 C 25.210938 15.359375 25.144531 15.125 25.21875 14.914062 L 27.738281 7.355469 C 27.914062 6.824219 27.292969 6.394531 26.859375 6.746094 L 15.472656 15.988281 C 15.183594 16.226562 15.203125 16.675781 15.515625 16.882812 L 20.582031 20.289062 C 20.808594 20.445312 20.890625 20.742188 20.777344 20.988281 L 17.101562 28.851562 L 16.734375 29.636719 C 16.488281 30.164062 17.121094 30.667969 17.582031 30.3125 L 19.328125 28.960938 L 27.839844 22.371094 L 30.171875 20.5625 C 30.453125 20.347656 30.460938 19.933594 30.199219 19.703125 Z M 23.351562 17.453125 L 23.347656 17.453125 Z M 23.347656 17.453125 L 23.347656 17.453125 " fill-opacity="1" fill-rule="nonzero"/></g></svg>