<svg xmlns="http://www.w3.org/2000/svg" xmlns:xlink="http://www.w3.org/1999/xlink" width="60" zoomAndPan="magnify" viewBox="0 0 45 44.999999" height="60" preserveAspectRatio="xMidYMid meet" version="1.0"><defs><clipPath id="e9fe3f1303"><path d="M 7.308594 29 L 33 29 L 33 39 L 7.308594 39 Z M 7.308594 29 " clip-rule="nonzero"/></clipPath><clipPath id="b5cdc9400a"><path d="M 13 24 L 42.558594 24 L 42.558594 45 L 13 45 Z M 13 24 " clip-rule="nonzero"/></clipPath><clipPath id="10a7c24b69"><path d="M 13 2.253906 L 40 2.253906 L 40 29 L 13 29 Z M 13 2.253906 " clip-rule="nonzero"/></clipPath></defs><g clip-path="url(#e9fe3f1303)"><path fill="#545454" d="M 8.054688 38.3125 C 7.734375 38.3125 7.511719 38.164062 7.390625 37.867188 C 7.265625 37.570312 7.320312 37.308594 7.546875 37.082031 L 13.40625 31.226562 C 13.875 30.75 14.417969 30.386719 15.039062 30.128906 C 15.65625 29.875 16.296875 29.746094 16.964844 29.75 L 29.421875 29.75 C 29.789062 29.75 30.140625 29.820312 30.476562 29.960938 C 30.816406 30.097656 31.113281 30.296875 31.371094 30.554688 C 31.628906 30.816406 31.828125 31.113281 31.96875 31.449219 C 32.109375 31.789062 32.175781 32.140625 32.175781 32.503906 C 32.175781 32.871094 32.109375 33.21875 31.96875 33.558594 C 31.828125 33.894531 31.628906 34.191406 31.371094 34.453125 C 31.113281 34.710938 30.816406 34.910156 30.476562 35.046875 C 30.140625 35.1875 29.789062 35.257812 29.421875 35.257812 L 21.28125 35.257812 C 21.082031 35.257812 20.914062 35.1875 20.773438 35.046875 C 20.632812 34.90625 20.5625 34.738281 20.5625 34.539062 C 20.5625 34.339844 20.632812 34.171875 20.773438 34.03125 C 20.914062 33.890625 21.082031 33.820312 21.28125 33.820312 L 29.421875 33.820312 C 29.597656 33.820312 29.765625 33.785156 29.925781 33.71875 C 30.089844 33.652344 30.230469 33.558594 30.355469 33.433594 C 30.476562 33.3125 30.574219 33.167969 30.640625 33.007812 C 30.707031 32.847656 30.742188 32.679688 30.742188 32.503906 C 30.742188 32.328125 30.707031 32.160156 30.640625 32 C 30.574219 31.839844 30.476562 31.695312 30.355469 31.574219 C 30.230469 31.449219 30.089844 31.355469 29.925781 31.289062 C 29.765625 31.222656 29.597656 31.1875 29.421875 31.1875 L 16.964844 31.1875 C 15.972656 31.191406 15.125 31.542969 14.421875 32.242188 L 8.5625 38.101562 C 8.421875 38.242188 8.253906 38.3125 8.054688 38.3125 Z M 8.054688 38.3125 " fill-opacity="1" fill-rule="nonzero"/></g><g clip-path="url(#b5cdc9400a)"><path fill="#545454" d="M 14.667969 44.925781 C 14.347656 44.925781 14.125 44.777344 14.003906 44.480469 C 13.882812 44.183594 13.933594 43.921875 14.160156 43.695312 L 15.949219 41.910156 C 16.417969 41.433594 16.964844 41.070312 17.582031 40.816406 C 18.199219 40.558594 18.839844 40.433594 19.507812 40.433594 L 27.125 40.433594 C 28.121094 40.4375 28.96875 40.085938 29.671875 39.378906 L 40.648438 28.402344 C 40.78125 28.269531 40.886719 28.113281 40.960938 27.9375 C 41.03125 27.757812 41.070312 27.574219 41.070312 27.386719 C 41.070312 27.195312 41.03125 27.011719 40.960938 26.835938 C 40.886719 26.660156 40.78125 26.503906 40.648438 26.367188 C 40.511719 26.234375 40.355469 26.128906 40.179688 26.054688 C 40.003906 25.984375 39.820312 25.945312 39.628906 25.945312 C 39.4375 25.945312 39.253906 25.984375 39.078125 26.054688 C 38.902344 26.128906 38.746094 26.230469 38.613281 26.367188 L 31.96875 33.015625 C 31.828125 33.152344 31.65625 33.21875 31.460938 33.214844 C 31.265625 33.214844 31.097656 33.144531 30.957031 33.003906 C 30.820312 32.867188 30.75 32.699219 30.75 32.503906 C 30.746094 32.304688 30.8125 32.136719 30.949219 31.996094 L 37.59375 25.351562 C 37.863281 25.082031 38.175781 24.875 38.527344 24.726562 C 38.882812 24.582031 39.25 24.507812 39.628906 24.507812 C 40.011719 24.507812 40.378906 24.582031 40.730469 24.726562 C 41.085938 24.875 41.394531 25.082031 41.664062 25.351562 C 41.933594 25.621094 42.144531 25.933594 42.289062 26.285156 C 42.433594 26.636719 42.507812 27.003906 42.507812 27.386719 C 42.507812 27.769531 42.433594 28.136719 42.289062 28.488281 C 42.144531 28.839844 41.933594 29.152344 41.664062 29.421875 L 30.6875 40.398438 C 30.21875 40.871094 29.671875 41.234375 29.054688 41.492188 C 28.4375 41.746094 27.792969 41.875 27.125 41.871094 L 19.507812 41.871094 C 18.515625 41.875 17.667969 42.226562 16.964844 42.925781 L 15.175781 44.714844 C 15.039062 44.855469 14.867188 44.925781 14.667969 44.925781 Z M 14.667969 44.925781 " fill-opacity="1" fill-rule="nonzero"/></g><g clip-path="url(#10a7c24b69)"><path fill="#545454" d="M 26.808594 28.191406 C 25.957031 28.191406 25.113281 28.109375 24.28125 27.945312 C 23.445312 27.777344 22.636719 27.53125 21.851562 27.207031 C 21.066406 26.882812 20.320312 26.484375 19.613281 26.011719 C 18.90625 25.539062 18.25 25 17.648438 24.398438 C 17.046875 23.796875 16.511719 23.144531 16.039062 22.4375 C 15.566406 21.730469 15.167969 20.984375 14.84375 20.199219 C 14.515625 19.414062 14.269531 18.601562 14.105469 17.769531 C 13.9375 16.933594 13.855469 16.09375 13.855469 15.242188 C 13.855469 14.390625 13.9375 13.550781 14.105469 12.714844 C 14.269531 11.882812 14.515625 11.070312 14.84375 10.285156 C 15.167969 9.5 15.566406 8.753906 16.039062 8.046875 C 16.511719 7.339844 17.046875 6.683594 17.648438 6.082031 C 18.25 5.484375 18.90625 4.945312 19.613281 4.472656 C 20.320312 4 21.066406 3.601562 21.851562 3.277344 C 22.636719 2.949219 23.445312 2.707031 24.28125 2.539062 C 25.113281 2.375 25.957031 2.289062 26.808594 2.289062 C 27.660156 2.289062 28.5 2.375 29.335938 2.539062 C 30.167969 2.707031 30.976562 2.949219 31.765625 3.277344 C 32.550781 3.601562 33.296875 4 34.003906 4.472656 C 34.710938 4.945312 35.363281 5.484375 35.964844 6.082031 C 36.566406 6.683594 37.105469 7.339844 37.578125 8.046875 C 38.050781 8.753906 38.449219 9.5 38.773438 10.285156 C 39.097656 11.070312 39.34375 11.882812 39.511719 12.714844 C 39.675781 13.550781 39.757812 14.390625 39.757812 15.242188 C 39.757812 16.09375 39.675781 16.933594 39.507812 17.765625 C 39.339844 18.601562 39.09375 19.410156 38.769531 20.195312 C 38.445312 20.980469 38.042969 21.726562 37.570312 22.433594 C 37.097656 23.140625 36.5625 23.792969 35.960938 24.394531 C 35.359375 24.996094 34.707031 25.535156 34 26.007812 C 33.292969 26.476562 32.546875 26.878906 31.761719 27.203125 C 30.976562 27.527344 30.167969 27.777344 29.332031 27.941406 C 28.5 28.109375 27.65625 28.191406 26.808594 28.191406 Z M 26.808594 3.730469 C 26.050781 3.730469 25.304688 3.804688 24.5625 3.949219 C 23.820312 4.097656 23.101562 4.316406 22.402344 4.605469 C 21.703125 4.894531 21.039062 5.25 20.410156 5.667969 C 19.785156 6.089844 19.203125 6.566406 18.667969 7.101562 C 18.132812 7.636719 17.65625 8.21875 17.234375 8.847656 C 16.816406 9.472656 16.460938 10.136719 16.171875 10.835938 C 15.882812 11.535156 15.664062 12.253906 15.515625 12.996094 C 15.367188 13.738281 15.296875 14.484375 15.296875 15.242188 C 15.296875 15.996094 15.367188 16.746094 15.515625 17.488281 C 15.664062 18.230469 15.882812 18.949219 16.171875 19.648438 C 16.460938 20.347656 16.816406 21.007812 17.234375 21.636719 C 17.65625 22.265625 18.132812 22.847656 18.667969 23.382812 C 19.203125 23.917969 19.785156 24.394531 20.410156 24.8125 C 21.039062 25.234375 21.703125 25.589844 22.402344 25.878906 C 23.101562 26.167969 23.820312 26.386719 24.5625 26.53125 C 25.304688 26.679688 26.050781 26.753906 26.808594 26.753906 C 27.5625 26.753906 28.3125 26.679688 29.054688 26.53125 C 29.796875 26.386719 30.515625 26.167969 31.214844 25.878906 C 31.910156 25.589844 32.574219 25.234375 33.203125 24.8125 C 33.832031 24.394531 34.414062 23.917969 34.949219 23.382812 C 35.484375 22.847656 35.960938 22.265625 36.378906 21.636719 C 36.800781 21.007812 37.15625 20.347656 37.445312 19.648438 C 37.734375 18.949219 37.953125 18.230469 38.097656 17.488281 C 38.246094 16.746094 38.320312 15.996094 38.320312 15.242188 C 38.320312 14.484375 38.246094 13.738281 38.097656 12.996094 C 37.949219 12.253906 37.730469 11.535156 37.441406 10.839844 C 37.152344 10.140625 36.796875 9.476562 36.375 8.847656 C 35.957031 8.222656 35.480469 7.640625 34.945312 7.105469 C 34.410156 6.570312 33.828125 6.09375 33.199219 5.671875 C 32.574219 5.253906 31.910156 4.898438 31.210938 4.609375 C 30.511719 4.320312 29.792969 4.101562 29.054688 3.953125 C 28.3125 3.804688 27.5625 3.730469 26.808594 3.730469 Z M 26.808594 3.730469 " fill-opacity="1" fill-rule="nonzero"/></g><path fill="#545454" d="M 21.050781 18.839844 C 20.851562 18.839844 20.683594 18.769531 20.542969 18.628906 C 20.402344 18.488281 20.332031 18.320312 20.332031 18.121094 L 20.332031 12.363281 C 20.332031 12.164062 20.402344 11.996094 20.542969 11.855469 C 20.683594 11.714844 20.851562 11.644531 21.050781 11.644531 C 21.25 11.644531 21.417969 11.714844 21.558594 11.855469 C 21.699219 11.996094 21.769531 12.164062 21.769531 12.363281 L 21.769531 18.121094 C 21.769531 18.320312 21.699219 18.488281 21.558594 18.628906 C 21.417969 18.769531 21.25 18.839844 21.050781 18.839844 Z M 21.050781 18.839844 " fill-opacity="1" fill-rule="nonzero"/><path fill="#545454" d="M 23.210938 13.082031 L 18.894531 13.082031 C 18.695312 13.082031 18.523438 13.011719 18.382812 12.871094 C 18.242188 12.730469 18.171875 12.5625 18.171875 12.363281 C 18.171875 12.164062 18.242188 11.996094 18.382812 11.855469 C 18.523438 11.714844 18.695312 11.644531 18.894531 11.644531 L 23.210938 11.644531 C 23.410156 11.644531 23.578125 11.714844 23.71875 11.855469 C 23.859375 11.996094 23.929688 12.164062 23.929688 12.363281 C 23.929688 12.5625 23.859375 12.730469 23.71875 12.871094 C 23.578125 13.011719 23.410156 13.082031 23.210938 13.082031 Z M 23.210938 13.082031 " fill-opacity="1" fill-rule="nonzero"/><path fill="#545454" d="M 23.929688 18.839844 C 23.84375 18.839844 23.757812 18.824219 23.675781 18.792969 C 23.492188 18.722656 23.355469 18.597656 23.273438 18.417969 C 23.191406 18.238281 23.1875 18.054688 23.253906 17.867188 L 25.414062 12.109375 C 25.484375 11.925781 25.609375 11.789062 25.789062 11.707031 C 25.96875 11.625 26.152344 11.617188 26.339844 11.6875 C 26.527344 11.757812 26.660156 11.882812 26.742188 12.0625 C 26.824219 12.246094 26.832031 12.429688 26.761719 12.613281 L 24.605469 18.371094 C 24.488281 18.683594 24.261719 18.839844 23.929688 18.839844 Z M 23.929688 18.839844 " fill-opacity="1" fill-rule="nonzero"/><path fill="#545454" d="M 28.246094 18.839844 C 27.914062 18.839844 27.6875 18.683594 27.574219 18.371094 L 25.414062 12.617188 C 25.34375 12.429688 25.351562 12.246094 25.433594 12.066406 C 25.515625 11.882812 25.648438 11.757812 25.835938 11.6875 C 26.023438 11.621094 26.207031 11.625 26.386719 11.707031 C 26.566406 11.792969 26.691406 11.925781 26.761719 12.113281 L 28.921875 17.867188 C 28.992188 18.054688 28.984375 18.238281 28.902344 18.417969 C 28.820312 18.601562 28.6875 18.726562 28.5 18.796875 C 28.417969 18.824219 28.332031 18.839844 28.246094 18.839844 Z M 28.246094 18.839844 " fill-opacity="1" fill-rule="nonzero"/><path fill="#545454" d="M 34.722656 18.839844 C 34.484375 18.839844 34.289062 18.742188 34.148438 18.550781 L 29.828125 12.796875 C 29.710938 12.636719 29.664062 12.457031 29.695312 12.261719 C 29.722656 12.066406 29.816406 11.90625 29.972656 11.789062 C 30.132812 11.667969 30.3125 11.625 30.507812 11.652344 C 30.703125 11.679688 30.863281 11.773438 30.980469 11.933594 L 35.296875 17.6875 C 35.476562 17.925781 35.5 18.175781 35.367188 18.441406 C 35.234375 18.707031 35.019531 18.839844 34.722656 18.839844 Z M 34.722656 18.839844 " fill-opacity="1" fill-rule="nonzero"/><path fill="#545454" d="M 30.40625 18.839844 C 30.109375 18.839844 29.894531 18.707031 29.761719 18.441406 C 29.628906 18.175781 29.652344 17.925781 29.828125 17.6875 L 34.148438 11.933594 C 34.265625 11.773438 34.425781 11.679688 34.621094 11.652344 C 34.816406 11.621094 34.996094 11.667969 35.15625 11.789062 C 35.3125 11.90625 35.40625 12.066406 35.433594 12.261719 C 35.464844 12.457031 35.417969 12.636719 35.296875 12.796875 L 30.980469 18.550781 C 30.835938 18.742188 30.644531 18.839844 30.40625 18.839844 Z M 30.40625 18.839844 " fill-opacity="1" fill-rule="nonzero"/><path fill="#545454" d="M 27.527344 17.402344 L 24.648438 17.402344 C 24.449219 17.402344 24.28125 17.332031 24.140625 17.191406 C 24 17.050781 23.929688 16.878906 23.929688 16.679688 C 23.929688 16.480469 24 16.3125 24.140625 16.171875 C 24.28125 16.03125 24.449219 15.960938 24.648438 15.960938 L 27.527344 15.960938 C 27.726562 15.960938 27.894531 16.03125 28.035156 16.171875 C 28.175781 16.3125 28.246094 16.480469 28.246094 16.679688 C 28.246094 16.878906 28.175781 17.050781 28.035156 17.191406 C 27.894531 17.332031 27.726562 17.402344 27.527344 17.402344 Z M 27.527344 17.402344 " fill-opacity="1" fill-rule="nonzero"/></svg>